STARTFONT 2.1
FONT -FontForge-Weather Icons-Book-R-Normal--46-440-75-75-P-407-ISO10646-1
SIZE 44 75 75
FONTBOUNDINGBOX 71 66 -1 -15
COMMENT "Generated by fontforge, http://fontforge.sourceforge.net"
COMMENT "Weather Icons licensed under SIL OFL 1.1 - Code licensed under MIT License - Documentation licensed under CC BY 3.0"
STARTPROPERTIES 36
FOUNDRY "FontForge"
FAMILY_NAME "Weather Icons"
WEIGHT_NAME "Book"
SLANT "R"
SETWIDTH_NAME "Normal"
ADD_STYLE_NAME ""
PIXEL_SIZE 46
POINT_SIZE 440
RESOLUTION_X 75
RESOLUTION_Y 75
SPACING "P"
AVERAGE_WIDTH 407
CHARSET_REGISTRY "ISO10646"
CHARSET_ENCODING "1"
FONTNAME_REGISTRY ""
CHARSET_COLLECTIONS "Symbol ISO10646-1"
FONT_NAME "WeatherIcons-Regular"
FACE_NAME "Weather Icons Regular"
COPYRIGHT "Weather Icons licensed under SIL OFL 1.1 - Code licensed under MIT License - Documentation licensed under CC BY 3.0"
FONT_VERSION "1.100;PS 001.100;hotconv 1.0.70;makeotf.lib2.5.58329"
FONT_ASCENT 39
FONT_DESCENT 7
UNDERLINE_POSITION -3
UNDERLINE_THICKNESS 2
RAW_ASCENT 856
RAW_DESCENT 143
NORM_SPACE 15
RELATIVE_WEIGHT 40
RELATIVE_SETWIDTH 50
SUPERSCRIPT_X 0
SUPERSCRIPT_Y 16
SUPERSCRIPT_SIZE 27
SUBSCRIPT_X 0
SUBSCRIPT_Y 3
SUBSCRIPT_SIZE 27
FIGURE_WIDTH -1
ENDPROPERTIES
CHARS 247
STARTCHAR space
ENCODING 32
SWIDTH 334 0
DWIDTH 15 0
BBX 1 1 0 0
BITMAP
00
ENDCHAR
STARTCHAR uni00A0
ENCODING 160
SWIDTH 334 0
DWIDTH 15 0
BBX 1 1 0 0
BITMAP
00
ENDCHAR
STARTCHAR uni2000
ENCODING 8192
SWIDTH 547 0
DWIDTH 25 0
BBX 1 1 0 0
BITMAP
00
ENDCHAR
STARTCHAR uni2001
ENCODING 8193
SWIDTH 1096 0
DWIDTH 50 0
BBX 1 1 0 0
BITMAP
00
ENDCHAR
STARTCHAR uni2002
ENCODING 8194
SWIDTH 547 0
DWIDTH 25 0
BBX 1 1 0 0
BITMAP
00
ENDCHAR
STARTCHAR uni2003
ENCODING 8195
SWIDTH 1096 0
DWIDTH 50 0
BBX 1 1 0 0
BITMAP
00
ENDCHAR
STARTCHAR uni2004
ENCODING 8196
SWIDTH 365 0
DWIDTH 17 0
BBX 1 1 0 0
BITMAP
00
ENDCHAR
STARTCHAR uni2005
ENCODING 8197
SWIDTH 273 0
DWIDTH 13 0
BBX 1 1 0 0
BITMAP
00
ENDCHAR
STARTCHAR uni2006
ENCODING 8198
SWIDTH 182 0
DWIDTH 8 0
BBX 1 1 0 0
BITMAP
00
ENDCHAR
STARTCHAR uni2007
ENCODING 8199
SWIDTH 182 0
DWIDTH 8 0
BBX 1 1 0 0
BITMAP
00
ENDCHAR
STARTCHAR uni2008
ENCODING 8200
SWIDTH 136 0
DWIDTH 6 0
BBX 1 1 0 0
BITMAP
00
ENDCHAR
STARTCHAR uni2009
ENCODING 8201
SWIDTH 219 0
DWIDTH 10 0
BBX 1 1 0 0
BITMAP
00
ENDCHAR
STARTCHAR uni200A
ENCODING 8202
SWIDTH 60 0
DWIDTH 3 0
BBX 1 1 0 0
BITMAP
00
ENDCHAR
STARTCHAR uni202F
ENCODING 8239
SWIDTH 219 0
DWIDTH 10 0
BBX 1 1 0 0
BITMAP
00
ENDCHAR
STARTCHAR uni205F
ENCODING 8287
SWIDTH 273 0
DWIDTH 13 0
BBX 1 1 0 0
BITMAP
00
ENDCHAR
STARTCHAR uni25FC
ENCODING 9724
SWIDTH 278 0
DWIDTH 13 0
BBX 1 1 0 0
BITMAP
00
ENDCHAR
STARTCHAR uniF000
ENCODING 61440
SWIDTH 1526 0
DWIDTH 70 0
BBX 70 59 0 -9
BITMAP
00000000000C000000
00000000001E000000
00000000001E000000
00000000001E000000
00000000001E000000
00000000001E000000
00000000001E000000
0000001C001E000C00
0000003E000C001E00
0000003F0000003E00
0000001F000000FC00
0000000F000000F800
00000000000001F000
00000000007F00E000
0000000001FFE04000
0000000007FFF00000
0000007FCFFFF80000
000001FFFFC0FC0000
000007FFFF003E0000
00000FFFFE001F0000
00001FC07F000F0000
00003F001F800F0000
00007C000FC0078000
0000780007C00783F8
0000F80003E00787FC
0000F00001E00787FC
0001F00001FE0783F8
0007E00001FF878000
001FE00001FFCF8000
003FE00000FFEF0000
007E003E0003FF0000
00FC00FF8000FE0000
00F800FFC0007E0000
01F000FFC0003C0000
01E000E3E0003E0000
00000001E0001E0000
00000001E0001E0000
00000001E0001E0000
00000003E0001E0000
7FFFFFFFC0001E3800
FFFFFFFFC0001E3C00
FFFFFFFF80003E3E00
7FFFFFFE00003C1E00
0000000000007C0C00
000000000000F80000
000000000001F80000
7FFFE01FFFFFF00000
7FFFF81FFFFFE00000
7FFFFC1FFFFF800000
7FFFFC1FFFFE000000
00003E000000000000
00001E000000000000
00001E000000000000
00001E000000000000
000E3E000000000000
000FFC000000000000
000FFC000000000000
0007F8000000000000
0003E0000000000000
ENDCHAR
STARTCHAR uniF001
ENCODING 61441
SWIDTH 1516 0
DWIDTH 70 0
BBX 70 59 0 -8
BITMAP
000000000018000000
00000000003C000000
00000000003C000000
00000000003C000000
00000000003C000000
00000000003C000000
00000000003C000000
00000038003C000E00
0000003C001C001F00
0000003E0000003F00
0000003E0000007F00
0000001E000000FC00
0000000C000000F800
00000000000000F000
0000000000FF00E000
0000000003FFC00000
000000FF0FFFF00000
000003FFDFFFF80000
00000FFFFF81FC0000
00001FFFFE007E0000
00003F81FE001F0000
00007E003F001F0000
0000FC001F000F0000
0000F8000F80078000
0001F00007800783FC
0001E00007C00787FC
0003E00003C00787FC
0007C00003FE0783FC
001FC00003FF878000
003FC00001FFEF8000
007FC00001FFFF0000
00FC00000003FF0000
01F800000001FE0000
01F0000000007E0000
03E0000000007C0000
03C0000000003E0000
0000000000003E0000
0000000000001E0000
0000000000001E0000
0000000000001E0000
0FFFFFF800001E3800
1FFFFFFC00001E7C00
1FFFFFFC00003E7E00
0FFFFFF800003C3E00
0000000000007C1E00
000000000000F80000
000000000003F00000
7FFFFE3FFFFFF00000
FFFFFF3FFFFFC00000
FFFFFF3FFFFF800000
7FFFFE3FFFFC000000
000000000000000000
000000000000000000
000000000000000000
000000000000000000
00FFFFFF8000000000
00FFFFFFC000000000
00FFFFFFC000000000
00FFFFFFC000000000
ENDCHAR
STARTCHAR uniF002
ENCODING 61442
SWIDTH 1399 0
DWIDTH 64 0
BBX 65 50 0 0
BITMAP
000000000300000000
000000000780000000
000000000780000000
000000000780000000
000000000780000000
000000000780000000
000000000780000000
000007000780038000
00000F80030007C000
00000FC000001FC000
000007C000003F8000
0000010000003F0000
000000001FC03C0000
000000007FF8100000
00000000FFFC000000
00001FF3FFFE000000
00007FFFF03F000000
0001FFFFE01F800000
0003FFFF8007800000
0007F03FC007C00000
000FC007E003C00000
001F0003E003E00000
003E0001F001E00000
003E0000F001E07F00
007C0000F801E0FF80
007C00007801E0FF80
00F800007F81E07F00
03F800007FE1E00000
0FF800007FFBE00000
1FF800003FFFC00000
3F80000000FFC00000
3E000000003F800000
7C000000001F800000
78000000000F000000
F8000000000F800000
F00000000007800000
F00000000007800000
F00000000007800000
F00000000007860000
F000000000078F0000
F000000000078F8000
F8000000000F0FC000
78000000000F07C000
7C000000001F038000
3E000000003E000000
1F80000000FC000000
1FFFFFFFFFFC000000
07FFFFFFFFF0000000
03FFFFFFFFE0000000
00FFFFFFFF80000000
ENDCHAR
STARTCHAR uniF003
ENCODING 61443
SWIDTH 1529 0
DWIDTH 70 0
BBX 70 58 0 -8
BITMAP
00000000000C000000
00000000001E000000
00000000001E000000
00000000001E000000
00000000001E000000
00000000001E000000
00000000001E000000
0000001C001E000C00
0000003E000C003E00
0000003F0000007E00
0000001F000000FC00
00000004000000F800
00000000007F00F000
0000000001FFE06000
0000000007FFF00000
0000007FCFFFF80000
000001FFFFC0FC0000
000007FFFF807E0000
00000FFFFE003E0000
00001FC0FF001F0000
00003F001F800F0000
00007E000F800F8000
00007C0007C0078000
0000F80003C00783F8
0000F00003E00787FC
0001F00001E00787FC
0001E00001FE0783F8
000FE00001FFC78000
001FE00000FFEF8000
003FE00000FFFF0000
007F00000003FF0000
00FC00000000FE0000
00F0000000007E0000
01F0000000003C0000
01E0000000001E0000
000000000000000000
000000000000000000
000000000000000000
000000000000000000
01FFFFFFFFFFFC3800
03FFFFFFFFFFFE3C00
03FFFFFFFFFFFE3E00
01FFFFFFFFFFFC3E00
000000000000001E00
000000000000000000
000000000000000000
7FFFFFFFFFFF000000
FFFFFFFFFFFF800000
FFFFFFFFFFFF800000
7FFFFFFFFFFF000000
000000000000000000
000000000000000000
000000000000000000
000000000000000000
001FFFFFFFFFFFC000
003FFFFFFFFFFFE000
003FFFFFFFFFFFE000
001FFFFFFFFFFFC000
ENDCHAR
STARTCHAR uniF004
ENCODING 61444
SWIDTH 1408 0
DWIDTH 65 0
BBX 65 64 0 -14
BITMAP
000000000780000000
000000000780000000
000000000780000000
000000000780000000
000000000780000000
000000000780000000
000000000780000000
00000700078003C000
00000F80030007C000
00000FC000000FC000
000007C000001F8000
0000038000003F0000
0000000000003E0000
000000003FE01C0000
00000000FFFC000000
000007C1FFFE000000
00007FFBFFFF000000
0000FFFFF03F800000
0003FFFFC00FC00000
0007FC7F8007C00000
000FE00FC003E00000
001F8007E001E00000
001F0001F001E00000
003E0001F001F07F00
003C0000F801F0FF80
007C00007800F0FF80
007800007F01F0FF00
03F800007FE1F00000
07F800007FF9E00000
0FF800003FFFE00000
1FC0000001FFE00000
3F000000003FC00000
7E000000001F800000
7C000000000F800000
780000000007800000
F80000000007C00000
F00000000003C00000
F00000000003C00000
F00020303003C00000
F00078787803C70000
F00078787807CF8000
F800F87878078FC000
7800F0F0F80F87C000
7C00F0F0F00F838000
3E01F0F0F01F000000
1F81E1F1F07E000000
1FF1E1E1E3FC000000
07F3E1E1E3F8000000
03F3C3E1E3F0000000
00F1C3C1C3C0000000
000003C00000000000
000003C00000000000
000307C30000000000
000787878000000000
000787878000000000
000707870000000000
000007000000000000
000000000000000000
000000000000000000
000000000000000000
00001C000000000000
00001E000000000000
00001E000000000000
00000C000000000000
ENDCHAR
STARTCHAR uniF005
ENCODING 61445
SWIDTH 1400 0
DWIDTH 64 0
BBX 64 65 0 -15
BITMAP
0000000007800000
0000000007800000
0000000007800000
0000000007800000
0000000007800000
0000000007800000
0000070007800300
00000F8007800780
00000FC003000F80
000007C000001F00
000003C000003E00
0000000000007C00
000000001FC03800
000000007FF81000
00000000FFFC0000
00001FF3FFFE0000
00007FFFF03F0000
0001FFFFC01F8000
0003FFFF80078000
0007F03FC007C000
000FC007E003C000
001F8003E003E000
003E0001F001E000
003E0000F001E0FE
003C0000F801E1FF
007C00007801E1FF
00F800007F81E0FE
03F800007FE3E000
0FF800003FFBC000
1FF800003FFFC000
3F80000000FFC000
3E000000003F8000
7C000000001F0000
78000000000F0000
F8000000000F8000
F00001FF00078000
F00001FE00078000
F00001FE00078000
F00003FC00078E00
F00003FC00079F00
F00003F800079F80
780007F8000F1F80
780007F0000F0780
7C000FE0001F0300
3E000FE0003E0000
1F800FC000FE0000
0FF01FFF03FC0000
07F01FFE03F80000
03F01FFC03E00000
00703FFC03800000
000000F800000000
000001F000000000
000001E000000000
000001E000000000
000003C000000000
0000038000000000
0000078000000000
0000070000000000
0000060000000000
00000E0000000000
00000C0000000000
0000180000000000
0000100000000000
0000100000000000
0000200000000000
ENDCHAR
STARTCHAR uniF006
ENCODING 61446
SWIDTH 1408 0
DWIDTH 65 0
BBX 64 65 0 -15
BITMAP
0000000007000000
0000000007800000
0000000007800000
0000000007800000
0000000007800000
0000000007800000
0000000007800000
0000070007800380
00000F80030007C0
00000FC000000F80
000007C000001F80
0000038000003F00
0000000000003E00
000000001FE01C00
000000007FF80000
00000201FFFE0000
00003FF3FFFF0000
0000FFFFF03F8000
0003FFFFC00F8000
0007FFFF8007C000
000FE01FC003C000
001F8007E003E000
001F0003E001E000
003E0001F001E07E
003C0000F001E0FF
007C0000F801E0FF
007800007E01E0FF
01F800007FE1E03E
07F800007FF1E000
0FF800007FFFE000
1FE0000001FFC000
3F000000003FC000
7E000000001F8000
7C000000000F8000
7800000000078000
F800000000078000
F000000000078000
F00000000007C000
F00020000007C000
F000780078078F00
F000780078078F80
F800F800F8078FC0
7800F000F00F87C0
7C00F000F01F0380
3E006000603F0000
3F80000000FE0000
1FF0C1C0C3FC0000
0FF1E1E1C3F80000
03F1E1E1E3F00000
00F1C3C1C3800000
000003C000000000
000001C000000000
0003800380000000
0007800780000000
0007870780000000
0007878780000000
0007878780000000
0000020000000000
0000000000000000
00000C0000000000
00001E0000000000
00001E0000000000
00001E0000000000
00001E0000000000
0000080000000000
ENDCHAR
STARTCHAR uniF007
ENCODING 61447
SWIDTH 1408 0
DWIDTH 65 0
BBX 65 65 0 -15
BITMAP
000000000780000000
000000000780000000
000000000780000000
000000000780000000
000000000780000000
000000000780000000
000000000780000000
00000700078003C000
00000F80030007C000
00000FC000000FC000
000007C000001F8000
0000038000003F0000
0000000000003E0000
000000001FE01C0000
000000007FF8000000
00000701FFFE000000
00003FFBFFFF000000
0000FFFFF03F800000
0003FFFFC00FC00000
0007FEFF8007C00000
000FE00FC003E00000
001F8007E001E00000
001F0001F001E00000
003E0001F001F07E00
003C0000F800F0FF80
003C00007800F0FF80
007C00007F00F0FF00
01F800007FE1F00000
07F800007FF9E00000
0FF800003FFDE00000
1FE0000001FFE00000
3F000000003FC00000
7E000000001FC00000
7C000000000F800000
780000000007800000
F80000000007C00000
F00000000003C00000
F00000000003C00000
F00000000003C00000
F00000000003C70000
F80000000007CF8000
F800000000078FC000
78000000000787C000
7C001E07800F838000
3E003E07801F000000
3F803E0F807E000000
1FF07C1F07FE000000
0FE0F83E0FF8000000
03C1F87E1FF0000000
0081F07C3FC0000000
0003E0F83E00000000
0003C1F07C00000000
000383E0F800000000
000007E1F800000000
000007C1F000000000
00300F81E000000000
00781F00C000000000
00781E000000000000
00381E0E0000000000
0000001E0000000000
0000001E0000000000
0001C00E0000000000
0001E0000000000000
0001E0000000000000
0000C0000000000000
ENDCHAR
STARTCHAR uniF008
ENCODING 61448
SWIDTH 1404 0
DWIDTH 65 0
BBX 65 65 0 -14
BITMAP
000000000300000000
000000000780000000
000000000780000000
000000000780000000
000000000780000000
000000000780000000
000000000780000000
000007000780018000
00000F80078003C000
00000FC0000007C000
00000FC000000F8000
000007C000001F0000
0000038000003E0000
000000001FC03C0000
000000007FF8080000
00000001FFFC000000
00001FF3FFFE000000
00007FFFF03F000000
0001FFFFE01F800000
0003FFFF8007800000
0007F03FC007C00000
000FC007E003C00000
001F8003E003E00000
001F0001F001E00000
003E0000F001E07F00
003C0000F801E0FF80
007C00007801E0FF80
00F800007F81E07F00
03F800007FE1E00000
0FF800003FFBE00000
1FF800003FFFC00000
1F80000000FFC00000
3E000000003F800000
7C000000001F800000
78000000000F000000
F8000000000F800000
F00000000007800000
F00000000007800000
F00000000007800000
F00030303007860000
F000787878078F0000
F000787878078F8000
F800F878780F8FC000
7800F0F0F80F07C000
7C00F0F0F01F038000
3E00F0F0F03E000000
1F81E1F0F0FE000000
0FF1E1E1E3FC000000
07F1E1E1E3F8000000
03F3E1E1E3E0000000
0073C3E3E380000000
0003C3C3C000000000
0003C3C3C000000000
0007C3C3C000000000
000787C7C000000000
000787878000000000
000787878000000000
000007810000000000
00000F000000000000
00000F000000000000
00000F000000000000
00001F000000000000
00001E000000000000
00001E000000000000
00000C000000000000
ENDCHAR
STARTCHAR uniF009
ENCODING 61449
SWIDTH 1400 0
DWIDTH 64 0
BBX 64 64 0 -14
BITMAP
0000000007000000
0000000007800000
0000000007800000
0000000007800000
0000000007800000
0000000007800000
0000000007800000
0000070007800380
00000F8003000780
00000F8000000F80
000007C000001F80
0000038000003F00
0000000000003E00
000000001FC03C00
000000007FF80000
00000301FFFC0000
00003FFBFFFF0000
0000FFFFF03F0000
0003FFFFC00F8000
0007FEFF8007C000
000FE00FC003C000
001F8007E003E000
001F0003F001E000
003E0001F001E07E
003C0000F801E0FF
007C0000F801E1FF
007800007F01E0FF
01F800007FE1E07C
07F800007FF9E000
0FF800007FFFE000
1FE0000001FFC000
3F000000003FC000
7E000000001F8000
7C000000000F8000
7800000000078000
F800000000078000
F00000000007C000
F00000000003C000
F00030000003C000
F00078007807CF00
F800780078078F80
F800F80078078F80
7800F000F80F87C0
7C00F000F01F0380
3E006000703F0000
1F80000000FE0000
0FF001C003FC0000
07F001E003F80000
03F001E003F00000
00F003E003800000
000383C380000000
0003C1C3C0000000
0007C007C0000000
0007800780000000
0007800780000000
0007800780000000
0000000000000000
0000060000000000
00000F0000000000
00000F0000000000
00001F0000000000
00001E0000000000
00001E0000000000
00000C0000000000
ENDCHAR
STARTCHAR uniF00A
ENCODING 61450
SWIDTH 1398 0
DWIDTH 64 0
BBX 64 63 0 -13
BITMAP
0000000007000000
0000000007800000
0000000007800000
0000000007800000
0000000007800000
0000000007800000
0000000007800000
0000070007800380
00000F8003000780
00000FC000000F80
000007C000001F80
0000038000003F00
0000000000003E00
000000001FE03C00
000000007FF80000
00000001FFFC0000
00003FF3FFFF0000
0000FFFFF03F0000
0003FFFFC00F8000
0007FFFF8007C000
000FE01FC003C000
001F8007E003E000
001F0003E001E000
003E0001F001E07E
003C0000F001E0FF
007C0000F801E1FF
007800007E01E0FF
01F800007FE1E07C
07F800007FF1E000
0FF800007FFFE000
1FE0000001FFC000
3F000000003FC000
7E000000001F8000
7C000000000F8000
7800000000078000
F800000000078000
F000000000078000
F00000000007C000
F00000000007C000
F000000000078F00
F000000000078F80
F800000000078F80
780001C0000F8780
7C0001E0001F0380
3E0001E0003F0000
1F8000C000FE0000
1FF0E001C3FC0000
07F1E001C3F80000
03F1E001C3F00000
00F0C001C3800000
0000000000000000
000001E000000000
000001E000000000
000001E000000000
0000008000000000
0000E001C0000000
0001E001E0000000
0001E001C0000000
0000400080000000
000000C000000000
000001E000000000
000001E000000000
000001C000000000
ENDCHAR
STARTCHAR uniF00B
ENCODING 61451
SWIDTH 1398 0
DWIDTH 64 0
BBX 64 55 0 -5
BITMAP
0000000003800000
0000000007800000
0000000007800000
0000000007800000
0000000007800000
0000000007800000
0000000007800000
00000F0007800300
00000F8003000780
00000FC000000F80
000007C000001F00
000003C000003E00
0000000000003C00
000000001FC03800
000000007FF81000
00000001FFFC0000
00001FE3FFFE0000
0000FFFFF03F0000
0003FFFFC00F8000
0007FFFF8007C000
000FE03F8003C000
001F800FC003C000
003F0003E001E000
003E0001F001E0FF
007C0001F801E1FF
00780000F801E1FF
00F80000FF81E0FF
03F800007FE1E000
0FF800007FFBE000
1FF800007FFFC000
1F80003000FFC000
3E000070003F8000
7C0000F8001F8000
780000F8000F0000
F80040F8000F8000
F000E03000078000
F000E00000078000
F001F00000078000
F003F80000078600
F003F80000078F00
F003F80000078F80
F803F830000F8F80
7801F070000F0780
7C0040F8001F0380
3E0001FC003E0000
1F8001FE00FE0000
1FF003FE03FC0000
07F003FF03F80000
03F007FF03E00000
00F007FF03800000
000007FF00000000
000007FF00000000
000003FE00000000
000001FE00000000
000000FC00000000
ENDCHAR
STARTCHAR uniF00C
ENCODING 61452
SWIDTH 1240 0
DWIDTH 57 0
BBX 57 52 0 -3
BITMAP
0000000E00000000
0000001F00000000
0000001F00000000
0000001F00000000
0000001F00000000
0000001F00000000
0000001F00000000
0000001F00000000
00F0001F0003C000
00F8000E0007E000
00FC0000000FE000
007E0000001FC000
003F0000003F8000
001F8000003F0000
000F003F803E0000
000601FFF01C0000
000007FFFC000000
00000FFFFE000000
00001FFFFF000000
00003FC07F800000
00007F001FC00000
00007E000FC00000
0000FC0007E00000
0000F80003E00000
0000F80003E00000
0001F00001F00000
7F01F00001F07F00
FF81F00001F0FF80
FF81FE0001F0FF80
FF81FF8001F0FF80
7F07FFE001F07F00
000FFFF001F00000
000FFFF003E00000
001FC3F803E00000
001F00FC07E00000
003E00FF0FC00000
00FE007FDFC00000
01FE007FFF800000
03FC007FFF000000
07FC003FFE000000
07E00001FC000000
0FC00000FC000000
0F8000007C3E0000
0F8000007C3F0000
0F8000007C3F8000
0FC00000FC1FC000
07E00001F80FE000
07FFFFFFF807E000
03FFFFFFF003E000
01FFFFFFE001C000
00FFFFFFC0000000
003FFFFF00000000
ENDCHAR
STARTCHAR uniF00D
ENCODING 61453
SWIDTH 1106 0
DWIDTH 51 0
BBX 51 51 0 -8
BITMAP
000000C0000000
000001E0000000
000001E0000000
000001E0000000
000001E0000000
000001E0000000
000001E0000000
00C001E0006000
01E000C000F000
01F0000001F000
00F8000003E000
007C000007C000
003C0000078000
001C03F8070000
00001FFE000000
00003FFF800000
00007FFFC00000
0000FC0FE00000
0001F803F00000
0001E001F00000
0003E000F80000
0003C000780000
0007C000780000
000780003C0000
7F0780003C1FC0
FF8780003C3FE0
FF8780003C3FE0
7F0780003C1FC0
000780003C0000
0007C000780000
0003C000F80000
0003E001F80000
0001F003F00000
0000FC0FE00000
00007FFFC00000
00003FFF800000
00001FFE000000
001C03F8070000
003C0000078000
007C000007C000
00F8000003E000
01F0000001F000
01E000C000F000
00C001E0006000
000001E0000000
000001E0000000
000001E0000000
000001E0000000
000001E0000000
000001E0000000
000000C0000000
ENDCHAR
STARTCHAR uniF00E
ENCODING 61454
SWIDTH 1407 0
DWIDTH 65 0
BBX 65 64 0 -14
BITMAP
000000000780000000
000000000780000000
000000000780000000
000000000780000000
000000000780000000
000000000780000000
000000000780000000
000007000780038000
00000F80030007C000
00000FC000000FC000
000007C000001F8000
0000038000003F0000
0000000000003E0000
000000001FE01C0000
000000007FF8000000
00000781FFFE000000
00007FFBFFFF000000
0001FFFFF03F800000
0003FFFFC00FC00000
0007F87F8007C00000
000FC00FC003E00000
001F8003E001E00000
001F0001F001E00000
003E0000F001E07E00
003C0000F801F0FF80
007C00007801F0FF80
007800007F01F0FF00
03F800007FE1E00000
07F800007FF9E00000
0FF800003FFFE00000
1FC0000000FFE00000
3F000000003FC00000
7C000000001F800000
7C000000000F800000
780000000007800000
F80000000007C00000
F00000000003C00000
F00000000003C00000
F007F0001003C00000
F00FF0003803CF0000
F00FF0007C07CF8000
F80FE00078078FC000
781FE000780F87C000
7C1FC000780F838000
3E3FC000301F000000
1FBF8000007E000000
1FFF80E003FC000000
07FF01F003F8000000
03FE01E003F0000000
007E01E003C0000000
00FFF1E1C000000000
00FFE1C3C000000000
01FFE003C000000000
01FFC003C000000000
000F8003C000000000
000F00038000000000
000F00000000000000
001E06000000000000
001C0F000000000000
00180F000000000000
00380F000000000000
00300F000000000000
00200F000000000000
00400E000000000000
ENDCHAR
STARTCHAR uniF010
ENCODING 61456
SWIDTH 1403 0
DWIDTH 65 0
BBX 65 64 0 -14
BITMAP
000000000700000000
000000000780000000
000000000780000000
000000000780000000
000000000780000000
000000000780000000
000000000780000000
000007000780038000
00000F80030007C000
00000FC000000F8000
000007C000001F8000
0000038000003F0000
0000000000003E0000
000000001FE01C0000
000000007FF8000000
00000301FFFE000000
00003FFBFFFF000000
0000FFFFF03F800000
0003FFFFC00F800000
0007FEFF8007C00000
000FE00FC003C00000
001F8007E003E00000
001F0003F001E00000
003E0001F001E07E00
003C0000F001E0FF00
007C00007801E0FF80
007800007F01E0FF00
01F800007FE1E00000
07F800007FF9E00000
0FF800007FFFE00000
1FE0000001FFC00000
3F000000003FC00000
7E000000001F800000
7C000000000F800000
780000000007800000
F80000000007800000
F00000000007C00000
F00000000003C00000
F007F0302003C00000
F00FF0787803CF0000
F00FF07878078F8000
F80FE07878078FC000
781FE0F0F00F87C000
7C1FC0F0F01F038000
3E3FC0F0F03F000000
1FBF81F1F0FE000000
1FFF81E1E3FC000000
07FF01E1E3F8000000
03FE01E1E3F0000000
007E03E3E3C0000000
00FFF3C3C000000000
00FFE3C3C000000000
01FFE3C3C000000000
01FFC787C000000000
000F87838000000000
000F07838000000000
000F07800000000000
001E0F000000000000
001C0F000000000000
00180F000000000000
00301F000000000000
00301E000000000000
00200E000000000000
004000000000000000
ENDCHAR
STARTCHAR uniF011
ENCODING 61457
SWIDTH 1185 0
DWIDTH 55 0
BBX 54 44 0 -9
BITMAP
000000FF000000
000007FFC00000
00000FFFF00000
00003FFFF80000
00007F81FC0000
0000FE007E0000
0000F8001F0000
0001F0000F0000
0003E0000F8000
0003E000078000
0003C00007C000
0007C00003FC00
001FC00003FF00
007F800003FF80
00FF800003FFE0
01F8007C0007E0
03F000FF0001F0
03E001FF8000F8
07C001FF800078
078000C7C00078
00000003C0003C
00000003C0003C
00000003C0003C
00000007C0003C
3FFFFFFF80003C
7FFFFFFF80003C
7FFFFFFF00007C
3FFFFFFC000078
000000000000F8
000000000001F0
000000000007F0
7FFF803FFFFFE0
FFFFE03FFFFFC0
FFFFF03FFFFF00
7FFFF03FFFFC00
0000F800000000
00007800000000
00007800000000
00007800000000
0018F800000000
003FF000000000
003FF000000000
001FE000000000
000F8000000000
ENDCHAR
STARTCHAR uniF012
ENCODING 61458
SWIDTH 1239 0
DWIDTH 57 0
BBX 57 42 0 -8
BITMAP
0000003FC0000000
000000FFF8000000
000003FFFE000000
000007FFFF000000
00000FE03F800000
00001F800FC00000
00003E0007E00000
00003C0001E00000
00007C0001F00000
0000780000F00000
0000F80000FF8000
0003F000007FE000
000FF000007FF000
001FF000007FF800
003F80000000FC00
007E000000003E00
007C000000001F00
00F8000000001F00
00F0000000000F00
0000000000000780
0000000000000780
0000000000000780
0000000000000780
01FFFFFE00000780
03FFFFFF00000780
03FFFFFF00000F80
01FFFFFE00000F00
0000000000001F00
0000000000003E00
000000000000FE00
7FFFFF8FFFFFFC00
FFFFFFCFFFFFF800
FFFFFFCFFFFFE000
7FFFFF8FFFFF8000
0000000000000000
0000000000000000
0000000000000000
0000000000000000
001FFFFFE0000000
001FFFFFF0000000
001FFFFFF0000000
001FFFFFE0000000
ENDCHAR
STARTCHAR uniF013
ENCODING 61459
SWIDTH 1157 0
DWIDTH 53 0
BBX 53 34 0 0
BITMAP
00000007F00000
0000001FFC0000
0000007FFF0000
000000FC1F8000
0000003807C000
0000FE0003C000
0007FFC001E000
000FFFF001E000
003F01F800FE00
007C00FC00FF80
0078003C00FFC0
00F0001E00FFE0
00F0001E0001F0
01E0000FE000F0
07E0000FF80078
0FE0000FFC0038
1FE0000FFE0038
3E0000001F0038
7C0000000F8038
78000000078070
70000000038070
F000000003C0F0
E000000001C3E0
E000000001CFC0
E000000001CF80
E000000001CE00
E000000001C000
70000000038000
78000000078000
7E0000001F0000
3FFFFFFFFF0000
1FFFFFFFFE0000
07FFFFFFF80000
01FFFFFFE00000
ENDCHAR
STARTCHAR uniF014
ENCODING 61460
SWIDTH 1289 0
DWIDTH 59 0
BBX 59 42 0 -7
BITMAP
0000001FC0000000
000000FFF8000000
000003FFFC000000
000007FFFF000000
00000FE03F800000
00001F800FC00000
00001F0007C00000
00003E0003E00000
00007C0001E00000
00007C0001F00000
0000780000F00000
0000F80000FF0000
0003F00000FFE000
000FF000007FF000
001FF000007FF800
003F80000000FC00
007E000000007E00
007C000000001E00
00F8000000001F00
00F0000000000F00
0000000000000000
0000000000000000
0000000000000000
0000000000000000
01FFFFFFFFFFFC00
03FFFFFFFFFFFE00
03FFFFFFFFFFFE00
01FFFFFFFFFFFC00
0000000000000000
0000000000000000
0000000000000000
7FFFFFFFFFFF0000
FFFFFFFFFFFF8000
FFFFFFFFFFFF8000
7FFFFFFFFFFF0000
0000000000000000
0000000000000000
0000000000000000
001FFFFFFFFFFFE0
003FFFFFFFFFFFE0
001FFFFFFFFFFFE0
001FFFFFFFFFFFE0
ENDCHAR
STARTCHAR uniF015
ENCODING 61461
SWIDTH 1079 0
DWIDTH 50 0
BBX 50 49 0 -14
BITMAP
00001FE0000000
00007FFC000000
0001FFFE000000
0003FFFF800000
0007F01FC00000
000FC007E00000
001F8003E00000
003F0001F00000
003E0000F00000
003C0000F80000
007C0000780000
00F800007F8000
03F800007FF000
0FF800007FF800
1FF800003FFE00
1F800000007E00
3E000000001F00
7C000000000F80
78000000000780
F80000000007C0
F00000000003C0
F00000000003C0
F00000000003C0
F00030303003C0
F00078787803C0
F00078787803C0
F8007878780780
7800F8F0F00780
7C00F0F0F00F80
3E00F0F0F01F00
1F80F0F1F07E00
0FF1F1E1E3FC00
07F1E1E1E3F800
03F1E1E1E3F000
0071E3E1C3C000
0000C3C0000000
000003C0000000
000003C0000000
000787C7800000
00078787800000
00078787800000
00030783000000
00000000000000
00000000000000
00000000000000
00000E00000000
00001E00000000
00001E00000000
00000E00000000
ENDCHAR
STARTCHAR uniF016
ENCODING 61462
SWIDTH 733 0
DWIDTH 34 0
BBX 34 44 0 -6
BITMAP
0000003F80
0000007F80
0000007F00
000000FF00
000000FE00
000000FE00
01FF81FC00
01FF81FC00
03FF01F800
03FF03F800
07FE03FFC0
07FE07FF80
07FC07FF00
0FF807FF00
0FF8003E00
0FF0003C00
1FF0007C00
1FE0007800
3FE000F000
3FFF80F000
3FFF80E000
7FFF01C000
7FFF01C000
7FFE018000
01FC030000
01FC030000
01F8060000
03F0040000
03F0040000
03E0000000
07C0000000
07C0000000
0F80000000
0F00000000
0F00000000
1E00000000
1C00000000
1C00000000
3800000000
3000000000
7000000000
6000000000
4000000000
C000000000
ENDCHAR
STARTCHAR uniF017
ENCODING 61463
SWIDTH 1078 0
DWIDTH 50 0
BBX 50 49 0 -15
BITMAP
00001FE0000000
0000FFFC000000
0001FFFF000000
0007FFFF800000
000FF01FC00000
001F8007E00000
001F0001F00000
003E0000F00000
003C0000780000
007C0000780000
00F800003FC000
03F800003FF000
0FF800003FF800
1FF800003FFE00
3F800000007E00
3E000000001F00
7C000000000F80
78000000000780
F80000000007C0
F00000000003C0
F00000000003C0
F00000000003C0
F00070003003C0
F00078007803C0
F00078007803C0
7800F000780780
7C00F000780F80
7C00F000700F80
3E000000001F00
1F800000007E00
0FF0C1E0C3FC00
07F1E1E1E3F800
03F1E1E1E3F000
0070C3E0E3C000
000003C0000000
00038001800000
00078003C00000
00078703C00000
00078787C00000
00078783800000
00030303800000
00000000000000
00000000000000
00000000000000
00000E00000000
00001E00000000
00001E00000000
00001E00000000
00000C00000000
ENDCHAR
STARTCHAR uniF018
ENCODING 61464
SWIDTH 1080 0
DWIDTH 50 0
BBX 50 49 0 -15
BITMAP
00001FE0000000
0000FFFC000000
0003FFFF000000
0007FFFF800000
000FF03FC00000
001F8007E00000
001F0003F00000
003E0001F00000
003C0000F80000
00780000780000
00F800007F8000
03F800007FF000
0FF800007FF800
1FF000007FFE00
3F800000007E00
3E000000001F00
7C000000000F80
78000000000780
F80000000007C0
F00000000003C0
F00000000003C0
F00000000003C0
F00000000003C0
F00000000003C0
F00000000003C0
78000000000780
78000002000F80
7C003C07800F80
3E007C0F803F00
1FC0FC1F00FE00
1FE0F83F07FC00
07C1F07E0FF800
0383E07C1FF000
0007C0F83F8000
000FC1F07E0000
000F83E0FC0000
000707E1F80000
00000FC1F00000
00001F83E00000
00601F01C00000
00F03E00800000
00F03C00000000
00E0181C000000
0000001E000000
0000001E000000
0001C01C000000
0003C000000000
0003C000000000
00018000000000
ENDCHAR
STARTCHAR uniF019
ENCODING 61465
SWIDTH 1079 0
DWIDTH 50 0
BBX 50 47 0 -13
BITMAP
00001FE0000000
00007FFC000000
0001FFFF000000
0007FFFF800000
000FF01FC00000
001FC007E00000
001F0003F00000
003E0001F00000
003C0000F80000
007C0000780000
00F800007FC000
03F800007FF000
0FF800003FF800
1FF800003FFE00
1F800000007E00
3E000000001F00
7C000000000F80
78000000000780
F8000000000780
F00000000003C0
F00000000003C0
F00000000003C0
F00030303003C0
F00078787803C0
F00078787803C0
F800F8F87807C0
7800F0F0F00780
7C00F0F0F00F80
3E00F0F0F01F00
3F81E1F1F07F00
1FE1E1E1E1FE00
0FE1E1E1E1FC00
03E3E1E1E1F000
00E3C3C3C1C000
0003C3C3C00000
0003C3C3C00000
000787C7C00000
00078787800000
00078787800000
00070783800000
00000F80000000
00000F00000000
00000F00000000
00001F00000000
00001E00000000
00001E00000000
00001E00000000
ENDCHAR
STARTCHAR uniF01A
ENCODING 61466
SWIDTH 1083 0
DWIDTH 50 0
BBX 50 49 0 -14
BITMAP
00001FE0000000
00007FFC000000
0001FFFE000000
0003FFFF800000
0007F03FC00000
000FC00FE00000
001F0003E00000
003E0001F00000
003E0000F00000
003C0000F80000
007C0000780000
00F800007FC000
03F800007FF000
07F800007FF800
1FF800003FFE00
1F800000007E00
3E000000001F00
7C000000000F80
78000000000780
F8000000000780
F00000000003C0
F00000000003C0
F00000000003C0
F00030003003C0
F00078007803C0
F00078007803C0
F800F8007807C0
7800F000F80780
7C00F000F00F80
3E007000701F00
3F800000007F00
1FE000C001FE00
0FE001E001FC00
03E001E001F000
00E003E001C000
000383C3800000
0003C3C3C00000
0007C007C00000
00078007800000
00078007800000
00078003800000
00000000000000
00000400000000
00000F00000000
00000F00000000
00001F00000000
00001E00000000
00001E00000000
00000C00000000
ENDCHAR
STARTCHAR uniF01B
ENCODING 61467
SWIDTH 1079 0
DWIDTH 50 0
BBX 50 48 0 -13
BITMAP
00001FE0000000
00007FFC000000
0001FFFE000000
0003FFFF800000
0007F03FC00000
000FC007E00000
001F0003E00000
003E0001F00000
003E0000F80000
007C0000780000
00780000780000
00F800007FC000
03F800003FF000
0FF800003FF800
1FF800003FFC00
1F800000007E00
3E000000001F00
7C000000000F80
78000000000780
F8000000000780
F00000000003C0
F00000000003C0
F00000000003C0
F00000000003C0
F00000000003C0
F00000000003C0
F80000000007C0
780000C0000780
7C0001E0000F80
3E0001E0001F00
3F8000C0007F00
1FE0C000C1FE00
0FE1E001E1FC00
03E1E001E1F000
00E0C000C1C000
000000C0000000
000001E0000000
000001E0000000
000000C0000000
00000000000000
0000C000C00000
0001E001E00000
0001E001E00000
0000C000C00000
000000C0000000
000001E0000000
000001E0000000
000000C0000000
ENDCHAR
STARTCHAR uniF01C
ENCODING 61468
SWIDTH 1079 0
DWIDTH 50 0
BBX 50 39 0 -5
BITMAP
00001FE0000000
0000FFF8000000
0003FFFE000000
0007FFFF800000
000FE03FC00000
001F800FE00000
003F0003E00000
003E0001F00000
007C0001F00000
007C0000F80000
00F80000FF8000
03F800007FF000
0FF800007FF800
1FF800007FFC00
1F80002000FE00
3E000070003F00
7C0000F8000F80
780000F8000780
F80040F8000780
F000E0700003C0
F000E0000003C0
F001F0000003C0
F003F8000003C0
F003F8000003C0
F003F8000003C0
F803F8600007C0
7801F070000780
7C0000F8000F80
3E0001FC001F00
3F8003FC007F00
1FE003FE01FE00
0FE003FE01FC00
03E007FF01F000
00E007FF01C000
000007FF000000
000007FF000000
000003FE000000
000003FE000000
000001F8000000
ENDCHAR
STARTCHAR uniF01D
ENCODING 61469
SWIDTH 1080 0
DWIDTH 50 0
BBX 50 49 0 -14
BITMAP
00001FE0000000
00007FFC000000
0001FFFF000000
0003FFFF800000
0007F01FC00000
000FC007E00000
001F8003F00000
001F0001F00000
003E0000F80000
003C0000F80000
007C0000780000
00F800007FC000
03F800007FF000
07F800003FF800
1FF800003FFE00
1F800000007E00
3E000000001F00
7C000000000F80
78000000000780
F80000000007C0
F00000000003C0
F00000000003C0
F00000000003C0
F007F8003803C0
F00FF0003C03C0
F00FF0007C03C0
780FE000780780
781FE000780780
7C1FC000780F80
3E3FC000301F00
1FBF8000007E00
1FFF80E003FE00
07FF01E003F800
03FF01E003F000
00FE01E003C000
00FFF0E1C00000
00FFF003C00000
01FFE003C00000
01FFC003C00000
000F8003C00000
000F8003800000
000F0000000000
001E0600000000
001C0F00000000
00180F00000000
00180F00000000
00300F00000000
00200E00000000
00000600000000
ENDCHAR
STARTCHAR uniF01E
ENCODING 61470
SWIDTH 1080 0
DWIDTH 50 0
BBX 50 49 0 -14
BITMAP
00001FE0000000
00007FFC000000
0001FFFE000000
0003FFFF800000
0007F03FC00000
000FC007E00000
001F8003E00000
003F0001F00000
003E0000F00000
003C0000F80000
007C0000780000
00F800007F8000
03F800007FF000
07F800003FF800
1FF800003FFE00
1F800000007E00
3E000000001F00
7C000000000F80
78000000000780
F80000000007C0
F00000000003C0
F00000000003C0
F00000000003C0
F007F8303003C0
F00FF0787803C0
F00FF0787803C0
F80FE0787807C0
781FE0F8F80780
7C1FC0F0F00F80
3E3FC0F0F01F00
1FBF80F0F07E00
1FFF81E1F3FE00
07FF01E1E3F800
03FE01E1E3F000
00FE01E1E3C000
00FFF3C3C00000
00FFF3C3C00000
01FFE3C3C00000
01FFC7C3C00000
000FC783800000
000F8783800000
000F0780000000
000E0F80000000
001E0F00000000
001C0F00000000
00180F00000000
00180F00000000
00300E00000000
00200000000000
ENDCHAR
STARTCHAR uniF021
ENCODING 61473
SWIDTH 1078 0
DWIDTH 50 0
BBX 50 17 0 7
BITMAP
03FFFFFFFC0000
03FFFFFFFC0000
03FFFFFFFC0000
03FFFFFFFC0000
00000000000000
00000000000000
00000000000000
7FFFFFFF0FFF80
FFFFFFFF9FFFC0
FFFFFFFF9FFFC0
7FFFFFFF0FFF80
00000000000000
00000000000000
003FFFFFFFC000
003FFFFFFFC000
003FFFFFFFC000
003FFFFFFFC000
ENDCHAR
STARTCHAR uniF022
ENCODING 61474
SWIDTH 1251 0
DWIDTH 58 0
BBX 57 48 0 -9
BITMAP
00000000007F8000
0000000003FFC000
0000000007FFC000
000000001FFFC000
0000007F3FC3C000
000003FFFE03C000
00000FFFFC03C000
00001FFFFC03E000
00003F81FE01E000
00007E003F01F000
00007C001F80F800
0000F8000F80FC00
0001F00007C07F80
0001E00007C03F80
0001E00003E01F80
0003E00003FE0F80
000FC00001FF8F00
003FC00001FFDF00
007FC00001FFFE00
00FC007C0003FE00
01F801FF0000FC00
01F001FF80007C00
03E001FF80003C00
03C001C7C0003C00
03C00003C0001E00
00000003C0001E00
00000003C0001E00
00000007C0001E00
FFFFFFFF80001E00
FFFFFFFF80001E00
FFFFFFFF00003E00
FFFFFFFC00003C00
0000000000007C00
000000000000F800
000000000003F800
7FFFC03FFFFFF000
FFFFF03FFFFFE000
FFFFF83FFFFF8000
7FFFF83FFFFE0000
00007C0000000000
00003C0000000000
00003C0000000000
00003C0000000000
001C7C0000000000
001FF80000000000
001FF80000000000
001FF00000000000
0007C00000000000
ENDCHAR
STARTCHAR uniF023
ENCODING 61475
SWIDTH 1317 0
DWIDTH 61 0
BBX 60 47 0 -8
BITMAP
000000000007F000
00000000003FF800
00000000007FF800
0000000001FFF800
0000000001FC7800
0000000FE3F07800
0000007FFFC07800
000001FFFFC07800
000003FFFF803C00
000007F01FE03C00
00000FC007F01E00
00001F8001F01F00
00001F0000F80FE0
00003E0000F807F0
00003C00007C03F0
00007C00007FC1F0
0001FC00003FF1F0
0007F800003FFFE0
000FF800003FFFE0
001FC00000007FC0
003F000000001F80
003E000000000F80
007C000000000780
007C000000000780
00000000000003C0
00000000000003C0
00000000000003C0
00000000000003C0
01FFFFFF000003C0
03FFFFFF800003C0
03FFFFFF800007C0
01FFFFFF00000780
0000000000000F80
0000000000001F00
0000000000007F00
7FFFFFC7FFFFFE00
FFFFFFE7FFFFFC00
FFFFFFE7FFFFF000
7FFFFFC7FFFFC000
0000000000000000
0000000000000000
0000000000000000
0000000000000000
001FFFFFF8000000
001FFFFFF8000000
001FFFFFF8000000
001FFFFFF0000000
ENDCHAR
STARTCHAR uniF024
ENCODING 61476
SWIDTH 1135 0
DWIDTH 52 0
BBX 52 53 0 -14
BITMAP
000000000FE000
000000007FF800
00000001FFF000
00000003FFF000
00001FE7F0F000
00007FFFC0F000
0001FFFF80F000
0003FFFF00F800
0007F03F807800
000FC00FC07C00
001F8003E03E00
001F0001F03F80
003E0001F01FF0
003C0000F007F0
007C00007803F0
00FC00007F80F0
03F800007FF1F0
07F800007FFFE0
1FF800007FFFE0
1F80000000FFC0
3E000000003F80
7C000000000F80
78000000000F80
F80000000007C0
F00000000003C0
F00000000003C0
F00000000003C0
F00030303003C0
F00078787803C0
F00078787803C0
F8007878780780
7800F8F0F00F80
7C00F0F0F00F80
3E00F0F0F03F00
1F80F1F1F0FE00
0FF1F1E1E3FC00
07F1E1E1E3F800
03F1E1E1E3F000
0070E3E1C38000
000003C0000000
000003C0000000
000303C3000000
000787C7800000
00078787800000
00038787800000
00000300000000
00000000000000
00000000000000
00000000000000
00001E00000000
00001E00000000
00001E00000000
00000400000000
ENDCHAR
STARTCHAR uniF025
ENCODING 61477
SWIDTH 1132 0
DWIDTH 52 0
BBX 52 48 0 -9
BITMAP
000000000FE000
000000007FF800
00000001FFF000
00000003FFF000
00001FE7F0F000
00007FFFC0F000
0001FFFF80F000
0003FFFF00F800
0007F03F807C00
000FC00FC07C00
001F0003E03F00
003E0001F03F80
003E0001F01FF0
003C0000F007F0
007C0000F803F0
00F800007F81F0
03F800007FF1E0
07F800007FFBE0
1FF800007FFFC0
1F800000007FC0
3E000000003F80
7C000000000F80
78000000000780
F80000000007C0
F00001FE0003C0
F00001FE0003C0
F00001FC0003C0
F00003FC0003C0
F00003F80003C0
F00007F80003C0
F80007F0000780
780007F0000F80
7C000FE0000F80
3E000FE0003F00
1F800FC000FE00
1FF01FFE03FC00
07F01FFC03F800
03F03FFC03F000
00F03FF8038000
000001F0000000
000001E0000000
000001E0000000
000001C0000000
00000380000000
00000300000000
00000300000000
00000600000000
00000400000000
ENDCHAR
STARTCHAR uniF026
ENCODING 61478
SWIDTH 1138 0
DWIDTH 52 0
BBX 52 55 0 -15
BITMAP
0000000003C000
000000003FF800
00000000FFF800
00000001FFF800
00000003FCF000
00000787E0F000
00007FFFC0F800
0000FFFF807800
0003FFFF007800
0007FCFF807C00
000FE00FC03C00
001F8007E03E00
001F0001F01F80
003E0001F00FE0
003C0000F807F0
007C00007803F0
007800007F01F0
01F800007FE1F0
07F800007FFBE0
0FF800003FFFE0
1FE0000001FFC0
3F000000003F80
7E000000001F00
7C000000000F80
78000000000780
F80000000007C0
F00000000003C0
F00000000003C0
F00020000003C0
F00078007803C0
F00078007807C0
F800F800780780
7800F000F00F80
7C00F000F00F80
3E002000201F00
3F800000007E00
1FF0C1E0C3FE00
0FF1E1E1E3F800
03F1E1E1E3F000
00F1C3E1C3C000
000003C0000000
000001C0000000
00038003800000
00078007800000
00078787800000
00078787800000
00078787800000
00000300000000
00000000000000
00000E00000000
00001E00000000
00001E00000000
00001E00000000
00001E00000000
00000C00000000
ENDCHAR
STARTCHAR uniF027
ENCODING 61479
SWIDTH 1139 0
DWIDTH 52 0
BBX 53 54 0 -15
BITMAP
000000000FE000
000000007FF800
00000000FFF000
00000003FFF000
00000FE7F0F000
00007FFFC0F000
0001FFFF80F000
0003FFFF80F800
0007F01FC07C00
000FC007E07E00
001F8003E03F00
001F0001F01FC0
003E0000F00FF8
003C0000F807F0
007C00007803F0
00FC00007FC0F0
03F800007FF1F0
0FF800003FFFE0
1FF800003FFFC0
3F800000007FC0
3E000000001F80
7C000000000F80
78000000000780
F80000000007C0
F00000000003C0
F00000000003C0
F00000000003C0
F00000000003C0
F00000000003C0
F80000000007C0
78000000000780
7C000E03000F80
7E001E07801F00
3F003E0F803F00
1FE07E0F81FE00
0FF07C1F0FFC00
07E0F83E0FF800
01C1F07C1FE000
0003F0F83E0000
0003E0F87C0000
0003C1F0F80000
000383E0F80000
000007C1F00000
000007C1E00000
00380F81C00000
00781F00800000
00781E00000000
00380C0C000000
0000001E000000
0000001E000000
0000C00E000000
0001E000000000
0001E000000000
0001E000000000
ENDCHAR
STARTCHAR uniF028
ENCODING 61480
SWIDTH 1138 0
DWIDTH 52 0
BBX 52 54 0 -14
BITMAP
000000000FE000
000000003FF800
00000000FFF000
00000001FFF000
00000003F8F000
00000FE3E0F000
00007FFFC0F000
0001FFFF80F800
0003FFFF807800
0007F01FC07C00
000FC007E07E00
001F8003E03F00
003E0001F01FC0
003E0000F00FF0
007C00007807F0
007800007803F0
00F800003FC1F0
03F800003FF1F0
0FF800003FFBE0
1FF800003FFFC0
3F800000007FC0
3E000000003F80
7C000000000F80
78000000000780
F8000000000780
F00000000003C0
F00000000003C0
F00000000003C0
F00030303003C0
F00078787803C0
F000F8787803C0
F800F878780780
7800F878780780
7C00F0F8F00F80
3E01F0F8F01F00
1F81F0F0F07E00
1FF1F1F0F3FC00
07F1E1F0F3F800
03F3E1F1E3F000
00F3E1E1E38000
0003C3E1E00000
0003C3E1E00000
0007C3C3E00000
000783C3C00000
000787C3C00000
000787C3C00000
00000780000000
00000780000000
00000F80000000
00000F80000000
00000F00000000
00000F00000000
00000F00000000
00000600000000
ENDCHAR
STARTCHAR uniF029
ENCODING 61481
SWIDTH 1138 0
DWIDTH 52 0
BBX 53 54 0 -14
BITMAP
000000000FE000
000000003FF800
00000000FFF800
00000001FFF000
00000003F8F000
00001FE7E0F000
00007FFFC0F000
0001FFFF80F800
0003FFFF807800
0007F01FC07C00
000FC007C07E00
001F8003E03F00
001F0001F01FC0
003E0000F00FF8
003C0000F007F0
007C00007803F0
007C00007F80F0
03F800007FF1F0
07F800007FFBE0
1FF800007FFFE0
1F80000000FFC0
3E000000003F80
7C000000000F80
78000000000780
F80000000007C0
F00000000003C0
F00000000003C0
F00000000003C0
F00030003003C0
F00078007803C0
F00078007803C0
F8007800780780
7800F800F80F80
7C00F000F00F80
3E007000703F00
1F80000000FE00
0FF001C003FC00
07F001E003F800
03F001E003F000
007003E0038000
0003C3C3800000
0003C1C3C00000
0003C007C00000
00078007800000
00078007800000
00030007800000
00000000000000
00000600000000
00000F00000000
00000F00000000
00001F00000000
00001E00000000
00000E00000000
00000C00000000
ENDCHAR
STARTCHAR uniF02A
ENCODING 61482
SWIDTH 1138 0
DWIDTH 52 0
BBX 52 52 0 -13
BITMAP
000000000FE000
000000007FF800
00000000FFF000
00000003FFF000
00001FE3F0F000
00007FFFC0F000
0001FFFF80F000
0003FFFF80F800
0007F01FC07800
000FC007E07C00
001F0003E03F00
003E0001F03F80
003E0000F01FF0
007C00007807F0
007800007803F0
00F800007FC1F0
03F800003FF1F0
0FF800003FFBE0
1FF800003FFFE0
1F800000007FC0
3E000000001F80
7C000000000F80
78000000000780
F8000000000780
F00000000003C0
F00000000003C0
F00000000003C0
F00000000003C0
F00000000003C0
F00000000003C0
F80000000007C0
780000C0000780
7C0001E0000F80
3E0001E0001F00
3F8000C0007E00
1FF0C000C3FE00
0FF1E001E3F800
03F1E001E3F000
00F0C000C38000
000000C0000000
000001E0000000
000001E0000000
000000C0000000
00000000000000
0000C000C00000
0001E001E00000
0001E001E00000
0000C000C00000
000000C0000000
000001E0000000
000001E0000000
000000C0000000
ENDCHAR
STARTCHAR uniF02B
ENCODING 61483
SWIDTH 1134 0
DWIDTH 52 0
BBX 52 44 0 -5
BITMAP
000000000FE000
000000007FF800
00000001FFF000
00000003FFF000
00001FC7F0F000
0000FFFFC0F000
0001FFFF00F000
0007FFFF00F800
000FF03F807C00
000F800FC07C00
001F0007E03F00
003E0003E03F80
003C0001F01FF0
007C0000F007F0
00780000F803F0
00F80000FF81F0
03F800007FF1F0
0FF800007FFBE0
1FF800007FFFC0
1F80002000FFC0
3E000070003F80
7C0000F8000F80
780000F8000F80
F80040F8000780
F000E0700003C0
F000F0000003C0
F001F0000003C0
F003F8000003C0
F003F8000003C0
F003F8000003C0
F803F820000780
7801F070000F80
7C0000F8000F80
3E0001FC003F00
1F8003FC00FE00
1FF003FE03FC00
07F007FF03F800
03F007FF03F000
00F007FF038000
000007FF000000
000007FF000000
000003FE000000
000003FE000000
000001F8000000
ENDCHAR
STARTCHAR uniF02C
ENCODING 61484
SWIDTH 1136 0
DWIDTH 52 0
BBX 52 54 0 -14
BITMAP
000000000FE000
000000003FF800
00000000FFF000
00000001FFF000
00000003F8F000
00001FE3E0F000
00007FFFC0F000
0001FFFF80F000
0003FFFF807800
0007F01FC07C00
000FC007E07C00
001F8003F03F00
001F0001F01F80
003E0000F80FF0
003C00007807F0
007C00007803F0
00F800007FC0F0
03F800003FF1E0
07F800003FFBE0
1FF800003FFFC0
1F800000007FC0
3E000000001F80
7C000000000F80
78000000000780
F80000000007C0
F00000000003C0
F00000000003C0
F00000000003C0
F007F8001803C0
F00FF0003C03C0
F00FF0003C03C0
780FE0007C0780
781FE0007C0780
7C1FC000780F80
3E1FC000381F00
1FBF8000007E00
0FFF80E003FC00
07FF01E003F800
03FF01E003F000
007E01E003C000
00FFF1E1C00000
00FFF001E00000
01FFE003E00000
01FFC003C00000
000F8003C00000
000F8003C00000
000F0000000000
001E0600000000
001C0F00000000
00180F00000000
00380F00000000
00300F00000000
00200E00000000
00400600000000
ENDCHAR
STARTCHAR uniF02D
ENCODING 61485
SWIDTH 1137 0
DWIDTH 52 0
BBX 52 53 0 -13
BITMAP
000000000FE000
000000007FF800
00000000FFF000
00000001FFF000
00000003F8F000
00001FE7E0F000
00007FFF80F000
0001FFFF80F800
0003FFFF007800
0007F03F807C00
000FC00FC07E00
001F0003E03F00
003E0001E01FC0
003E0001F00FF0
003C0000F007F0
007C0000F803F0
00F800007F80F0
03F800007FF1F0
07F800007FFBE0
1FF800007FFFE0
1F80000000FFC0
3E000000003F80
7C000000000F80
78000000000780
F8000000000780
F00000000003C0
F00000000003C0
F00000000003C0
F007F0303003C0
F00FF0707803C0
F00FE0707803C0
F81FE070780780
781FC0F0F80F80
7C1FC0F0F00F80
3E3F80E0F03F00
1FBF80E0F0FE00
1FFF01E1F7FC00
07FF01E1E7F800
03FE01C1E7F000
00FE03C1E78000
00FFF3C3C00000
00FFE3C3C00000
01FFC383C00000
01FFC783C00000
000F8787800000
000F0787800000
000E0700000000
001E0F00000000
001C0F00000000
00180F00000000
00300E00000000
00201E00000000
00001E00000000
ENDCHAR
STARTCHAR uniF02E
ENCODING 61486
SWIDTH 738 0
DWIDTH 34 0
BBX 34 34 0 1
BITMAP
0007F00000
003FF00000
00FFF00000
01FFF00000
07FCF80000
0FE0F80000
0FC0780000
1F007C0000
3E007C0000
3E003E0000
7C003F0000
78001F8000
78000FC000
F80007F800
F00003FFC0
F00001FFC0
F000007FC0
F000001FC0
F0000003C0
F0000007C0
F0000007C0
7800000780
7800000F80
7C00000F80
3C00001F00
3E00003F00
1F00007E00
0F8000FC00
0FE003F800
07F80FF000
01FFFFE000
00FFFFC000
003FFF0000
0007F80000
ENDCHAR
STARTCHAR uniF02F
ENCODING 61487
SWIDTH 1244 0
DWIDTH 57 0
BBX 57 47 0 -9
BITMAP
00000000007F0000
0000000001FFC000
0000000007FFF000
0000003FCFFFF800
000001FFFFC1FC00
000007FFFF007E00
00000FFFFE003E00
00001FC0FE001F00
00003F003F000F00
00007E000F800F80
00007C0007800780
0000F80007C00780
0000F00003C00780
0000F00003E00780
0001F00001FE0780
0007E00001FF8780
001FE00001FFCF80
003FE00001FFEF00
007E003E0003FF00
00FC007F8000FE00
00F800FFC0007E00
01F000FFC0003C00
01E000E3E0003E00
00000001E0001E00
00000001E0001E00
00000001E0001E00
00000003E0001E00
7FFFFFFFC0001E00
FFFFFFFFC0001E00
FFFFFFFF80003E00
7FFFFFFE00003C00
0000000000007C00
000000000000F800
000000000003F800
7FFFE01FFFFFF000
7FFFF81FFFFFE000
7FFFFC1FFFFF8000
7FFFFC1FFFFE0000
00003E0000000000
00001E0000000000
00001E0000000000
00001E0000000000
000E3E0000000000
000FFC0000000000
000FFC0000000000
0007F80000000000
0003E00000000000
ENDCHAR
STARTCHAR uniF030
ENCODING 61488
SWIDTH 1309 0
DWIDTH 60 0
BBX 60 44 0 -7
BITMAP
00000000001FE000
00000000007FF800
0000000FE1FFFE00
0000007FFBFFFF00
000001FFFFF03F80
000003FFFFC00FC0
000007F01FC007C0
00000FC007E003E0
00001F8003F001E0
00001F0001F000F0
00003E0000F800F0
00003C00007800F0
00003C00007800F0
00007C00007FC0F0
0003F800003FF0F0
0007F800003FFDF0
000FF800003FFFE0
001F800000007FE0
003F000000001FC0
003E000000000FC0
007C000000000F80
00780000000007C0
00000000000003C0
00000000000003C0
00000000000003C0
00000000000003C0
01FFFFFF800003C0
03FFFFFF800003C0
03FFFFFF800007C0
01FFFFFF80000780
0000000000000F80
0000000000001F00
0000000000007F00
7FFFFFC7FFFFFE00
FFFFFFE7FFFFFC00
FFFFFFE7FFFFF000
7FFFFFC7FFFFC000
0000000000000000
0000000000000000
0000000000000000
001FFFFFF8000000
001FFFFFF8000000
001FFFFFFC000000
001FFFFFF8000000
ENDCHAR
STARTCHAR uniF031
ENCODING 61489
SWIDTH 1114 0
DWIDTH 51 0
BBX 51 38 0 0
BITMAP
000000001FC000
00000000FFF000
00000001FFFC00
00001FE3FFFE00
0000FFFFF07F00
0001FFFFC01F80
0007FFFF800F80
000FF03F8007C0
000FC00FC003C0
001F0007E003E0
003E0003E001E0
003C0001F001E0
007C0000F001E0
00780000F001E0
00F800007F81E0
03F800007FE1E0
0FF800007FFBE0
1FF800007FFFC0
3F80000000FFC0
3E000000003F80
7C000000001F80
78000000000F00
F8000000000F80
F0000000000780
F0000000000780
F0000000000780
F0000000000780
F0000000000780
F0000000000780
F8000000000F00
78000000000F00
7C000000001F00
3E000000003E00
1F80000000FC00
1FFFFFFFFFFC00
07FFFFFFFFF000
03FFFFFFFFE000
00FFFFFFFF8000
ENDCHAR
STARTCHAR uniF032
ENCODING 61490
SWIDTH 1120 0
DWIDTH 52 0
BBX 51 51 0 -13
BITMAP
000000001FC000
000000007FF800
00000000FFFC00
00001FF3FFFE00
00007FFFF03F00
0001FFFFE01F80
0003FFFFC00F80
0007F01FC007C0
000FC007E003C0
001F8003E003E0
001F0001F001E0
003E0000F001E0
003C00007801E0
007C00007801E0
007C00007F81E0
03F800003FE1E0
07F800003FFBE0
1FF800003FFFC0
1F80000000FFC0
3E000000003F80
7C000000001F80
78000000000F00
F8000000000F80
F0000000000780
F0000000000780
F0000000000780
F0003030300780
F0007878780780
F0007878780780
F8007870780F80
7800F8F0780F00
7C00F0F0F01F00
3E00F0F0F03E00
1F80F1E0F0FE00
0FF1E1E1F3FC00
07F1E1E1E3F800
03F1E3C1E3E000
0070C3C0C38000
000003C0000000
000003C0000000
00078783800000
00078787800000
00078787800000
00030703800000
00000700000000
00000000000000
00000000000000
00000C00000000
00001E00000000
00001E00000000
00001E00000000
ENDCHAR
STARTCHAR uniF033
ENCODING 61491
SWIDTH 1115 0
DWIDTH 51 0
BBX 51 47 0 -10
BITMAP
000000001FC000
00000000FFF000
00000001FFFC00
00001FE3FFFE00
0000FFFFF07F00
0001FFFFC01F80
0007FFFF800FC0
000FF03F8007C0
001F800FC003C0
001F0003E003E0
003E0001F001E0
003C0001F001E0
007C0000F001E0
00F80000FF81E0
03F800007FE3E0
0FF800007FFBE0
1FF800007FFFC0
1F80000000FFC0
3E000000003F80
7C000000001F00
78000000000F00
F8000000000F80
F00001FE000780
F00001FC000780
F00003FC000780
F00003F8000780
F00003F8000780
F00007F0000780
F80007F0000F80
780007E0000F00
7C000FE0001F00
3E000FC0003E00
1F801FC000FC00
1FF01FFE07FC00
07F01FFC07F000
03F03FF807E000
00F03FF8078000
000001F0000000
000001E0000000
000001C0000000
000003C0000000
00000380000000
00000300000000
00000700000000
00000600000000
00000400000000
00000800000000
ENDCHAR
STARTCHAR uniF034
ENCODING 61492
SWIDTH 1126 0
DWIDTH 52 0
BBX 52 52 0 -15
BITMAP
000000001FF000
000000007FFC00
00000F81FFFE00
00007FFBFFFF00
0001FFFFF01F80
0003FFFFC00FC0
0007F87F8007C0
000FE00FC003E0
001F8003E001E0
001F0001F001F0
003E0000F000F0
003C0000F800F0
007C00007800F0
007C00007F80F0
03F800007FE1F0
07F800007FF9E0
0FF800003FFDE0
1FE0000000FFE0
3F000000003FC0
7E000000001FC0
7C000000000F80
78000000000780
F80000000007C0
F00000000003C0
F00000000003C0
F00020000003C0
F00078007003C0
F00078007807C0
F800F800F80780
7800F000F00F80
7C00F000F00F80
3E006000601F00
1F800000007E00
1FF0C1C0C3FE00
07F1C1E1C3F800
03F1E1E1E3F000
00F1C3C1C3C000
000003C0000000
000001C0000000
00078003800000
00078007800000
00078707800000
00078787800000
00070707000000
00000200000000
00000000000000
00000C00000000
00001E00000000
00001E00000000
00001E00000000
00001E00000000
00000800000000
ENDCHAR
STARTCHAR uniF035
ENCODING 61493
SWIDTH 1134 0
DWIDTH 52 0
BBX 52 52 0 -14
BITMAP
000000000FE000
000000003FF800
00000000FFFE00
00000FF9FFFF00
00007FFFF83F80
0001FFFFE00FC0
0003FFFFC007C0
0007F01FE003E0
000FC007E001E0
001F8001F001F0
001F0000F800F0
003E0000F800F0
003C00007800F0
007C00007C00F0
007C00003FC0F0
03F800003FF0F0
07F800003FFDF0
1FF800003FFFE0
1F800000007FE0
3E000000001FC0
7C000000000FC0
78000000000780
F80000000007C0
F00000000003C0
F00000000003C0
F00000000003C0
F00000000003C0
F00000000003C0
F00000000003C0
F8000000000780
78000C01000780
7C001E03800F80
3F003E07C01F00
1FC07E0F807E00
0FF0FC1F87FE00
07E1F83F0FF800
03C3F07E1FF000
0003E0FC3FC000
0003C0F87E0000
000381F07C0000
000003E0F80000
000007C1F00000
00380FC0E00000
00781F80C00000
00781F00000000
00300E06000000
0000000F000000
0000000F000000
0000C00F000000
0001E000000000
0001E000000000
0001E000000000
ENDCHAR
STARTCHAR uniF036
ENCODING 61494
SWIDTH 1118 0
DWIDTH 51 0
BBX 51 51 0 -14
BITMAP
000000001FC000
00000000FFF000
00000001FFFC00
00001FE3FFFE00
0000FFFFF07F00
0001FFFFC01F80
0007FFFF8007C0
000FF03F8007C0
001F800FC003C0
001F0003E001E0
003E0001F001E0
003C0000F001E0
007C0000F001E0
00F800007F81E0
03F800007FE1E0
0FF800007FFBE0
1FF800007FFFC0
1F80000000FFC0
3E000000003F80
7C000000001F80
78000000000F00
F8000000000F80
F0000000000780
F0000000000780
F0000000000780
F0002030300780
F0007078780780
F000F878780780
F800F078780F80
7800F0F0F00F00
7C00F0F0F01F00
3E01F0F0F03E00
1F81E1F0F0FC00
1FF1E1E1E7FC00
07F1E1E1E7F000
03F3E1E1E7E000
0073C3E3E78000
0003C3C3C00000
0003C3C3C00000
0007C3C3C00000
000787C7C00000
00078787800000
00030783800000
00000780000000
00000F00000000
00000F00000000
00000F00000000
00000F00000000
00001E00000000
00001E00000000
00000400000000
ENDCHAR
STARTCHAR uniF037
ENCODING 61495
SWIDTH 1119 0
DWIDTH 52 0
BBX 51 51 0 -14
BITMAP
000000001FC000
00000000FFF000
00001FC1FFFC00
00007FFBFFFE00
0001FFFFE07F00
0003FFFF801F80
0007F03F8007C0
000FC00FC007C0
001F0003E003C0
003E0001E003E0
003E0001F001E0
003C0000F001E0
007C0000F801E0
00F800007F81E0
03F800007FE1E0
0FF800007FFBE0
1FF800007FFFC0
3F80000000FFC0
3E000000003F80
7C000000001F80
78000000000F00
F8000000000F80
F0000000000780
F0000000000780
F0000000000780
F0003000300780
F0007800780780
F0007800780780
7800F800780F00
7800F000F80F00
7C00F000F01F00
3E007000F03E00
1F80000000FC00
0FF001C007FC00
07F001E007F000
03F001E007E000
00F003E0078000
000383C3800000
0003C3C3C00000
0007C3C3C00000
00078007800000
00078007800000
00078007800000
00000000000000
00000400000000
00000F00000000
00000F00000000
00001F00000000
00001E00000000
00001E00000000
00000C00000000
ENDCHAR
STARTCHAR uniF038
ENCODING 61496
SWIDTH 1121 0
DWIDTH 52 0
BBX 51 51 0 -13
BITMAP
000000001FC000
000000007FF800
00000000FFFC00
00001FF3FFFE00
00007FFFF07F00
0001FFFFE01F80
0003FFFFC00F80
0007F01FC007C0
000FC007E003C0
001F0003E003E0
003E0001F001E0
003E0000F001E0
007C00007801E0
007800007801E0
00F800007F81E0
03F800003FE1E0
0FF800003FFBE0
1FF800003FFFC0
1F80000000FFC0
3E000000003F80
7C000000001F80
78000000000F00
F8000000000F80
F0000000000780
F0000000000780
F0000000000780
F0000000000780
F0000000000780
F0000000000780
F8000000000F80
780000C0000F00
7C0001E0001F00
3E0001E0003E00
3F8000C000FE00
1FF0C000C3FC00
0FF1E001E3F800
03F1E001E3E000
00F0C000C38000
000000C0000000
000001E0000000
000001E0000000
000000C0000000
00004000C00000
0000E001E00000
0001E001E00000
0001E001E00000
0000C000C00000
000000C0000000
000001E0000000
000001E0000000
000000C0000000
ENDCHAR
STARTCHAR uniF039
ENCODING 61497
SWIDTH 1121 0
DWIDTH 52 0
BBX 51 43 0 -5
BITMAP
000000001FC000
00000000FFF000
00000001FFFC00
00001FE3FFFE00
0000FFFFF07F00
0001FFFFC01F80
0007FFFF800F80
000FF03F8007C0
000FC00FC003C0
001F0007E003E0
003E0003E001E0
003C0001F001E0
007C0000F001E0
00780000F001E0
00F80000FF81E0
03F800007FE1E0
07F800007FFBE0
1FF800007FFFC0
1F80003000FFC0
3E000070003F80
7C0000F8001F80
780000F8000F00
F80040F8000F80
F000E070000780
F000E000000780
F001F000000780
F003F800000780
F003F800000780
F003F800000780
F803F820000F80
7801F070000F00
7C0040F8001F00
3E0001FC003E00
1F8003FC00FC00
1FF003FE07FC00
07F007FE07F000
03F007FF07E000
00F007FF078000
000007FF000000
000007FF000000
000003FE000000
000003FE000000
000001F8000000
ENDCHAR
STARTCHAR uniF03A
ENCODING 61498
SWIDTH 1120 0
DWIDTH 52 0
BBX 51 51 0 -14
BITMAP
000000001FC000
000000007FF000
00001FE1FFFC00
00007FFBFFFE00
0001FFFFE07F00
0003FFFFC01F80
0007F03FC007C0
000FC007C007C0
001F8003E003C0
001F0001F001E0
003E0000F001E0
003C0000F001E0
007C00007801E0
00F800007F81E0
03F800007FE1E0
07F800007FFBE0
1FF800007FFFC0
1F80000000FFC0
3E000000003F80
7C000000001F80
78000000000F00
F8000000000F80
F0000000000780
F0000000000780
F0000000000780
F007F800300780
F00FF000380780
F00FF000780780
F80FE000780F80
781FE000780F00
7C1FC000781F00
3E1FC000303E00
1FBF800000FE00
0FFF80E003FC00
07FF01F003F800
03FF01E003E000
007E01E0038000
00FFF1E1C00000
00FFF0C3C00000
01FFE003C00000
01FFC003C00000
000F8003C00000
000F8003800000
000F0000000000
001E0600000000
001C0F00000000
001C0F00000000
00180F00000000
00300F00000000
00200F00000000
00200400000000
ENDCHAR
STARTCHAR uniF03B
ENCODING 61499
SWIDTH 1117 0
DWIDTH 51 0
BBX 51 51 0 -14
BITMAP
000000001FC000
000000007FF800
00001FE1FFFC00
00007FFBFFFE00
0001FFFFF03F00
0003FFFFC01F80
0007F03FC007C0
000FC00FC003C0
001F0003E003C0
003E0001F001E0
003E0000F001E0
003C0000F001E0
007C00007801E0
00F800007F81E0
03F800007FE1E0
0FF800007FFBE0
1FF800003FFFC0
1F80000000FFC0
3E000000003F80
7C000000001F80
78000000000F00
F8000000000F80
F0000000000780
F0000000000780
F0000000000780
F007F830300780
F00FF078780780
F00FF078780780
F81FE0F8F80F00
781FE0F0F00F00
7C1FC0F0F01F00
3E3FC0F0F03E00
1FBF81F1E0FE00
1FFF01E1E3FC00
07FF01E1E3F800
03FE03E1E3E000
00FE03C3C38000
00FFF3C3C00000
00FFE3C3C00000
01FFE7C7C00000
01FFC787800000
000F8787800000
000F8787800000
000F0F80000000
001E0F00000000
001C0F00000000
001C1F00000000
00181E00000000
00301E00000000
00301E00000000
00200C00000000
ENDCHAR
STARTCHAR uniF03C
ENCODING 61500
SWIDTH 546 0
DWIDTH 25 0
BBX 24 22 0 8
BITMAP
3E01F8
7F07FE
E38F8F
C18E03
C19C03
E39C00
7F1C00
3E1C00
001C00
001C00
001C00
001C00
001C00
001C00
001C00
001C00
001C03
001E03
000F07
000FFE
0007FE
0001F8
ENDCHAR
STARTCHAR uniF03D
ENCODING 61501
SWIDTH 1082 0
DWIDTH 50 0
BBX 50 35 0 0
BITMAP
00001FE0000000
00007FFC000000
0001FFFE000000
0003FFFF800000
0007F03FC00000
000FC007E00000
001F8003E00000
003F0001F00000
003E0000F00000
003C0000F80000
007C0000780000
00F800007F8000
03F800007FF000
0FF800003FF800
1FF800003FFE00
1F800000007E00
3E0000C0001F00
7C0001E0000F80
780001E0000780
F80001E00007C0
F00001E00003C0
F00001E00003C0
F00001E00003C0
F00001E00003C0
F00001E00003C0
F00079E38003C0
F8007DEF800780
78007FFF800780
7C003FFF000F80
3E001FFE001F00
1F800FFC007E00
0FF007F803FE00
07F003F003F800
03F001E003F000
007000C003C000
ENDCHAR
STARTCHAR uniF03E
ENCODING 61502
SWIDTH 1080 0
DWIDTH 50 0
BBX 50 36 0 -1
BITMAP
00001FE0000000
00007FFC000000
0001FFFE000000
0003FFFF800000
0007F01FC00000
000FC007E00000
001F8003E00000
001F0001F00000
003E0000F00000
003C0000F80000
007C0000780000
00F800007F8000
03F803C07FF000
07F803E03FF800
1FF803F03FFC00
1F8001F8007E00
3E0003FC001F00
7C000FFE000F80
78003FFE000780
F8007FFC000780
F0007FF80003C0
F000FBF00003C0
F000F3E00003C0
F001F3C00003C0
F001E180C003C0
F001E001E003C0
F801E001E007C0
7801E001E00780
7C01F003E00F80
3E00F003C01F00
1F80F807C07E00
1FF07E1F83FC00
07F07FFF83F800
03F03FFF03F000
00700FFC03C000
000003F0000000
ENDCHAR
STARTCHAR uniF040
ENCODING 61504
SWIDTH 1079 0
DWIDTH 50 0
BBX 50 35 0 0
BITMAP
00001FE0000000
00007FFC000000
0001FFFE000000
0003FFFF800000
0007F01FC00000
000FC007E00000
001F8003E00000
003F0001F00000
003E0000F00000
003C0000F80000
007C0000780000
00F800007F8000
03F800007FF000
0FF800003FF800
1FF800003FFE00
1F800000007E00
3E0000C0001F00
7C0001E0000F80
780003F0000780
F80007F8000780
F0000FFC0003C0
F0001FFE0003C0
F0003FFF0003C0
F0007FFF8003C0
F0007DEF8003C0
F00079E78003C0
F80021E3000780
780001E0000780
7C0001E0000F80
3E0001E0001F00
1F8001E0007E00
0FF001E003FE00
07F001E003F800
03F001E003F000
007000C003C000
ENDCHAR
STARTCHAR uniF041
ENCODING 61505
SWIDTH 1082 0
DWIDTH 50 0
BBX 50 35 0 0
BITMAP
00001FE0000000
00007FFC000000
0001FFFE000000
0003FFFF800000
0007F03FC00000
000FC007E00000
001F8003E00000
003F0001F00000
003E0000F00000
003C0000F80000
007C0000780000
00F800007FC000
03F800007FF000
07F800003FF800
1FF800003FFE00
1F800000007E00
3E000000001F00
7C000000000F80
78000000000780
F80000000007C0
F00000000003C0
F00000000003C0
F00000000003C0
F00000000003C0
F00000000003C0
F00000000003C0
F8000000000780
78000000000780
7C000000000F80
3E000000001F00
1F800000007E00
0FFFFFFFFFFC00
07FFFFFFFFF800
03FFFFFFFFF000
007FFFFFFFC000
ENDCHAR
STARTCHAR uniF042
ENCODING 61506
SWIDTH 188 0
DWIDTH 9 0
BBX 9 9 0 26
BITMAP
3E00
7F00
E380
C180
C180
C180
E380
7F00
3E00
ENDCHAR
STARTCHAR uniF043
ENCODING 61507
SWIDTH 330 0
DWIDTH 15 0
BBX 15 15 0 11
BITMAP
000E
001E
003E
007C
00F8
C1F0
E3E0
E7C0
EF80
FF00
FE00
FC00
FF80
FFC0
FF80
ENDCHAR
STARTCHAR uniF044
ENCODING 61508
SWIDTH 336 0
DWIDTH 15 0
BBX 16 24 0 5
BITMAP
03C0
03C0
03C0
03C0
03C0
03C0
03C0
03C0
03C0
03C0
03C0
03C0
03C0
03C0
63C6
F3CF
FBDF
7FFE
3FFC
1FF8
0FF0
07E0
03C0
0180
ENDCHAR
STARTCHAR uniF045
ENCODING 61509
SWIDTH 555 0
DWIDTH 26 0
BBX 26 21 0 9
BITMAP
3E07FFC0
7F07FFC0
E387FFC0
C1870000
C1870000
E3870000
7F070000
3E070000
0007FF00
0007FF00
0007FF00
00070000
00070000
00070000
00070000
00070000
00070000
00070000
00070000
00070000
00070000
ENDCHAR
STARTCHAR uniF046
ENCODING 61510
SWIDTH 1134 0
DWIDTH 52 0
BBX 52 40 0 0
BITMAP
00000060000000
000000F0000000
000000F0000000
000000F0000000
000000F0000000
000000F0000000
000000F0000000
01C000F0003800
03E00060007C00
03F0000000FC00
01F8000001F800
00FC000003F000
007C000003E000
003C03F803C000
00000FFF000000
00003FFFC00000
00007FFFE00000
0000FE07F00000
0001F801F80000
0001F000F80000
0003E0007C0000
0003C0003C0000
0007C0003E0000
000780001E0000
7F0780001E0FE0
FF8780001E1FF0
FF8780001E1FF0
7F0780001E0FE0
000780001E0000
0007C0003C0000
0003C0003C0000
0003E0007C0000
00000000000000
00000000000000
00000000000000
00000000000000
1FFFFFFFFFFF80
3FFFFFFFFFFFC0
3FFFFFFFFFFFC0
1FFFFFFFFFFF80
ENDCHAR
STARTCHAR uniF047
ENCODING 61511
SWIDTH 1048 0
DWIDTH 48 0
BBX 48 31 0 0
BITMAP
000001800000
000003C00000
000003C00000
000003C00000
000003C00000
000003C00000
000003C00000
070003C00060
0780018000F0
07C0000001F0
07E0000003F0
03F0000007E0
01F000000FC0
00F000000F80
00700FF00F00
00003FFC0000
0000FFFF0000
0001FFFF8000
0003F81FC000
0007E007E000
0007C003F000
000F8001F000
000F0000F800
000000000000
000000000000
000000000000
000000000000
7FFFFFFFFFFF
FFFFFFFFFFFF
FFFFFFFFFFFF
7FFFFFFFFFFE
ENDCHAR
STARTCHAR uniF048
ENCODING 61512
SWIDTH 527 0
DWIDTH 24 0
BBX 24 15 0 9
BITMAP
038000
07C000
0F8000
1F8000
3F0000
7E0000
FFFFFF
FFFFFF
FFFFFF
7E0000
3F0000
1F8000
0F8000
07C000
038000
ENDCHAR
STARTCHAR uniF049
ENCODING 61513
SWIDTH 546 0
DWIDTH 25 0
BBX 25 29 0 4
BITMAP
0F807C00
3FC0FF00
7FE1FF80
7FF3FF80
7FF3FF80
7FF3FF80
9F92FC80
47223880
42221100
22411100
1FC0FE00
0F807C00
07003800
00000000
00000000
00000000
007E0000
00FF8000
01FF8000
01FFC000
01FFC000
017F4000
011C4000
01088000
00888000
006B0000
007E0000
003E0000
001C0000
ENDCHAR
STARTCHAR uniF04A
ENCODING 61514
SWIDTH 1285 0
DWIDTH 59 0
BBX 59 47 0 -7
BITMAP
00000000003F8000
0000000001FFC000
0000000003FFC000
0000000007FFC000
000000000FE3C000
0000007F9F83C000
000001FFFE03C000
000007FFFC03C000
00000FFFFC03E000
00001FC0FE01E000
00003F003F01F000
00007C000F80F800
0000F8000780FE00
0000F80007C07FC0
0000F00003C03FC0
0001F00003E00F80
0003E00001FE0780
000FE00001FF8F80
001FE00001FFFF00
007FE00001FFFF00
007E00000003FE00
00F800000000FC00
01F0000000007C00
01E0000000003C00
01E0000000001E00
0000000000000000
0000000000000000
0000000000000000
01FFFFFFFFFFFC00
03FFFFFFFFFFFE00
03FFFFFFFFFFFE00
01FFFFFFFFFFFC00
0000000000000000
0000000000000000
0000000000000000
0000000000000000
7FFFFFFFFFFF0000
FFFFFFFFFFFF8000
FFFFFFFFFFFF8000
7FFFFFFFFFFF0000
0000000000000000
0000000000000000
0000000000000000
001FFFFFFFFFFFC0
003FFFFFFFFFFFE0
003FFFFFFFFFFFE0
001FFFFFFFFFFFC0
ENDCHAR
STARTCHAR uniF04B
ENCODING 61515
SWIDTH 334 0
DWIDTH 15 0
BBX 15 24 0 6
BITMAP
0060
00F0
00F8
007C
03FE
0FFE
1FFE
3E7C
7CF8
78F0
7060
E000
E000
E000
E000
E000
E000
7000
7800
7C00
3E00
1FE0
0FF0
01E0
ENDCHAR
STARTCHAR uniF04C
ENCODING 61516
SWIDTH 544 0
DWIDTH 25 0
BBX 25 29 0 3
BITMAP
00700000
00780000
007C0000
003E0000
007F0000
03FF8000
07FF8000
0FFF8000
1FFF0000
3E7E0000
3C7C0000
7C780000
78300000
F8000000
F0000000
F0000780
F0000780
F0000780
F0000780
F8000F80
78000F00
7C001F00
7C001F00
3F007E00
1FC1FC00
0FFFF800
07FFF000
03FFE000
007F0000
ENDCHAR
STARTCHAR uniF04D
ENCODING 61517
SWIDTH 527 0
DWIDTH 24 0
BBX 24 16 0 10
BITMAP
000180
0001E0
0001F0
0001F8
0000FC
00007E
7FFFFF
FFFFFF
FFFFFF
7FFFFF
00007E
0000FC
0001F8
0001F0
0001E0
000180
ENDCHAR
STARTCHAR uniF04E
ENCODING 61518
SWIDTH 415 0
DWIDTH 19 0
BBX 19 27 0 7
BITMAP
000400
000E00
000E00
001F00
001F00
101F00
380E00
3C0000
7C0000
FE0000
FE0000
FE0000
FE0C00
7C1E00
103F00
003F80
007F80
00FFC0
00FFC0
01FFE0
01FFE0
01FFE0
01FFE0
00FFC0
00FFC0
007F80
000C00
ENDCHAR
STARTCHAR uniF050
ENCODING 61520
SWIDTH 1239 0
DWIDTH 57 0
BBX 57 31 0 0
BITMAP
000000000000F800
000000000003FC00
000000000007FE00
000000000007FF00
0000000000078F80
0000000000030780
0000000000000780
0000000000000780
0000000000000780
0000000000000F80
7FFFFFFFFFFFFF00
FFFFFFFFFFFFFE00
FFFFFFFFFFFFFE00
7FFFFFFFFFFFF800
0000000000000000
0000000000000000
0000000000000000
7FFFFFFFFF000000
FFFFFFFFFFC00000
FFFFFFFFFFE00000
7FFFFFFFFFE00000
0000000001F00000
0000000000F00000
0000000000F00000
0000000000F00000
0000000020F00000
00000000F1F00000
00000000FFE00000
00000000FFE00000
000000007FC00000
000000001F000000
ENDCHAR
STARTCHAR uniF051
ENCODING 61521
SWIDTH 1275 0
DWIDTH 59 0
BBX 58 45 0 0
BITMAP
0000000E00000000
0000001F00000000
0000001F00000000
0000001F00000000
0000001F00000000
0000001F00000000
0000001F00000000
0000001F00000000
00F0001F0003C000
00F8000E0003C000
00FC00000007C000
00FE0000000FC000
007F0000001F8000
003F8000003F0000
001F8000003E0000
000F003F801C0000
000601FFF0080000
000007FFFC000000
00000FFFFE000000
00001FFFFF000000
00003FC07F800000
00007F001FC00000
00007E000FC00000
0000FC0007E00000
0000F80003E00000
0000F80003E00000
0001F00001F00000
7F81F00001F07F80
FFC1F00001F0FFC0
FFC1F00001F0FFC0
FFC1F00001F0FFC0
7F81F00001F07F80
0001F80003F00000
0000F80403E00000
0000F80E03E00000
00007C1F07C00000
0000003F80000000
000000FFC0000000
000001FFF0000000
000003FBF8000000
0003FFF1FFF80000
0007FFE0FFFC0000
0007FFC07FFC0000
0007FF803FFC0000
0003FF001FF80000
ENDCHAR
STARTCHAR uniF052
ENCODING 61522
SWIDTH 1262 0
DWIDTH 58 0
BBX 58 51 0 -7
BITMAP
0000000E00000000
0000001F00000000
0000001F00000000
0000001F00000000
0000001F00000000
0000001F00000000
0000001F00000000
0000001F00000000
00F0001F0003C000
00F8000E0007C000
00FC0000000FC000
00FE0000001F8000
003F0000003F0000
001F8000003F0000
000F003F803E0000
000601FFF0180000
000007FFFC000000
00000FFFFE000000
00001FFFFF000000
00003FC07F800000
00007F001FC00000
00007E000FC00000
0000FC0007E00000
0000F80003E00000
0000F80003E00000
0001F00001F00000
7F81F00001F07F80
FFC1F00001F0FFC0
FFC1F00001F0FFC0
FFC1F00001F0FFC0
7F81F00001F07F80
0001F00001F00000
0000F80003E00000
0000F80003E00000
0000FC0007E00000
0000000000000000
0000000000000000
0000000000000000
0000000000000000
0003FF001FF80000
0007FF807FFC0000
0007FFC0FFFC0000
0007FFF1FFFC0000
0003FFFBFFF80000
000003FFF8000000
000001FFF0000000
000000FFE0000000
0000007F80000000
0000001F00000000
0000000E00000000
0000000400000000
ENDCHAR
STARTCHAR uniF053
ENCODING 61523
SWIDTH 529 0
DWIDTH 24 0
BBX 24 53 0 -7
BITMAP
007E00
00FF00
01FF80
03FFC0
07C3E0
0781E0
0781E0
0781E0
0781E0
0781E0
0781E0
0781E0
0781E0
0781E0
0781E0
0781E0
0781E0
0781E0
0781E0
0781E0
0781E0
0781E0
0781E0
0781E0
0781E0
0781E0
0781E0
0781E0
0781E0
0781E0
0781E0
0F81F0
1F81F8
3F00FC
3E007C
7C003E
78001E
F8001F
F0000F
F0000F
F0000F
F0000F
F0000F
F0000F
78001E
78001E
7C003E
3E007C
1F81F8
0FFFF0
07FFE0
03FFC0
00FF00
ENDCHAR
STARTCHAR uniF054
ENCODING 61524
SWIDTH 262 0
DWIDTH 12 0
BBX 12 31 0 -1
BITMAP
0400
0400
0400
0400
0400
0400
0400
0400
0400
0400
0400
0400
0400
0400
0400
0400
0400
0400
0400
3F80
7FC0
7FE0
FFF0
FFF0
FFF0
FFF0
FFF0
7FE0
7FC0
3F80
0400
ENDCHAR
STARTCHAR uniF055
ENCODING 61525
SWIDTH 529 0
DWIDTH 24 0
BBX 24 53 0 -7
BITMAP
007C00
01FF00
03FF80
03FFC0
07C3E0
0781E0
0781E0
0781E0
0781E0
0781E0
0781E0
0781E0
0781E0
0781E0
0781E0
0781E0
0791E0
0791E0
0791E0
0791E0
0791E0
0791E0
0791E0
0791E0
0791E0
0791E0
0791E0
0791E0
0791E0
0791E0
0791E0
0F91F0
1F91F8
3F10FC
3E107C
7C7C3E
78FF1E
F9FF9F
F3FFCF
F3FFCF
F3FFCF
F3FFCF
F3FFCF
F3FF8F
F9FF9E
78FF3E
7C7C3E
3E00FC
1F83F8
1FFFF0
0FFFE0
03FFC0
00FE00
ENDCHAR
STARTCHAR uniF056
ENCODING 61526
SWIDTH 724 0
DWIDTH 33 0
BBX 33 35 0 0
BITMAP
000FFF0000
00FFFFF000
03FFFFFC00
0FF000FE00
0F80001F00
1E00000780
1C00000380
1E00000780
0F80001F00
3FF000FE00
3FFFFFFC00
78FFFFF000
700FFF7000
780000F000
3C0001E000
3F800FE000
3FFFFF8000
7FFFFE0000
F07FF80000
F000380000
FE00F80000
7FFFF00000
1FFFE00000
03FF000000
7802000000
780F000000
7FFF000000
3FFE000000
0FF8000000
0000000000
0C04000000
1E0E000000
1FFE000000
0FFC000000
03F8000000
ENDCHAR
STARTCHAR uniF057
ENCODING 61527
SWIDTH 330 0
DWIDTH 15 0
BBX 15 15 0 11
BITMAP
03FE
07FE
03FE
007E
00FE
01FE
03EE
07CE
0F8E
1F0E
3E00
7C00
F800
F000
E000
ENDCHAR
STARTCHAR uniF058
ENCODING 61528
SWIDTH 337 0
DWIDTH 16 0
BBX 15 24 0 6
BITMAP
03C0
07E0
0FF0
1FF8
3FF8
7FFC
FBFE
F3DE
E3CE
03C0
03C0
03C0
03C0
03C0
03C0
03C0
03C0
03C0
03C0
03C0
03C0
03C0
03C0
0180
ENDCHAR
STARTCHAR uniF059
ENCODING 61529
SWIDTH 748 0
DWIDTH 34 0
BBX 35 35 0 0
BITMAP
0007FC0000
003FFF8000
00FFFFC000
01FFFFF000
03FC07F800
07E000FC00
0FC0007E00
1F00003F00
3E00001F00
3E00000F80
7C000007C0
78000003C0
781C0003C0
F80F0003E0
F00FE001E0
F007F801E0
F007FE01E0
F007FF81E0
F007FE01E0
F007F801E0
F00FE001E0
F80F0003E0
780C0003C0
78100003C0
7C000007C0
3E00000F80
3E00000F00
1F00001F00
0FC0007E00
07E000FC00
03FC07F800
01FFFFF000
00FFFFC000
003FFF8000
0007FC0000
ENDCHAR
STARTCHAR uniF05A
ENCODING 61530
SWIDTH 748 0
DWIDTH 34 0
BBX 35 35 0 0
BITMAP
0007FC0000
003FFF8000
00FFFFC000
01FFFFF000
03FC07F800
07E000FC00
0FC0007E00
1F00003F00
3E00001F00
3E00000F80
7C000007C0
78000003C0
78000303C0
F8000F03E0
F0007E01E0
F001FE01E0
F007FE01E0
F03FFC01E0
F01FFC01E0
F007F801E0
F000F801E0
F800F803E0
78007003C0
78007003C0
7C006007C0
3E00200F80
3E00000F00
1F00001F00
0FC0007E00
07E000FC00
03FC07F800
01FFFFF000
00FFFFC000
003FFF8000
0007FC0000
ENDCHAR
STARTCHAR uniF05B
ENCODING 61531
SWIDTH 748 0
DWIDTH 34 0
BBX 35 35 0 0
BITMAP
0007FC0000
003FFF8000
00FFFFC000
01FFFFF000
03FC07F800
07E000FC00
0FC0007E00
1F00003F00
3E00001F00
3E00000F80
7C000007C0
78000003C0
780C0003C0
F80F0003E0
F007E001E0
F007F801E0
F003FE01E0
F003FFC1E0
F003FF81E0
F001FE01E0
F001F801E0
F800F003E0
7800F003C0
7800E003C0
7C006007C0
3E00400F80
3E00000F00
1F00001F00
0FC0007E00
07E000FC00
03FC07F800
01FFFFF000
00FFFFC000
003FFF8000
0007FC0000
ENDCHAR
STARTCHAR uniF05C
ENCODING 61532
SWIDTH 750 0
DWIDTH 35 0
BBX 35 35 0 0
BITMAP
0007FC0000
003FFF8000
00FFFFC000
01FFFFF000
03FC07F800
07E000FC00
0FC0007E00
1F00001F00
3E00000F00
3E00000F80
7C004007C0
78004003C0
7800E003C0
F800E003E0
F001F001E0
F001F001E0
F003F801E0
F003F801E0
F003F801E0
F007FC01E0
F007FC01E0
F80FFE03E0
780E0E03C0
78000203C0
7C000007C0
3E00000F80
3F00000F00
1F00001F00
0FC0007E00
07E000FC00
03FC07F800
01FFFFF000
00FFFFC000
003FFF8000
0007FC0000
ENDCHAR
STARTCHAR uniF05D
ENCODING 61533
SWIDTH 750 0
DWIDTH 35 0
BBX 35 35 0 0
BITMAP
0007FC0000
003FFF8000
00FFFFC000
01FFFFF000
03FC07F800
07E000FC00
0FC0007E00
1F00003F00
3E00001F00
3E00400F80
7C00C007C0
7800C003C0
7801E003C0
F801E003E0
F003F001E0
F00FF001E0
F03FF001E0
F07FF801E0
F01FF801E0
F007FC01E0
F000FC01E0
F8003C03E0
78000603C0
78000003C0
7C000007C0
3E00000F80
3E00000F00
1F00001F00
0FC0007E00
07E000FC00
03FC07F800
01FFFFF000
00FFFFC000
003FFF8000
0007FC0000
ENDCHAR
STARTCHAR uniF05E
ENCODING 61534
SWIDTH 748 0
DWIDTH 34 0
BBX 35 35 0 0
BITMAP
0007FC0000
003FFF8000
00FFFFC000
01FFFFF000
03FC07F800
07E000FC00
0FC0007E00
1F00003F00
3E00001F00
3E00400F80
7C006007C0
78006003C0
7800F003C0
F800F003E0
F001F801E0
F001FE01E0
F001FF81E0
F003FFC1E0
F003FF01E0
F007FC01E0
F007E001E0
F8078003E0
780C0003C0
78000003C0
7C000007C0
3E00000F80
3E00000F00
1F00001F00
0FC0007E00
07E000FC00
03FC07F800
01FFFFF000
00FFFFC000
003FFF8000
0007FC0000
ENDCHAR
STARTCHAR uniF060
ENCODING 61536
SWIDTH 750 0
DWIDTH 35 0
BBX 35 35 0 0
BITMAP
0007FC0000
003FFF0000
007FFFC000
01FFFFF000
03FC07F800
07E000FC00
0FC0007E00
1F00001F00
3E00000F00
3E00000F80
7C00000780
78080203C0
780E0E03C0
F80FFE03E0
F007FC01E0
F007FC01E0
F003F801E0
F003F801E0
F003F801E0
F001F001E0
F001F001E0
F800E003E0
7800E003C0
78004003C0
7C004007C0
3E00000F80
1E00000F00
1F00001F00
0FC0007E00
07E000FC00
03FC07F800
01FFFFF000
007FFFC000
003FFF8000
0007FC0000
ENDCHAR
STARTCHAR uniF061
ENCODING 61537
SWIDTH 752 0
DWIDTH 35 0
BBX 35 35 0 0
BITMAP
0007FC0000
003FFF0000
007FFFC000
01FFFFF000
03FC07F800
07E000FC00
0FC0007E00
1F00001F00
3E00000F00
3E00000F80
7C00000780
78000103C0
78000603C0
F8001E03E0
F000FE01E0
F003FC01E0
F00FFC01E0
F03FFC01E0
F00FFC01E0
F003FC01E0
F000FE01E0
F8001E03E0
78000603C0
78000103C0
7C000007C0
3E00000F80
3F00000F00
1F80001F00
0FC0007E00
07E000FC00
03FC07F800
01FFFFF000
00FFFFC000
003FFF8000
0007FC0000
ENDCHAR
STARTCHAR uniF062
ENCODING 61538
SWIDTH 886 0
DWIDTH 41 0
BBX 41 45 0 -4
BITMAP
0001FC000000
0007FF000000
001FFFC00000
003F07E00000
007C01F00000
007800F80000
00F000780000
00E0003C0000
01E0003C0000
03E0001FC000
0FC0001FF000
1E00001FFC00
3C0000107E00
780000001E00
700000000F00
E00000000780
E00000000380
E00000000380
E00000000380
E00000000380
E00000000380
F00000000380
780000000700
7C0000000F00
3E0800000E00
1FF800001C00
0FFC00001C00
03FC00003C00
000E00403C00
000700E0F800
0007C1FFF000
0003FFFFE000
0003FFFF8000
0003FFFF0000
0003FFFF0000
0003FFFE0000
0003FFFC0000
0001FFF00000
0000FFC00000
00001FE00000
00001FE00000
00001FE00000
00001FE00000
00000FC00000
000007800000
ENDCHAR
STARTCHAR uniF063
ENCODING 61539
SWIDTH 798 0
DWIDTH 37 0
BBX 37 26 0 3
BITMAP
7FE3FFFC30
FFE7FFFE78
FFE7FFFE78
7FE3FFFC30
0000000000
0000000000
0000000000
018FFE1FC0
03CFFF3FE0
03CFFF3FE0
018FFF1FC0
0000000000
0000000000
0000000000
FFFF8C3FF0
FFFFDE7FF8
FFFF9E7FF8
FFFF8E3FF0
0000000000
0000000000
0000000000
0000000000
0C7FF0FE00
1E7FF9FF00
1E7FF9FF00
0C7FF8FE00
ENDCHAR
STARTCHAR uniF064
ENCODING 61540
SWIDTH 1079 0
DWIDTH 50 0
BBX 50 48 0 -13
BITMAP
00001FE0000000
00007FFC000000
0001FFFE000000
0003FFFF800000
0007F03FC00000
000FC007E00000
001F0003E00000
003E0001F00000
003E0000F80000
007C0000780000
00780000780000
00F800007FC000
03F800003FF000
0FF800003FF800
1FF800003FFC00
1F800000007E00
3E000000001F00
7C000000000F80
78000000000780
F8000000000780
F00000000003C0
F00000000003C0
F00000000003C0
F00000000003C0
F00000000003C0
F00000000003C0
F80000000007C0
780000C0000780
7C0001E0000F80
3E0001E0001F00
3F8000C0007F00
1FE0C000C1FE00
0FE1E001E1FC00
03E1E001E1F000
00E0C000C1C000
00000180000000
000003C0000000
000003C0000000
00000180000000
00000000000000
00030003000000
00078007800000
00078007800000
00030003000000
00000600000000
00000F00000000
00000F00000000
00000600000000
ENDCHAR
STARTCHAR uniF065
ENCODING 61541
SWIDTH 1398 0
DWIDTH 64 0
BBX 64 63 0 -13
BITMAP
0000000007000000
0000000007800000
0000000007800000
0000000007800000
0000000007800000
0000000007800000
0000000007800000
0000070007800380
00000F8003000780
00000FC000000F80
000007C000001F80
0000038000003F00
0000000000003E00
000000001FE03C00
000000007FF80000
00000001FFFC0000
00003FF3FFFF0000
0000FFFFF03F0000
0003FFFFC00F8000
0007FFFF8007C000
000FE01FC003C000
001F8007E003E000
001F0003E001E000
003E0001F001E07E
003C0000F001E0FF
007C0000F801E1FF
007800007E01E0FF
01F800007FE1E07C
07F800007FF1E000
0FF800007FFFE000
1FE0000001FFC000
3F000000003FC000
7E000000001F8000
7C000000000F8000
7800000000078000
F800000000078000
F000000000078000
F00000000007C000
F00000000007C000
F000000000078F00
F000000000078F80
F800000000078F80
780001C0000F8780
7C0001E0001F0380
3E0001E0003F0000
1F8000C000FE0000
1FF0E001C3FC0000
07F1E001C3F80000
03F1E001C3F00000
00F0C001C3800000
0000000000000000
000003C000000000
000003C000000000
000003C000000000
0000010000000000
0007800700000000
0007800700000000
0007800700000000
0000000200000000
0000060000000000
00000F0000000000
00000F0000000000
00000E0000000000
ENDCHAR
STARTCHAR uniF066
ENCODING 61542
SWIDTH 1121 0
DWIDTH 52 0
BBX 51 51 0 -13
BITMAP
000000000FC000
000000007FF800
00000000FFFC00
00001FF1FFFE00
00007FFFF83F00
0001FFFFE01F80
0003FFFFC00F80
0007F01FC007C0
000FC007E003C0
001F8003F003E0
003E0001F001E0
003E0000F801E0
003C00007801E0
007C00007801E0
00F800003F81E0
03F800003FE1E0
0FF800003FFBE0
1FF800003FFFC0
1F80000000FFC0
3E000000003F80
7C000000001F80
78000000000F00
F8000000000F80
F0000000000780
F0000000000780
F0000000000780
F0000000000780
F0000000000780
F0000000000780
F8000000000F80
780000C0000F00
7C0001E0001F00
3E0001E0003E00
1F8000C0007E00
1FF0C000C3FC00
07F1E001E3F800
03F1E001E3F000
00F0C000C38000
00000180000000
000003C0000000
000003C0000000
00000180000000
00000000000000
00030003000000
00078007800000
00078007800000
00030003000000
00000600000000
00000F00000000
00000F00000000
00000600000000
ENDCHAR
STARTCHAR uniF067
ENCODING 61543
SWIDTH 1138 0
DWIDTH 52 0
BBX 52 52 0 -13
BITMAP
000000000FE000
000000007FF800
00000000FFF000
00000001FFF000
00001FE3F8F000
00007FFFC0F000
0001FFFF80F000
0003FFFF80F800
0007F03FC07800
000FC007E07C00
001F0003E03F00
003E0001F03F80
003E0000F01FF0
007C00007807F0
007800007803F0
00F800007F81F0
03F800003FF1F0
0FF800003FFBE0
1FF800003FFFE0
1F800000007FC0
3E000000003F80
7C000000000F80
78000000000F80
F8000000000780
F00000000003C0
F00000000003C0
F00000000003C0
F00000000003C0
F00000000003C0
F00000000003C0
F80000000007C0
780001C0000780
7C0001E0000F80
3E0001E0001F00
3F8001C0007E00
1FF1800183FE00
0FF3C003C3F800
03F3C003C3F000
00F1800183C000
00000300000000
00000780000000
00000780000000
00000300000000
00000000000000
00030003000000
00078007800000
00078007800000
00030003000000
00000C00000000
00001E00000000
00001E00000000
00000E00000000
ENDCHAR
STARTCHAR uniF068
ENCODING 61544
SWIDTH 1407 0
DWIDTH 65 0
BBX 65 65 0 -15
BITMAP
000000000780000000
000000000780000000
000000000780000000
000000000780000000
000000000780000000
000000000780000000
000000000780000000
000007000780038000
00000F80030007C000
00000FC000000FC000
000007C000001F8000
0000038000003F0000
0000000000003E0000
000000001FE01C0000
000000007FF8000000
00000781FFFE000000
00007FFBFFFF000000
0001FFFFF03F800000
0003FFFFC00FC00000
0007F87F8007C00000
000FC00FC003E00000
001F8003E001E00000
001F0001F001E00000
003E0000F001E07E00
003C0000F801F0FF80
007C00007801F0FF80
007800007F01F0FF00
03F800007FE1E00000
07F800007FF9E00000
0FF800003FFFE00000
1FC0000000FFE00000
3F000000003FC00000
7C000000001F800000
7C000000000F800000
780000000007800000
F80000000007C00000
F00000000003C00000
F00000000003C00000
F007F0000003C00000
F00FF0000003CF0000
F00FF0000007CF8000
F80FE00000078FC000
781FE000000F87C000
7C1FC000000F838000
3E3FC000001F000000
1FBF8000007E000000
1FFF81C0C3FC000000
07FF01E1C3F8000000
03FE01E1E3F0000000
007E03C1C3C0000000
00FFF3C00000000000
00FFE1C00000000000
01FFE0038000000000
01FFC0078000000000
000F87078000000000
000F07878000000000
000F07878000000000
001E02000000000000
001C00000000000000
00180C000000000000
00381E000000000000
00301E000000000000
00201E000000000000
00401E000000000000
000008000000000000
ENDCHAR
STARTCHAR uniF069
ENCODING 61545
SWIDTH 1407 0
DWIDTH 65 0
BBX 51 52 0 -15
BITMAP
000000000FC000
000000007FF800
00001FE0FFFC00
00007FFDFFFE00
0001FFFFF03F00
0003FFFFC00F80
0007F01FC007C0
000FC007E003C0
001F8003F003C0
001F0000F001E0
003E0000F801E0
003C00007801E0
007C00007801E0
00F800003F81E0
03F800003FE1E0
0FF800003FFBE0
1FF800003FFFC0
1F80000000FFC0
3E000000003F80
7C000000001F80
78000000000F00
F8000000000F80
F0000000000780
F0000000000780
F0000000000780
F007F800000780
F00FF000000780
F00FF000000780
F80FE000000F80
781FE000000F00
7C1FC000001F00
3E3FC000003E00
1FBF800000FE00
1FFF80E0C3FC00
07FF01E1E3F800
03FF01E1E3E000
007E03E0E38000
00FFF3C0000000
00FFF3C0000000
01FFE001800000
01FFC003C00000
000F8703C00000
000F8783C00000
000F0783800000
001E0301000000
001C0000000000
001C0000000000
00380E00000000
00301E00000000
00201E00000000
00601E00000000
00400E00000000
ENDCHAR
STARTCHAR uniF06A
ENCODING 61546
SWIDTH 1136 0
DWIDTH 52 0
BBX 52 55 0 -15
BITMAP
000000000FE000
000000003FF800
000000007FF000
00000000FFF000
00000001F8F000
00001FE3E0F000
00007FFFC0F000
0001FFFF80F000
0003FFFF807800
0007F01FC07C00
000FC007E07C00
001F8003F03F00
001F0001F01F80
003E0000F00FF0
003C00007807F0
007C00007803F0
00F800003FC0F0
03F800003FF1E0
07F800003FFBE0
1FF800003FFFC0
1F800000007FC0
3E000000001F80
7C000000000F80
78000000000780
F8000000000780
F00000000003C0
F00000000003C0
F00000000003C0
F007F8000003C0
F00FF0000003C0
F00FF0000003C0
F80FE000000780
781FE000000780
7C1FC000000F80
3E1FC000001F00
1FBF8000007E00
0FFF80C0C3FC00
07FF01E1E3F800
03FF01E1E3F000
007E03E0E38000
00FFF3C0000000
00FFF3C0000000
01FFE001800000
01FFC003C00000
000F8703C00000
000F8783C00000
000F0783800000
001E0301000000
001C0000000000
001C0000000000
00180E00000000
00301E00000000
00201E00000000
00201E00000000
00400E00000000
ENDCHAR
STARTCHAR uniF06B
ENCODING 61547
SWIDTH 1407 0
DWIDTH 65 0
BBX 65 64 0 -14
BITMAP
000000000780000000
000000000780000000
000000000780000000
000000000780000000
000000000780000000
000000000780000000
000000000780000000
000007000780038000
00000F80030007C000
00000FC000000FC000
000007C000001F8000
0000038000003F0000
0000000000003E0000
000000001FE01C0000
000000007FF8000000
00000781FFFE000000
00007FFBFFFF000000
0001FFFFF03F800000
0003FFFFC00FC00000
0007F87F8007C00000
000FC00FC003E00000
001F8003E001E00000
001F0001F001E00000
003E0000F001E07E00
003C0000F801F0FF80
007C00007801F0FF80
007800007F01F0FF00
03F800007FE1E00000
07F800007FF9E00000
0FF800003FFFE00000
1FC0000000FFE00000
3F000000003FC00000
7C000000001F800000
7C000000000F800000
780000000007800000
F80000000007C00000
F00000000003C00000
F00000000003C00000
F007F0000003C00000
F00FF0000003CF0000
F00FF0000007CF8000
F80FE00000078FC000
781FE0C0000F87C000
7C1FC1E0000F838000
3E3FC1E0001F000000
1FBF80C0007E000000
1FFF8001C3FC000000
07FF0001E3F8000000
03FE0001E3F0000000
007E0001C3C0000000
00FFF0000000000000
00FFE1E00000000000
01FFE1E00000000000
01FFC1E00000000000
000F80C00000000000
000F0001C000000000
000F0001E000000000
001E0001E000000000
001C0000C000000000
001800C00000000000
003801E00000000000
003001E00000000000
002001E00000000000
004000000000000000
ENDCHAR
STARTCHAR uniF06C
ENCODING 61548
SWIDTH 1122 0
DWIDTH 52 0
BBX 51 51 0 -14
BITMAP
000000001FC000
000000007FF800
00001FE1FFFC00
00007FFBFFFE00
0001FFFFF03F00
0003FFFFC00F80
0007F03FC007C0
000FC007E003C0
001F8003E003C0
003F0001F001E0
003E0000F001E0
003C00007801E0
007C00007801E0
00F800007F81E0
03F800003FE1E0
0FF800003FFBE0
1FF800003FFFC0
1F80000000FFC0
3E000000003F80
7C000000001F80
78000000000F00
F8000000000F80
F0000000000780
F0000000000780
F0000000000780
F007F000000780
F00FF000000780
F00FF000000780
F80FE000000F80
781FE0C0000F00
7C1FC1E0001F00
3E3FC1E0003E00
1FBF80C000FE00
1FFF8000C3FC00
07FF0001E3F800
03FE0001E3E000
00FE0000C38000
00FFF0C0000000
00FFE1E0000000
01FFE1E0000000
01FFC0C0000000
000F8000000000
000F0000C00000
000F0001E00000
001E0001E00000
001C0000C00000
001800C0000000
003801E0000000
003001E0000000
002000C0000000
00400000000000
ENDCHAR
STARTCHAR uniF06D
ENCODING 61549
SWIDTH 1136 0
DWIDTH 52 0
BBX 52 54 0 -14
BITMAP
000000000FE000
000000003FF800
00000000FFF000
00000001FFF000
00000003F8F000
00001FE7E0F000
00007FFFC0F000
0001FFFF80F000
0003FFFF807800
0007F03FC07C00
000FC007E07C00
001F8003E03F00
003F0001F01F80
003E0000F00FF0
003C00007807F0
007C00007803F0
00F800007FC0F0
03F800003FF1E0
07F800003FFBE0
1FF800003FFFC0
1F800000007FC0
3E000000001F80
7C000000000F80
78000000000780
F8000000000780
F00000000003C0
F00000000003C0
F00000000003C0
F007F0000003C0
F00FF0000003C0
F00FF0000003C0
F80FE0000007C0
781FE0C0000780
7C1FC1E0000F80
3E3FC1E0003F00
1FBF80C0007E00
1FFF8000C3FC00
07FF0001E3F800
03FE0001E3F000
00FE0000C38000
00FFF0C0000000
00FFE1E0000000
01FFE1E0000000
01FFC0C0000000
000F8000000000
000F0000C00000
000F0001E00000
001E0001E00000
001C0000C00000
001800C0000000
003801E0000000
003001E0000000
002000C0000000
00400000000000
ENDCHAR
STARTCHAR uniF06E
ENCODING 61550
SWIDTH 1106 0
DWIDTH 51 0
BBX 51 51 0 -8
BITMAP
000000C0000000
000001E0000000
000001E0000000
000001E0000000
000001E0000000
000001E0000000
000001E0000000
00C001E0006000
01E000C000F000
01F0000001F000
00F8000003E000
007C000007C000
003C0000078000
001C03F8070000
00001FFE000000
00003FFF800000
00007FFFC00000
0000FF8FE00000
0001FFE3F00000
0001FFF1F00000
0003FFF8F80000
0003FFFC780000
0007FFFC780000
0007FFFC3C0000
7F07FFFE3C1FC0
FF87FFFE3C3FE0
FF87FFFE3C3FE0
7F07FFFE3C1FC0
0007FFFC3C0000
0007FFFC780000
0003FFF8F80000
0003FFF8F80000
0001FFE3F00000
0000FF8FE00000
0000FFFFC00000
00003FFF800000
00001FFE000000
001C07F8070000
003C0000078000
007C000007C000
00F8000003E000
01F0000001F000
01E000C000F000
00C001E0006000
000001E0000000
000001E0000000
000001E0000000
000001E0000000
000001E0000000
000001E0000000
000000C0000000
ENDCHAR
STARTCHAR uniF070
ENCODING 61552
SWIDTH 541 0
DWIDTH 25 0
BBX 25 25 0 5
BITMAP
007F0000
01FFC000
07FFF000
0FFFF800
1FF1FC00
3FFC7E00
3FFE3E00
7FFF1F00
7FFF8F00
FFFF8F80
FFFFC780
FFFFC780
FFFFC780
FFFFC780
FFFFC780
FFFFCF80
7FFF8F00
7FFF1F00
3FFF3E00
3FFE7E00
1FF9FC00
0FFFF800
07FFF000
01FFC000
007F0000
ENDCHAR
STARTCHAR uniF071
ENCODING 61553
SWIDTH 824 0
DWIDTH 38 0
BBX 37 52 0 -7
BITMAP
0000000008
0000000010
0000000030
0000000060
00000000E0
00000001C0
0000000380
0000000780
0000000F00
0000000F00
0000001E00
0000003E00
0000047C18
000008FC30
000019F870
00003BF9E0
00007FF3E0
0000FFF7C0
0001FFFFC0
0003FFFF80
0007FFFF80
0007FFFF00
000FFFFF00
001FFFFE00
003FFFFE00
007FFFFC40
00FFFFFCC0
01FFFFF980
03FFFFFF80
07FFFFFF00
0FE3FFFE00
1F007FFE00
1C003FFC00
38001FFC00
78000FF800
700007F800
F00007F000
E00007F000
E00003E000
E00003C000
E00003C000
E000078000
E000078000
7000070000
70000F0000
78000E0000
3C001C0000
1E007C0000
0F81F80000
07FFF00000
03FFC00000
007F000000
ENDCHAR
STARTCHAR uniF072
ENCODING 61554
SWIDTH 1131 0
DWIDTH 52 0
BBX 52 49 0 -6
BITMAP
00000060000000
000000F0000000
000000F0000000
000000F0000000
000000F0000000
000000F0000000
000000F0000000
00C000F0003000
01E000F0007800
01F0000000F800
01F8000001F800
00FC000003F000
007E000007E000
001E00E003C000
000C07FE030000
00001FFF800000
00003FFFC00000
00007FFFE00000
0000FC03F00000
0001F800F80000
0001F000780000
0003E0007C0000
0003C0003C0000
0007C0003E0000
7F07C0001E0FE0
FF8780001E1FF0
FF878000161FF0
7F860000000FE0
00040000000000
0000E0781C0000
0001F0F83E0000
0003F1F87C0000
0003E1F0F80000
0007C1E0F00000
0007C1E0F00000
0007C1E0F80000
0003E1F0F80000
0003F0F87C0000
0001F8FC3E0000
0000F87E1F0000
00007C3E0F0000
00003C1E0F8000
00003C1E0F8000
00003C1E0F8000
00007C3E0F0000
0000F87E1F0000
0000F87C3E0000
0000F0783C0000
00004030080000
ENDCHAR
STARTCHAR uniF073
ENCODING 61555
SWIDTH 411 0
DWIDTH 19 0
BBX 19 37 0 -1
BITMAP
003C00
007C00
00F800
03E000
07C000
078000
0F0000
1E0000
1C0000
3FF800
3FFE00
7FFF00
7FFF80
7E0FC0
FC07C0
F803E0
F001E0
F001E0
F001E0
F001E0
F001E0
F803E0
7C07E0
7E0FC0
3FFFC0
1FFFC0
0FFF80
03FF80
000700
000F00
001E00
003C00
007C00
00F800
03F000
07C000
078000
ENDCHAR
STARTCHAR uniF074
ENCODING 61556
SWIDTH 901 0
DWIDTH 41 0
BBX 41 45 0 -4
BITMAP
0001FE000000
0007FF800000
000FFFC00000
001FFFE00000
003FFFF00000
007FFFF80000
00FFFFF80000
00FFFFFC0000
00FFFFFC0000
03FFFFFFE000
0FFFFFFFF800
1FFFFFFFFC00
3FFFFFFFFE00
7FFFFFFFFF00
7FFFFFFFFF00
FFFFFFFFFF80
FFFFFFFFFF80
FFFFFFFFFF80
FFFFFFFFFF80
FFFFFFFFFF80
FFFFFFFFFF80
FFFFFFFFFF00
7FFFFFFFFF00
7FFFFFFFFE00
3FFFFFFFFC00
1FFFFFFFFC00
0FFFFFFFFC00
03FFFFFFF800
000FFFFFF800
0007FFFFF000
0003FFFFE000
0001FFFFC000
0003FFFF8000
0003FFFF0000
0003FFFF0000
0003FFFE0000
0001FFFC0000
0001FFF00000
00007FE00000
00001FF00000
00001FF00000
00001FF00000
00000FE00000
000007C00000
000001000000
ENDCHAR
STARTCHAR uniF075
ENCODING 61557
SWIDTH 766 0
DWIDTH 35 0
BBX 34 40 1 -2
BITMAP
000FF80000
007FFF0000
01FFFFC000
03FFFFF000
07FFFFF800
0FFFFFFC00
1FFFFFFE00
3FFFFFFE00
3FFFFFFF00
7FFFFFFF80
7FFFFFFF80
FFFFFFFF80
FFFFFFFFC0
FFFFFFFFC0
FFFFFFFFC0
FFFFFFFFC0
EFFFFFFDC0
C1FFFFC0C0
C03FFF01C0
E01FFC0180
6007F80180
6003F00180
7003F00300
3001E00300
3801E00600
1C00C00E00
0E00C01C00
0F00C03C00
07C0C0F800
03FCCFF000
03FFFFE000
01FFFFE000
00FFFFC000
007FFF8000
003FFF0000
003FFE0000
001FFC0000
000FF80000
0003F00000
0001C00000
ENDCHAR
STARTCHAR uniF076
ENCODING 61558
SWIDTH 785 0
DWIDTH 36 0
BBX 36 36 0 0
BITMAP
0000E00000
0000E00000
0000E00000
0000000000
0000000000
0700E00E00
0700E00E00
0700E00E00
0000E00000
00E0E06000
00F0E0F000
00F8E1F000
007CE7E000
003EEF8000
001FFF0000
000FFE0000
0007FC0000
E7FFFFFE70
E7FFFFFE70
E7FFFFFE70
0007FC0000
000FFE0000
001FFF0000
003EEF8000
007CE3E000
00F8E1F000
00F0E0F000
00E0E06000
0700E00E00
0700E00E00
0700E00E00
0000000000
0000000000
0000E00000
0000E00000
0000E00000
ENDCHAR
STARTCHAR uniF077
ENCODING 61559
SWIDTH 1002 0
DWIDTH 46 0
BBX 44 44 1 -3
BITMAP
000100000000
000100000000
000100000000
000300000000
000380000000
0007C0000000
000FC0000000
001FE0000000
003FF8000000
00FFFE000000
03FFFF800000
007FF8000000
001FF0000000
000FE0000000
0007C0000000
000380000000
000380000000
000100000800
000100000800
000100000C00
000200000C00
000000001E00
080000003F00
080000007F80
08000003FFF0
1C000000FFC0
3E0000003F00
FF8000001E00
3E0008000C00
1C0008000C00
080008000800
08000C000800
00001C000000
00003E000000
00007F000000
0001FFC00000
0003FFF00000
00007F000000
00003E000000
00001C000000
00000C000000
000008000000
000008000000
000008000000
ENDCHAR
STARTCHAR uniF078
ENCODING 61560
SWIDTH 541 0
DWIDTH 25 0
BBX 25 33 0 3
BITMAP
00080000
001C0000
003E0000
007F0000
00FF0000
01FF8000
03FFC000
03FFE000
07FFF000
0FFFF800
0FFFF800
1FFFFC00
3FFFFE00
3FFFFE00
7FFFFE00
7FFFFF00
7FFFFF00
FFFFFF80
FFFFFF80
FFFFFF80
FFFFFF80
FFFFFF80
FFFFFF80
FFFFFF80
7FFFFF00
7FFFFF00
3FFFFE00
3FFFFE00
1FFFFC00
0FFFF800
03FFE000
01FFC000
00080000
ENDCHAR
STARTCHAR uniF079
ENCODING 61561
SWIDTH 762 0
DWIDTH 35 0
BBX 35 42 0 -4
BITMAP
0007FC0000
003FFF8000
00FFFFE000
01FFFFF000
03FC07F800
07E060FC00
0FC0603E00
1F00609F00
3E00618F80
3EE0618780
7C700387C0
78380703C0
78180703C0
F0000F03E0
F0001E01E0
F0001E01E0
F7E03CF9E0
F7E03CF9E0
F001FC01E0
F003F801E0
F003FC01E0
7803FC03C0
7803FC03C0
7C01F807C0
3C01F00780
3E00000F80
1F00001F00
1F80003F00
0FC0007E00
07E000FC00
03FC07F800
01FFFFF000
007FFFE000
001FFF0000
0007FE0000
0007FE0000
0007FE0000
0007FE0000
0007FE0000
0007FE0000
0007FE0000
0007FE0000
ENDCHAR
STARTCHAR uniF07A
ENCODING 61562
SWIDTH 739 0
DWIDTH 34 0
BBX 35 46 0 -7
BITMAP
0000400000
0000E00000
0001F00000
0003F80000
0007FC0000
000FFE0000
001FFF0000
003FFF8000
007FFF8000
00FFFFC000
00FFFFE000
01FFFFF000
03FFFFF800
07FFFFF800
078FFC7C00
0E03F8FE00
0C01F8FE00
1C21F1FF00
1871F1FF00
3871E1FF80
3870E3FF80
7871C3FFC0
7871C7FFC0
7871C7FFC0
FC018FFFE0
FC038FFFE0
FE071E07E0
FFFF1C03E0
FFFE1803E0
FFFE38E1E0
FFFE38E1E0
FFFC70E1E0
7FFC70E1C0
7FF8F8E1C0
7FF8F8E1C0
3FF1F84380
3FF1F80380
1FE1FC0700
1FE3FF1E00
0FFFFFFE00
07FFFFFC00
03FFFFF800
00FFFFE000
007FFFC000
001FFE0000
0000600000
ENDCHAR
STARTCHAR uniF07B
ENCODING 61563
SWIDTH 848 0
DWIDTH 39 0
BBX 39 17 0 8
BITMAP
F83C038F80
FC3C078FC0
FC3C070FC0
FE3C071FC0
FE3C0F1FE0
FF3C0E1FE0
FF3C1E3FE0
FFBC1E3DF0
FFFC1C7CF0
FBFC3C7CF8
FBFC3878F8
F9FC38FFF8
F9FC78FFFC
F8FC70FFFC
F87CF1F07C
F87CE1F03E
0000E00000
ENDCHAR
STARTCHAR uniF07C
ENCODING 61564
SWIDTH 864 0
DWIDTH 40 0
BBX 39 36 0 0
BITMAP
0000380000
00007C0000
0000FE0000
0001FF0000
0003FF8000
0007BBC000
000739C000
000638C000
0000380000
0000380000
0000380000
0000380000
0000380000
0000380000
0000380000
0000380000
0000380000
0000380000
0000380000
0000380000
0000380000
0000380000
800C106002
C01E00F006
F07F83FC1E
FFFFFFFFFE
FFFFFFFFFE
FFFFFFFFFE
FFFFFFFFFE
FFFFFFFFFE
FFFFFFFFFE
FFFFFFFFFE
FFFFFFFFFE
FFFFFFFFFE
FFFFFFFFFE
7FFFFFFFFC
ENDCHAR
STARTCHAR uniF07D
ENCODING 61565
SWIDTH 1150 0
DWIDTH 53 0
BBX 53 45 0 -6
BITMAP
0001FC00000000
0007FF00000000
001FFFC0000000
003F07E0000000
007C01F0000000
007800F0000000
00F00078000000
00E00038000000
01E0003C000000
03C0001FC00000
0FC0001FF00000
1FC0001FF81E00
3E0000007C3E00
780000001E3C00
700000000E7800
F00000000F7000
E0000000070000
E0000000070000
E0000000070000
E0000000078000
F00000000F8000
700000000FC000
780000001DC000
3E0000007DC3F8
1FFFFFFFF9C3F8
0FFFFFFFF1C3F8
03FFFFFF81C000
000001C003C000
000001E0038000
000000F0078000
000000F80F0000
0000007C1F0000
0000003FFE0000
0000001FF80000
00000607E03000
00000F00007800
00001E00007C00
00003C00003E00
00003800801E00
00003001C00E00
00000001C00000
00000001C00000
00000001C00000
00000001C00000
00000001C00000
ENDCHAR
STARTCHAR uniF07E
ENCODING 61566
SWIDTH 1189 0
DWIDTH 55 0
BBX 55 48 0 -5
BITMAP
00001FE0000000
00007FF8000000
0001FFFE000000
0003FFFF000000
0007F03F800000
000FC00FC00000
001F0003E00000
003E0001F00000
003E0001F00000
003C0000F00000
007C0000F80000
00F800007F8000
03F800007FF000
0FF800007FF800
1FF800007FFC00
1F800000007E00
3E000000003F00
7C000000000F80
78000000000780
F8000000000780
F00000000003C0
F00000000003C0
F00000000003C0
F00000000003C0
F00000000003C0
F00000000003C0
F80000000007C0
78000000000780
7C000000000F80
3E000000001F00
1F800000007F00
0FFFFFFFFFFF80
07FFFFFFFFFFF0
03FFFFFFFFF3FE
00FFFFFFFF80FE
0000000E00001E
0000000E00000E
0000000E00001E
0000000F00001C
0000000700001C
0000000780003C
00000003C00078
00000003E000F8
00000001F001F0
00000000FC0FE0
000000007FFF80
000000001FFF00
0000000003F800
ENDCHAR
STARTCHAR uniF080
ENCODING 61568
SWIDTH 1189 0
DWIDTH 55 0
BBX 54 48 0 -5
BITMAP
00001FE0000000
00007FFC000000
0001FFFE000000
0003FFFF800000
0007F03FC00000
000FC00FC00000
001F8003E00000
003E0001F00000
003E0000F00000
003C0000F80000
007C0000780000
00F800007F8000
03F800007FF000
07F800007FF800
1FF800003FFE00
1F800000007E00
3E000000001F00
7C000000000F80
78000000000780
F80000000007C0
F00000000003C0
F00000000003C0
F00000000003C0
F00000000003C0
F00000000003C0
F00000000003E0
F80000000007F0
780000000007F0
7C000000000FF8
3E000000001F38
1F800000007E38
0FFFFFFFFFFC3C
07FFFFFFFFF81C
03FFFFFFFFF01C
00FFFFFFFFC01C
0000000E00001C
0000000E00001C
0000000E00001C
0000000F00003C
00000007000038
00000007800078
00000003C00070
00000003E000F0
00000001F001E0
00000000FC0FC0
000000003FFF80
000000001FFE00
0000000003F800
ENDCHAR
STARTCHAR uniF081
ENCODING 61569
SWIDTH 856 0
DWIDTH 39 0
BBX 39 38 0 -3
BITMAP
000003F800
00001FFF00
00007FFE00
0000FFFE00
0001FFFE00
0003FC3E00
0007F03E00
0007E03E00
000FC03E00
000F801F00
001F001F00
001F001F80
001F000F80
001F000FE0
001FE007F0
001FF803FE
007FFC01FE
00FFFE00FE
00FFFF003C
01FC3F803C
01F01F807C
03E00FF0F8
0FE007FDF8
1FE007FFF0
3FC007FFF0
7FC007FFE0
7E00001FC0
FC00000FC0
F8000007C0
F8000007C0
F8000007C0
FC00000FC0
7E00001F80
7FFFFFFF80
3FFFFFFF00
1FFFFFFE00
0FFFFFFC00
03FFFFF000
ENDCHAR
STARTCHAR uniF082
ENCODING 61570
SWIDTH 1239 0
DWIDTH 57 0
BBX 57 34 0 0
BITMAP
0003000000000000
0007800000000000
0007800000000000
000300000C01F800
000000C01E03FC00
018001E01E07FE00
03C001E01E07FF00
03C000C000078F80
0180000000020780
0000000000000780
0000000000000780
0000000000000780
0000000000000F80
FFFFFFFFFFFFFF00
FFFFFFFFFFFFFE00
FFFFFFFFFFFFFC00
7FFFFFFFFFFFF800
0000000000000000
0000000000000000
0000000000000000
FFFFFFFFFF00C000
FFFFFFFFFFC1E000
FFFFFFFFFFE1E000
7FFFFFFFFFE0C000
0000000001F00000
0000000000F00000
0000000000F00000
0003000000F00000
00078000F1F00000
0E078000FFE00000
0F038060FFE00000
0F0000F07FC00000
060000F01F000000
0000006000000000
ENDCHAR
STARTCHAR uniF083
ENCODING 61571
SWIDTH 856 0
DWIDTH 39 0
BBX 40 38 0 -3
BITMAP
000007F800
00001FFF00
00007FFFC0
0000FFFFE0
0001FFFFF0
0003FC0FF8
0007F001FC
0007E000FC
000FC0007E
000F80003E
000F00003E
001F00003F
001F00001F
001F00001F
001FE0001F
001FF8001F
007FFE001F
00FFFF001F
00FFFF003E
01FC3F803E
01F00F807E
03E00FF0FC
0FE007FDFC
1FE007FFF8
3FC007FFF0
7FC007FFE0
7E00001FC0
FC00000FC0
F8000007C0
F8000007C0
F8000007C0
FC00000FC0
7E00001F80
7FFFFFFF80
3FFFFFFF00
1FFFFFFE00
0FFFFFFC00
03FFFFF000
ENDCHAR
STARTCHAR uniF084
ENCODING 61572
SWIDTH 1082 0
DWIDTH 50 0
BBX 49 45 0 -6
BITMAP
000001C0000000
000001C0000000
000001C0000000
00003FFE000000
0001FFFFE00000
0007FFFFF80000
001FE007FC0000
003F00007F0000
00FC00001F8000
01F0000007C000
03E0000003E000
03C0000000F000
07800000007800
0F000000003800
1E000000003C00
1C000000001E00
3C000000001E00
39F803F007EE00
7FFE1FFC3FFF00
7FFFBFFF7FFF00
7F07FFDFFC3F80
FC03F9C7F00F80
F001E1C3C00780
6000C1C1800380
000001C0000000
000001C0000000
000001C0000000
000001C0000000
000001C0000000
000001C0000000
000001C0000000
000001C0000000
000001C0000000
000001C0000000
000001C0000000
000001C0000000
000201C0000000
000701C0000000
000701C0000000
000701C0000000
000701C0000000
00038380000000
0003FF80000000
0001FF00000000
00007C00000000
ENDCHAR
STARTCHAR uniF085
ENCODING 61573
SWIDTH 1408 0
DWIDTH 65 0
BBX 65 59 0 -9
BITMAP
000000000300000000
000000000780000000
000000000780000000
000000000780000000
000000000780000000
000000000780000000
000000000780000000
000003800780018000
000007C0030003C000
000007C0000007C000
000003E000000F8000
000001F000001F0000
000000F000001E0000
000000700FE01C0000
000000007FF8000000
00000000FFFE000000
00000003FFFF000000
00000007F03F800000
00000007C00FC00000
0000000F8007E00000
0000000F0003E00000
0000001F0001E00000
0000001E0000F00000
0001FC1E0000F07F00
0003FE1E0000F0FF80
0003FE000000F0FF80
0001FE000000F07F00
000000000000F00000
000000000001F00000
000000000001E00000
0000003E0003E00000
0000007F8007C00000
000000FFC00FC00000
000000FFC03F800000
000000E3E1FF000000
00000001E1FE000000
00000001E3F8000000
00000001E3E01E0000
00000003E0001F0000
7FFFFFFFC0001F8000
FFFFFFFFC0000FC000
FFFFFFFF830007C000
7FFFFFFE078003C000
000000000780018000
000000000780000000
000000000780000000
7FFFE0000780000000
FFFFF8000780000000
FFFFFC000780000000
7FFFFC000300000000
00003E000000000000
00001E000000000000
00001E000000000000
00041E000000000000
000E3E000000000000
001FFC000000000000
001FFC000000000000
000FF8000000000000
0003E0000000000000
ENDCHAR
STARTCHAR uniF086
ENCODING 61574
SWIDTH 1130 0
DWIDTH 52 0
BBX 51 39 0 0
BITMAP
000000000FE000
000000007FF000
00000000FFF000
00000001FFF000
00000003F8F000
00001FE7E0F000
0000FFFF80F000
0001FFFF80F000
0007FFFF807800
000FF03FC07800
001F800FE03C00
001F0003E03E00
003E0001F01FC0
003C0000F00FE0
007C0000F807E0
00F800007F81C0
03F800007FE3C0
0FF800007FFFC0
1FF800007FFF80
3F80000000FF80
3E000000003F00
7C000000001F00
78000000000F00
F8000000000F80
F0000000000780
F0000000000780
F0000000000780
F0000000000780
F0000000000780
F0000000000780
F8000000000F00
78000000000F00
7C000000001F00
3E000000003E00
1F80000000FC00
1FFFFFFFFFFC00
07FFFFFFFFF000
03FFFFFFFFE000
00FFFFFFFF8000
ENDCHAR
STARTCHAR uniF087
ENCODING 61575
SWIDTH 330 0
DWIDTH 15 0
BBX 15 15 0 11
BITMAP
FFC0
FFC0
FFC0
FC00
FE00
FF00
EF80
E7C0
E3E0
E1F0
00F8
007C
003E
001E
000E
ENDCHAR
STARTCHAR uniF088
ENCODING 61576
SWIDTH 330 0
DWIDTH 15 0
BBX 15 15 0 10
BITMAP
E000
F000
F800
7C00
3E00
1F0E
0F8E
07CE
03EE
01FE
00FE
007E
07FE
07FE
07FE
ENDCHAR
STARTCHAR uniF089
ENCODING 61577
SWIDTH 750 0
DWIDTH 35 0
BBX 35 35 0 0
BITMAP
0007FC0000
003FFF8000
00FFFFC000
01FFFFF000
03FC07F800
07E000FC00
0FC0E07E00
1F00E01F00
3E00E00F00
3E00E00F80
7C00E007C0
7800E003C0
7800E003C0
F800E003E0
F000E001E0
F000E001E0
F000E001E0
F000E001E0
F0004001E0
F0000001E0
F0000001E0
F8000003E0
78000003C0
78000003C0
7C000007C0
3E00000F80
3F00000F80
1F80001F00
0FC0007E00
07E000FC00
03FC07F800
01FFFFF000
007FFFE000
003FFF8000
0007FC0000
ENDCHAR
STARTCHAR uniF08A
ENCODING 61578
SWIDTH 750 0
DWIDTH 35 0
BBX 35 35 0 0
BITMAP
0007FC0000
003FFF8000
00FFFFC000
01FFFFF000
03FC07F800
07E000FC00
0FC0E07E00
1F00E01F00
3E00E00F00
3E00E00F80
7C00EC07C0
7800EC03C0
7800FC03C0
F800F803E0
F000F801E0
F000F001E0
F000F001E0
F000E001E0
F0004001E0
F0000001E0
F0000001E0
F8000003E0
78000003C0
78000003C0
7C000007C0
3E00000F80
3F00000F80
1F80001F00
0FC0007E00
07E000FC00
03FC07F800
01FFFFF000
007FFFE000
003FFF8000
0007FC0000
ENDCHAR
STARTCHAR uniF08B
ENCODING 61579
SWIDTH 750 0
DWIDTH 35 0
BBX 35 35 0 0
BITMAP
0007FC0000
003FFF8000
00FFFFC000
01FFFFF000
03FC07F800
07E000FC00
0FC0E07E00
1F00E01F00
3E00E00F00
3E00E00F80
7C00E007C0
7800E003C0
7800E003C0
F800E383E0
F000EF81E0
F000FF01E0
F000FC01E0
F000F001E0
F0004001E0
F0000001E0
F0000001E0
F8000003E0
78000003C0
78000003C0
7C000007C0
3E00000F80
3F00000F80
1F80001F00
0FC0007E00
07E000FC00
03FC07F800
01FFFFF000
007FFFE000
003FFF8000
0007FC0000
ENDCHAR
STARTCHAR uniF08C
ENCODING 61580
SWIDTH 750 0
DWIDTH 35 0
BBX 35 35 0 0
BITMAP
0007FC0000
003FFF8000
00FFFFC000
01FFFFF000
03FC07F800
07E000FC00
0FC0007E00
1F00E01F00
3E00E00F00
3E00E00F80
7C00E007C0
7800E003C0
7800E003C0
F800E003E0
F000E001E0
F000E001E0
F000FF81E0
F000FF81E0
F000FF81E0
F0000001E0
F0000001E0
F8000003E0
78000003C0
78000003C0
7C000007C0
3E00000F80
3F00000F80
1F80001F00
0FC0007E00
07E000FC00
03FC07F800
01FFFFF000
007FFFE000
003FFF8000
0007FC0000
ENDCHAR
STARTCHAR uniF08D
ENCODING 61581
SWIDTH 750 0
DWIDTH 35 0
BBX 35 35 0 0
BITMAP
0007FC0000
003FFF8000
00FFFFC000
01FFFFF000
03FC07F800
07E000FC00
0FC0E07E00
1F00E01F00
3E00E00F00
3E00E00F80
7C00E007C0
7800E003C0
7800E003C0
F800E003E0
F000E001E0
F000E001E0
F000E001E0
F000F001E0
F000FC01E0
F0003F01E0
F0000F81E0
F8000383E0
78000003C0
78000003C0
7C000007C0
3E00000F80
3F00000F80
1F80001F00
0FC0007E00
07E000FC00
03FC07F800
01FFFFF000
007FFFE000
003FFF8000
0007FC0000
ENDCHAR
STARTCHAR uniF08E
ENCODING 61582
SWIDTH 750 0
DWIDTH 35 0
BBX 35 35 0 0
BITMAP
0007FC0000
003FFF8000
00FFFFC000
01FFFFF000
03FC07F800
07E000FC00
0FC0E07E00
1F00E01F00
3E00E00F00
3E00E00F80
7C00E007C0
7800E003C0
7800E003C0
F800E003E0
F000E001E0
F000E001E0
F000E001E0
F000E001E0
F000F001E0
F0007001E0
F0003801E0
F8003803E0
78001C03C0
78001C03C0
7C000C07C0
3E00000F80
3F00000F80
1F80001F00
0FC0007E00
07E000FC00
03FC07F800
01FFFFF000
007FFFE000
003FFF8000
0007FC0000
ENDCHAR
STARTCHAR uniF08F
ENCODING 61583
SWIDTH 750 0
DWIDTH 35 0
BBX 35 35 0 0
BITMAP
0007FC0000
003FFF8000
00FFFFC000
01FFFFF000
03FC07F800
07E000FC00
0FC0E07E00
1F00E01F00
3E00E00F00
3E00E00F80
7C00E007C0
7800E003C0
7800E003C0
F800E003E0
F000E001E0
F000E001E0
F000E001E0
F000E001E0
F000E001E0
F000E001E0
F000E001E0
F800E003E0
7800E003C0
7800E003C0
7C00E007C0
3E00E00F80
3F00000F80
1F80001F00
0FC0007E00
07E000FC00
03FC07F800
01FFFFF000
007FFFE000
003FFF8000
0007FC0000
ENDCHAR
STARTCHAR uniF090
ENCODING 61584
SWIDTH 750 0
DWIDTH 35 0
BBX 35 35 0 0
BITMAP
0007FC0000
003FFF8000
00FFFFC000
01FFFFF000
03FC07F800
07E000FC00
0FC0E07E00
1F00E01F00
3E00E00F00
3E00E00F80
7C00E007C0
7800E003C0
7800E003C0
F800E003E0
F000E001E0
F000E001E0
F000E001E0
F000E001E0
F001E001E0
F001C001E0
F0038001E0
F8038003E0
78070003C0
78070003C0
7C060007C0
3E00000F80
3F00000F80
1F80001F00
0FC0007E00
07E000FC00
03FC07F800
01FFFFF000
007FFFE000
003FFF8000
0007FC0000
ENDCHAR
STARTCHAR uniF091
ENCODING 61585
SWIDTH 750 0
DWIDTH 35 0
BBX 35 35 0 0
BITMAP
0007FC0000
003FFF8000
00FFFFC000
01FFFFF000
03FC07F800
07E000FC00
0FC0E07E00
1F00E01F00
3E00E00F00
3E00E00F80
7C00E007C0
7800E003C0
7800E003C0
F800E003E0
F000E001E0
F000E001E0
F000E001E0
F001E001E0
F007C001E0
F01F8001E0
F03E0001E0
F8380003E0
78000003C0
78000003C0
7C000007C0
3E00000F80
3F00000F80
1F80001F00
0FC0007E00
07E000FC00
03FC07F800
01FFFFF000
007FFFE000
003FFF8000
0007FC0000
ENDCHAR
STARTCHAR uniF092
ENCODING 61586
SWIDTH 750 0
DWIDTH 35 0
BBX 35 35 0 0
BITMAP
0007FC0000
003FFF8000
00FFFFC000
01FFFFF000
03FC07F800
07E000FC00
0FC0007E00
1F00E01F00
3E00E00F00
3E00E00F80
7C00E007C0
7800E003C0
7800E003C0
F800E003E0
F000E001E0
F000E001E0
F03FE001E0
F03FE001E0
F03FE001E0
F0000001E0
F0000001E0
F8000003E0
78000003C0
78000003C0
7C000007C0
3E00000F80
3F00000F80
1F80001F00
0FC0007E00
07E000FC00
03FC07F800
01FFFFF000
007FFFE000
003FFF8000
0007FC0000
ENDCHAR
STARTCHAR uniF093
ENCODING 61587
SWIDTH 750 0
DWIDTH 35 0
BBX 35 35 0 0
BITMAP
0007FC0000
003FFF8000
00FFFFC000
01FFFFF000
03FC07F800
07E000FC00
0FC0E07E00
1F00E01F00
3E00E00F00
3E00E00F80
7C00E007C0
7800E003C0
7800E003C0
F838E003E0
F03EE001E0
F01FE001E0
F007E001E0
F001E001E0
F0004001E0
F0000001E0
F0000001E0
F8000003E0
78000003C0
78000003C0
7C000007C0
3E00000F80
3F00000F80
1F80001F00
0FC0007E00
07E000FC00
03FC07F800
01FFFFF000
007FFFE000
003FFF8000
0007FC0000
ENDCHAR
STARTCHAR uniF094
ENCODING 61588
SWIDTH 750 0
DWIDTH 35 0
BBX 35 35 0 0
BITMAP
0007FC0000
003FFF8000
00FFFFC000
01FFFFF000
03FC07F800
07E000FC00
0FC0E07E00
1F00E01F00
3E00E00F00
3E00E00F80
7C06E007C0
780EE003C0
7807E003C0
F803E003E0
F003E001E0
F001E001E0
F001E001E0
F000E001E0
F0004001E0
F0000001E0
F0000001E0
F8000003E0
78000003C0
78000003C0
7C000007C0
3E00000F80
3F00000F80
1F80001F00
0FC0007E00
07E000FC00
03FC07F800
01FFFFF000
007FFFE000
003FFF8000
0007FC0000
ENDCHAR
STARTCHAR uniF095
ENCODING 61589
SWIDTH 750 0
DWIDTH 35 0
BBX 35 35 0 0
BITMAP
0007FC0000
003FFF8000
00FC07C000
01E000F000
0380003800
0700001C00
0E00000E00
1C00000700
1800000300
3000000180
70000001C0
60000000C0
60000000C0
E0000000E0
C000000060
C000000060
C000000060
C000000060
C000000060
C000000060
C000000060
E0000000E0
60000000C0
60000000C0
70000001C0
3000000180
3800000300
1C00000700
0E00000E00
0700001C00
0380003800
01E000F000
00FC07E000
003FFF8000
0007FC0000
ENDCHAR
STARTCHAR uniF096
ENCODING 61590
SWIDTH 750 0
DWIDTH 35 0
BBX 17 34 18 0
BITMAP
F80000
1F0000
078000
03E000
01F000
00F800
00FC00
007C00
007E00
003E00
003F00
003F00
001F00
001F80
001F80
001F80
001F80
001F80
001F80
001F80
001F80
001F00
003F00
003F00
003E00
007E00
007C00
00F800
00F000
01E000
03C000
078000
1E0000
F00000
ENDCHAR
STARTCHAR uniF097
ENCODING 61591
SWIDTH 750 0
DWIDTH 35 0
BBX 18 35 17 0
BITMAP
800000
7C0000
1F8000
0FC000
07F000
03F800
01FC00
01FE00
00FE00
00FF00
007F00
007F80
007F80
003F80
003FC0
003FC0
003FC0
003FC0
003FC0
003FC0
003FC0
003FC0
003F80
007F80
007F80
007F00
007F00
00FE00
00FC00
01F800
03F000
03E000
0FC000
1F0000
780000
ENDCHAR
STARTCHAR uniF098
ENCODING 61592
SWIDTH 750 0
DWIDTH 35 0
BBX 18 35 17 0
BITMAP
800000
7C0000
1F8000
1FC000
0FF000
07F800
07FC00
03FE00
03FE00
01FF00
01FF00
01FF80
01FF80
00FF80
00FFC0
00FFC0
00FFC0
00FFC0
00FFC0
00FFC0
00FFC0
00FFC0
00FF80
00FF80
01FF80
01FF00
01FF00
03FE00
03FC00
03F800
07F000
0FE000
1F8000
3F0000
700000
ENDCHAR
STARTCHAR uniF099
ENCODING 61593
SWIDTH 750 0
DWIDTH 35 0
BBX 18 35 17 0
BITMAP
800000
7C0000
3F8000
3FC000
1FF000
0FF800
0FFC00
0FFE00
07FE00
07FF00
07FF00
07FF80
03FF80
03FF80
03FFC0
03FFC0
03FFC0
03FFC0
03FFC0
03FFC0
03FFC0
03FFC0
03FF80
03FF80
07FF80
07FF00
07FF00
07FE00
0FFC00
0FF800
0FF000
1FE000
3F8000
3E0000
700000
ENDCHAR
STARTCHAR uniF09A
ENCODING 61594
SWIDTH 750 0
DWIDTH 35 0
BBX 17 35 17 0
BITMAP
800000
7C0000
7F0000
3FC000
3FE000
3FF000
1FF800
1FFC00
1FFC00
1FFE00
1FFE00
0FFF00
0FFF00
0FFF80
0FFF80
0FFF80
0FFF80
0FFF80
0FFF80
0FFF80
0FFF80
0FFF80
0FFF00
0FFF00
0FFF00
1FFE00
1FFE00
1FFC00
1FF800
1FF800
3FF000
3FC000
3F8000
7E0000
F00000
ENDCHAR
STARTCHAR uniF09B
ENCODING 61595
SWIDTH 750 0
DWIDTH 35 0
BBX 17 35 17 0
BITMAP
800000
7C0000
7F0000
3FC000
3FE000
3FF000
1FF800
1FFC00
1FFC00
1FFE00
1FFE00
0FFF00
0FFF00
0FFF80
0FFF80
0FFF80
0FFF80
0FFF80
0FFF80
0FFF80
0FFF80
0FFF80
0FFF00
0FFF00
0FFF00
1FFE00
1FFE00
1FFC00
1FF800
1FF800
3FF000
3FC000
3F8000
7E0000
F00000
ENDCHAR
STARTCHAR uniF09C
ENCODING 61596
SWIDTH 750 0
DWIDTH 35 0
BBX 17 35 17 0
BITMAP
800000
FC0000
FF0000
FFC000
FFE000
FFF000
FFF800
FFFC00
FFFC00
FFFE00
FFFE00
FFFF00
FFFF00
FFFF00
FFFF80
FFFF80
FFFF80
FFFF80
FFFF80
FFFF80
FFFF80
FFFF80
FFFF00
FFFF00
FFFF00
FFFE00
FFFE00
FFFC00
FFF800
FFF000
FFE000
FFC000
FF8000
FE0000
F00000
ENDCHAR
STARTCHAR uniF09D
ENCODING 61597
SWIDTH 750 0
DWIDTH 35 0
BBX 19 34 16 0
BITMAP
7F0000
7FC000
7FE000
7FF800
7FFC00
7FFE00
7FFF00
FFFF00
FFFF80
FFFF80
FFFFC0
FFFFC0
FFFFC0
FFFFE0
FFFFE0
FFFFE0
FFFFE0
FFFFE0
FFFFE0
FFFFE0
FFFFE0
FFFFC0
FFFFC0
FFFFC0
FFFF80
FFFF80
FFFF00
7FFE00
7FFC00
7FF800
7FF000
7FE000
7F8000
3C0000
ENDCHAR
STARTCHAR uniF09E
ENCODING 61598
SWIDTH 750 0
DWIDTH 35 0
BBX 21 35 14 0
BITMAP
100000
1F8000
1FF000
3FF800
3FFE00
3FFF00
7FFF80
7FFFC0
7FFFC0
7FFFE0
7FFFE0
FFFFF0
FFFFF0
FFFFF0
FFFFF8
FFFFF8
FFFFF8
FFFFF8
FFFFF8
FFFFF8
FFFFF8
FFFFF8
FFFFF0
FFFFF0
FFFFF0
FFFFE0
7FFFE0
7FFFC0
7FFF80
7FFF00
3FFE00
3FFC00
3FF800
1FE000
1F0000
ENDCHAR
STARTCHAR uniF09F
ENCODING 61599
SWIDTH 750 0
DWIDTH 35 0
BBX 22 35 12 0
BITMAP
040000
0FE000
0FF800
1FFE00
1FFF00
3FFF80
3FFFC0
7FFFE0
7FFFE0
7FFFF0
7FFFF0
7FFFF8
FFFFF8
FFFFF8
FFFFFC
FFFFFC
FFFFFC
FFFFFC
FFFFFC
FFFFFC
FFFFFC
FFFFFC
FFFFF8
FFFFF8
FFFFF8
7FFFF0
7FFFF0
7FFFE0
7FFFC0
3FFF80
3FFF00
1FFE00
1FFC00
0FF000
0F8000
ENDCHAR
STARTCHAR uniF0A0
ENCODING 61600
SWIDTH 750 0
DWIDTH 35 0
BBX 24 35 11 0
BITMAP
010000
03F800
07FE00
0FFF80
1FFFC0
1FFFE0
3FFFF0
3FFFF8
3FFFF8
7FFFFC
7FFFFC
7FFFFE
FFFFFE
FFFFFE
FFFFFF
FFFFFF
FFFFFF
FFFFFF
FFFFFF
FFFFFF
FFFFFF
FFFFFF
FFFFFE
FFFFFE
7FFFFE
7FFFFC
7FFFFC
7FFFF8
3FFFF0
3FFFE0
1FFFC0
1FFF80
0FFF00
07FC00
03E000
ENDCHAR
STARTCHAR uniF0A1
ENCODING 61601
SWIDTH 750 0
DWIDTH 35 0
BBX 26 35 9 0
BITMAP
00800000
01FC0000
03FF8000
07FFC000
0FFFF000
1FFFF800
1FFFFC00
3FFFFE00
3FFFFE00
7FFFFF00
7FFFFF00
7FFFFF80
7FFFFF80
FFFFFF80
FFFFFFC0
FFFFFFC0
FFFFFFC0
FFFFFFC0
FFFFFFC0
FFFFFFC0
FFFFFFC0
FFFFFFC0
FFFFFF80
FFFFFF80
7FFFFF80
7FFFFF00
7FFFFF00
3FFFFE00
3FFFFC00
1FFFF800
1FFFF000
0FFFE000
07FFC000
03FF0000
00F80000
ENDCHAR
STARTCHAR uniF0A2
ENCODING 61602
SWIDTH 750 0
DWIDTH 35 0
BBX 27 35 7 0
BITMAP
00200000
00FF0000
01FFC000
03FFF000
07FFF800
0FFFFC00
1FFFFE00
1FFFFF00
3FFFFF00
3FFFFF80
7FFFFF80
7FFFFFC0
7FFFFFC0
FFFFFFE0
FFFFFFE0
FFFFFFE0
FFFFFFE0
FFFFFFE0
FFFFFFE0
FFFFFFE0
FFFFFFE0
FFFFFFE0
FFFFFFC0
FFFFFFC0
7FFFFFC0
7FFFFF80
7FFFFF80
3FFFFF00
3FFFFE00
1FFFFC00
0FFFF800
07FFF000
03FFE000
01FF8000
007C0000
ENDCHAR
STARTCHAR uniF0A3
ENCODING 61603
SWIDTH 750 0
DWIDTH 35 0
BBX 35 35 0 0
BITMAP
0007FC0000
003FFF8000
00FFFFE000
01FFFFF000
03FFFFF800
07FFFFFC00
0FFFFFFE00
1FFFFFFF00
3FFFFFFF80
3FFFFFFF80
7FFFFFFFC0
7FFFFFFFC0
7FFFFFFFC0
FFFFFFFFE0
FFFFFFFFE0
FFFFFFFFE0
FFFFFFFFE0
FFFFFFFFE0
FFFFFFFFE0
FFFFFFFFE0
FFFFFFFFE0
FFFFFFFFE0
7FFFFFFFC0
7FFFFFFFC0
7FFFFFFFC0
3FFFFFFF80
3FFFFFFF80
1FFFFFFF00
0FFFFFFE00
07FFFFFC00
03FFFFF800
01FFFFF000
00FFFFE000
003FFF8000
0007FC0000
ENDCHAR
STARTCHAR uniF0A4
ENCODING 61604
SWIDTH 750 0
DWIDTH 35 0
BBX 29 34 0 0
BITMAP
000FE000
007FF800
00FFFE00
03FFFF00
07FFFF80
0FFFFF80
1FFFFFC0
1FFFFFE0
3FFFFFE0
3FFFFFF0
7FFFFFF0
7FFFFFF0
7FFFFFF8
FFFFFFF8
FFFFFFF8
FFFFFFF8
FFFFFFF8
FFFFFFF8
FFFFFFF8
FFFFFFF8
FFFFFFF8
7FFFFFF8
7FFFFFF0
7FFFFFF0
3FFFFFF0
3FFFFFE0
1FFFFFE0
0FFFFFC0
07FFFFC0
03FFFF80
01FFFF00
00FFFE00
003FF800
0007E000
ENDCHAR
STARTCHAR uniF0A5
ENCODING 61605
SWIDTH 750 0
DWIDTH 35 0
BBX 27 34 0 0
BITMAP
000FE000
007FF000
00FFF800
03FFFC00
07FFFE00
0FFFFF00
1FFFFF00
1FFFFF80
3FFFFF80
3FFFFFC0
7FFFFFC0
7FFFFFC0
7FFFFFE0
FFFFFFE0
FFFFFFE0
FFFFFFE0
FFFFFFE0
FFFFFFE0
FFFFFFE0
FFFFFFE0
FFFFFFE0
7FFFFFE0
7FFFFFC0
7FFFFFC0
3FFFFFC0
3FFFFFC0
1FFFFF80
0FFFFF80
07FFFF00
03FFFE00
01FFFC00
00FFF800
003FF000
0007C000
ENDCHAR
STARTCHAR uniF0A6
ENCODING 61606
SWIDTH 750 0
DWIDTH 35 0
BBX 26 34 0 0
BITMAP
000FE000
007FF000
00FFF800
03FFFC00
07FFFC00
0FFFFE00
1FFFFF00
1FFFFF00
3FFFFF00
3FFFFF80
7FFFFF80
7FFFFF80
7FFFFFC0
FFFFFFC0
FFFFFFC0
FFFFFFC0
FFFFFFC0
FFFFFFC0
FFFFFFC0
FFFFFFC0
FFFFFFC0
7FFFFFC0
7FFFFF80
7FFFFF80
3FFFFF80
3FFFFF80
1FFFFF00
0FFFFF00
07FFFE00
03FFFE00
01FFFC00
00FFF800
003FF000
0007C000
ENDCHAR
STARTCHAR uniF0A7
ENCODING 61607
SWIDTH 750 0
DWIDTH 35 0
BBX 24 34 0 0
BITMAP
000FC0
007FE0
00FFF0
03FFF0
07FFF8
0FFFF8
1FFFFC
1FFFFC
3FFFFE
3FFFFE
7FFFFE
7FFFFF
7FFFFF
FFFFFF
FFFFFF
FFFFFF
FFFFFF
FFFFFF
FFFFFF
FFFFFF
FFFFFF
7FFFFF
7FFFFF
7FFFFE
3FFFFE
3FFFFE
1FFFFC
0FFFFC
07FFFC
03FFF8
01FFF0
00FFF0
003FE0
0007C0
ENDCHAR
STARTCHAR uniF0A8
ENCODING 61608
SWIDTH 750 0
DWIDTH 35 0
BBX 22 34 0 0
BITMAP
001FC0
007FC0
01FFE0
03FFE0
07FFF0
0FFFF0
1FFFF0
1FFFF8
3FFFF8
3FFFF8
7FFFF8
7FFFFC
FFFFFC
FFFFFC
FFFFFC
FFFFFC
FFFFFC
FFFFFC
FFFFFC
FFFFFC
FFFFFC
7FFFFC
7FFFFC
7FFFF8
3FFFF8
3FFFF8
1FFFF8
0FFFF0
07FFF0
03FFF0
01FFE0
00FFE0
003FC0
000780
ENDCHAR
STARTCHAR uniF0A9
ENCODING 61609
SWIDTH 750 0
DWIDTH 35 0
BBX 21 34 0 0
BITMAP
000FC0
007FC0
00FFE0
03FFE0
07FFE0
0FFFE0
1FFFF0
1FFFF0
3FFFF0
3FFFF0
7FFFF8
7FFFF8
7FFFF8
FFFFF8
FFFFF8
FFFFF8
FFFFF8
FFFFF8
FFFFF8
FFFFF8
FFFFF8
7FFFF8
7FFFF8
7FFFF8
3FFFF0
3FFFF0
1FFFF0
0FFFF0
07FFF0
03FFE0
01FFE0
00FFE0
003FC0
0007C0
ENDCHAR
STARTCHAR uniF0AA
ENCODING 61610
SWIDTH 750 0
DWIDTH 35 0
BBX 17 35 0 0
BITMAP
000080
001F80
007F80
01FF80
03FF80
07FF80
0FFF80
1FFF80
1FFF80
3FFF80
3FFF80
7FFF80
7FFF80
FFFF80
FFFF80
FFFF80
FFFF80
FFFF80
FFFF80
FFFF80
FFFF80
FFFF80
7FFF80
7FFF80
7FFF80
3FFF80
3FFF80
1FFF80
0FFF80
07FF80
07FF80
01FF80
00FF80
003F80
000780
ENDCHAR
STARTCHAR uniF0AB
ENCODING 61611
SWIDTH 750 0
DWIDTH 35 0
BBX 17 35 0 0
BITMAP
000080
001F80
007F80
01FF80
03FF00
07FF00
0FFF00
1FFF00
1FFF00
3FFF00
3FFE00
7FFE00
7FFE00
FFFE00
FFFE00
FFFE00
FFFE00
FFFE00
FFFE00
FFFE00
FFFE00
FFFE00
7FFE00
7FFE00
7FFE00
3FFE00
3FFE00
1FFF00
0FFF00
07FF00
03FF00
01FF00
00FF80
003F80
000780
ENDCHAR
STARTCHAR uniF0AC
ENCODING 61612
SWIDTH 750 0
DWIDTH 35 0
BBX 18 35 0 0
BITMAP
000040
000F80
007F80
00FF00
03FF00
07FE00
0FFE00
1FFE00
1FFC00
3FFC00
3FFC00
7FFC00
7FF800
7FF800
FFF800
FFF800
FFF800
FFF800
FFF800
FFF800
FFF800
FFF800
7FF800
7FF800
7FFC00
3FFC00
3FFC00
1FFC00
0FFC00
07FE00
03FE00
01FF00
00FF00
003F80
000780
ENDCHAR
STARTCHAR uniF0AD
ENCODING 61613
SWIDTH 750 0
DWIDTH 35 0
BBX 17 35 0 0
BITMAP
000080
001F00
007E00
01FC00
03FC00
07F800
0FF800
1FF000
1FF000
3FE000
7FE000
7FE000
7FC000
FFC000
FFC000
FFC000
FFC000
FFC000
FFC000
FFC000
FFC000
FFC000
7FC000
7FC000
7FE000
3FE000
3FE000
1FF000
0FF000
0FF000
07F800
01FC00
00FC00
003E00
000700
ENDCHAR
STARTCHAR uniF0AE
ENCODING 61614
SWIDTH 750 0
DWIDTH 35 0
BBX 17 35 0 0
BITMAP
000080
001F00
007C00
01F800
03F800
07F000
0FE000
1FE000
1FC000
3FC000
3F8000
7F8000
7F8000
FF0000
FF0000
FF0000
FF0000
FF0000
FF0000
FF0000
FF0000
FF0000
7F0000
7F8000
7F8000
3F8000
3F8000
1FC000
0FC000
07E000
03F000
01F000
00F800
003E00
000700
ENDCHAR
STARTCHAR uniF0AF
ENCODING 61615
SWIDTH 750 0
DWIDTH 35 0
BBX 17 34 0 0
BITMAP
000F80
007C00
00F000
03E000
07C000
0FC000
1F8000
1F0000
3F0000
3E0000
7E0000
7E0000
7C0000
FC0000
FC0000
FC0000
FC0000
FC0000
FC0000
FC0000
FC0000
7C0000
7E0000
7E0000
3E0000
3F0000
1F0000
0F8000
078000
03C000
01E000
00F000
003C00
000780
ENDCHAR
STARTCHAR uniF0B0
ENCODING 61616
SWIDTH 750 0
DWIDTH 35 0
BBX 18 35 0 0
BITMAP
000040
000F80
007800
00E000
03C000
078000
0F0000
0E0000
1C0000
3C0000
380000
780000
780000
700000
F00000
F00000
F00000
F00000
F00000
F00000
F00000
F00000
700000
780000
780000
3C0000
1C0000
1E0000
0E0000
070000
03C000
01E000
007000
003C00
000780
ENDCHAR
STARTCHAR uniF0B1
ENCODING 61617
SWIDTH 750 0
DWIDTH 35 0
BBX 35 35 0 0
BITMAP
0007FC0000
003FFF8000
00FFFFC000
01FFFFF000
03FC07F800
07E000FC00
0FC0407E00
1F00401F00
3E00400F00
3E00E00F80
7C00E007C0
7800E003C0
7801E003C0
F801F003E0
F001F001E0
F001F001E0
F003F801E0
F003F801E0
F003F801E0
F007F801E0
F007FC01E0
F807FC03E0
7807FC03C0
780FFE03C0
7C0FFE07C0
3E0F1E0F80
3F08020F00
1F00001F00
0FC0007E00
07E000FC00
03FC07F800
01FFFFF000
00FFFFC000
003FFF8000
0007FC0000
ENDCHAR
STARTCHAR uniF0B2
ENCODING 61618
SWIDTH 1407 0
DWIDTH 65 0
BBX 65 65 0 -15
BITMAP
000000000780000000
000000000780000000
000000000780000000
000000000780000000
000000000780000000
000000000780000000
000000000780000000
000007000780038000
00000F80030007C000
00000FC000000FC000
000007C000001F8000
0000038000003F0000
0000000000003E0000
000000001FE01C0000
000000007FF8000000
00000781FFFE000000
00003FFBFFFF000000
0000FFFFF03F800000
0003FFFFC00FC00000
0007FCFF8007C00000
000FE00FC003E00000
001F8007E001E00000
001F0001F001E00000
003E0001F001E07E00
003C0000F801F0FF80
007C00007801F0FF80
007C00007F01F0FF00
01F800007FE1E07E00
07F800007FF9E00000
0FF800003FFDE00000
1FE0000001FFE00000
3F000000003FC00000
7E000000001F800000
7C000000000F800000
780000000007800000
F80000000007C00000
F00000000003C00000
F00000000003C00000
F00000000003C00000
F00000000003C70000
F00000000007CF8000
F800000000078FC000
78000000000F87C000
7C000000000F838000
3E000000001F000000
3F800000007E000000
1FF0C1C083FE000000
0FF1E1E1C3FC000000
03F1E1E1E3F0000000
00F1E3E1C3C0000000
000003C00000000000
000001C00000000000
000380038000000000
0007C0078000000000
000787078000000000
000787878000000000
000387878000000000
000003000000000000
000000000000000000
00000C000000000000
00001E000000000000
00001E000000000000
00001E000000000000
00001E000000000000
00000C000000000000
ENDCHAR
STARTCHAR uniF0B3
ENCODING 61619
SWIDTH 1122 0
DWIDTH 52 0
BBX 51 51 0 -15
BITMAP
000000000FC000
000000007FF800
00000FE0FFFC00
00007FFDFFFE00
0001FFFFF03F00
0003FFFFC00F80
0007F01FC007C0
000FC007E003C0
001F8003F003C0
001F0000F001E0
003E0000F801E0
003E00007801E0
003C00003801E0
00FC00003F81E0
03FC00003FE1E0
07FC00003FFBE0
1FF800003FFFC0
3F80000000FFC0
3E000000003F80
7C000000001F00
78000000000F00
F8000000000F80
F0000000000780
F0000000000780
F0000000000780
F0000000000780
F0000000000780
F8000000000F80
78000000000F00
7C000000001F00
3E000000003E00
3F800000007E00
1FE0C1C0C3FC00
0FE1E1E1E3F800
03E1E3E1E3F000
00E0E3C0E38000
000003C0000000
000003C0000000
00018001800000
0003C003C00000
0003C703C00000
0007C783C00000
0007C783C00000
00038703800000
00000000000000
00000000000000
00000E00000000
00001E00000000
00001E00000000
00001E00000000
00000E00000000
ENDCHAR
STARTCHAR uniF0B4
ENCODING 61620
SWIDTH 1136 0
DWIDTH 52 0
BBX 52 54 0 -15
BITMAP
000000001FF800
000000007FF800
00000000FFF800
00000003FFF000
00000103F0F000
00003FFFC0F000
0000FFFF80F800
0003FFFF807800
0007FFFF807800
000FE00FC07C00
001F8007E03E00
001F0003F03F00
003E0001F01FC0
003C0000F80FF0
007C00007807F0
007C00007F01F0
01F800007FE1E0
07F800007FFBE0
0FF800003FFFC0
1FE0000003FFC0
3F000000003F80
7E000000001F00
7C000000000F80
78000000000780
F8000000000780
F00000000003C0
F00000000003C0
F00000000003C0
F00000000003C0
F00000000007C0
F8000000000780
78000000000F80
7C000000000F80
3E000000001F00
3F800000007E00
1FF0C1C083FC00
0FF1E1E1C3F800
03F1E1E1E3F000
00F1E3E1C3C000
000003C0000000
000001C0000000
00038003800000
0007C007800000
00078707800000
00078787800000
00038787800000
00000300000000
00000000000000
00000C00000000
00001E00000000
00001E00000000
00001E00000000
00001E00000000
00000C00000000
ENDCHAR
STARTCHAR uniF0B5
ENCODING 61621
SWIDTH 1136 0
DWIDTH 52 0
BBX 50 50 0 -15
BITMAP
00000300000000
00003FF8000000
0000FFFE000000
0003FFFF000000
0007FEFF800000
000FE00FC00000
001F8007E00000
001F0003F00000
003E0001F00000
003C0000F80000
007C0000780000
007C00007E0000
01F800007FE000
07F800007FF800
0FF800003FFC00
1FE0000003FE00
3F000000003F00
7E000000001F00
7C000000000F80
78000000000780
F80000000007C0
F00000000003C0
F00000000003C0
F00000000003C0
F00000000003C0
F00000000007C0
F8000000000780
78000000000780
7C000000000F80
3E000000001F00
3F800000007F00
1FF080C083FE00
0FF1E1E1C3FC00
03F1E1E1E3F000
00F1E3E1C3C000
000003C0000000
000001C0000000
00038003800000
0007C007800000
00078707800000
00078787800000
00078787800000
00000300000000
00000000000000
00000C00000000
00001E00000000
00001E00000000
00001E00000000
00001E00000000
00000C00000000
ENDCHAR
STARTCHAR uniF0B6
ENCODING 61622
SWIDTH 1106 0
DWIDTH 51 0
BBX 51 40 0 0
BITMAP
000000C0000000
000001E0000000
000001E0000000
000001E0000000
000001E0000000
000001E0000000
000001E0000000
00E001E0006000
01F000C000F000
01F8000001F000
00FC000003E000
007C000007C000
003E0000078000
001C0000070000
000007F8000000
00001FFF000000
00007FFF800000
0000FFFFC00000
0001FC0FE00000
0001F003F00000
0003E001F80000
0003C000F80000
0007C0007C0000
7F0780003C1FC0
FF8780003C3FE0
FF8780003C3FE0
7F000000001FC0
00000000000000
00000000000000
00FFFF1C7FE000
01FFFFBCFFF000
01FFFFBCFFF000
00FFFF1C7FE000
00000000000000
00000000000000
00000000000000
0018FFF1FC0000
003CFFF3FE0000
003CFFF3FE0000
0018FFF1FC0000
ENDCHAR
STARTCHAR uniF0B7
ENCODING 61623
SWIDTH 1049 0
DWIDTH 48 0
BBX 48 32 0 0
BITMAP
000000007800
00000000FC00
00000001FE00
000000000E00
000000000E00
FFFFFFFFFE00
FFFFFFFFFC00
FFFFFFFFF800
000000000000
000000000000
7FFFFFF00000
FFFFFFFC0000
FFFFFFFE0000
0000000E03F0
0000000E07FC
0000008E1FFE
000001FE1FFE
000001FC3F3F
000000F87E1F
000000007C1F
000000007C1F
00000000F81F
00000000F81F
00000000F81F
00000000F83E
00000000F83E
00000000F87E
00000000FCFC
000000007FFC
000000007FF8
000000003FF0
000000000FC0
ENDCHAR
STARTCHAR uniF0B8
ENCODING 61624
SWIDTH 971 0
DWIDTH 45 0
BBX 41 32 0 0
BITMAP
000000007800
00000001FC00
00000001FE00
000000008E00
000000000E00
7FFFFFFFFE00
FFFFFFFFFC00
FFFFFFFFF800
000000000000
000000000000
FFFFFFF00000
FFFFFFFC0000
FFFFFFFE0000
0000000E1F80
0000000E1F80
0000008E1F00
000001FE3F00
000001FC3F00
000000783F00
000000003F00
000000007E00
000000007E00
000000007E00
000000007E00
000000007C00
00000000FC00
00000000FC00
00000000FC00
00000000FC00
00000000F800
00000001F800
00000001F800
ENDCHAR
STARTCHAR uniF0B9
ENCODING 61625
SWIDTH 1057 0
DWIDTH 49 0
BBX 48 32 0 0
BITMAP
000000007800
00000000FC00
00000001FE00
000000008E00
000000000E00
FFFFFFFFFE00
FFFFFFFFFC00
FFFFFFFFF800
000000000000
000000000000
7FFFFFF00000
FFFFFFFC0000
FFFFFFFE0000
0000000E03F0
0000000E0FFC
0000008E1FFE
000001FE3FFF
000001FC3E3F
000000787C1F
000000007C1F
00000000001F
00000000007E
0000000000FE
0000000007FC
000000001FF0
000000003FC0
000000007F00
00000000FFFE
00000000FFFE
00000001FFFC
00000001FFFC
00000001FFFC
ENDCHAR
STARTCHAR uniF0BA
ENCODING 61626
SWIDTH 1047 0
DWIDTH 48 0
BBX 48 32 0 0
BITMAP
000000007800
00000000FE00
00000000FF00
000000000700
000000000700
7FFFFFFFFF00
7FFFFFFFFE00
7FFFFFFFF800
000000000000
000000000000
7FFFFFF00000
FFFFFFFC0000
FFFFFFFE0000
0000000E03F8
0000000E07FE
0000008E1FFE
000001FE1FFF
000001FC3F1F
000000F83E1F
00000000001F
00000000003E
0000000000FC
0000000000F8
0000000001FC
00000000003E
00000000F83E
00000000F83E
00000000FC7E
00000000FFFE
000000007FFC
000000003FF8
000000000FE0
ENDCHAR
STARTCHAR uniF0BB
ENCODING 61627
SWIDTH 1052 0
DWIDTH 48 0
BBX 48 32 0 0
BITMAP
000000007800
00000000FC00
00000001FE00
000000008E00
000000000E00
FFFFFFFFFE00
FFFFFFFFFC00
FFFFFFFFF800
000000000000
000000000000
FFFFFFF00000
FFFFFFFC0000
FFFFFFFE0000
0000000E001F
0000000E003F
0000008E007F
000001FE01FF
000001FC03FE
0000007807FE
000000000FBE
000000001F3E
000000003E7E
000000007C7C
00000000F87C
00000000FFFF
00000000FFFF
00000000FFFF
00000000FFFF
0000000000F8
0000000000F8
0000000001F8
0000000001F8
ENDCHAR
STARTCHAR uniF0BC
ENCODING 61628
SWIDTH 1053 0
DWIDTH 48 0
BBX 48 32 0 0
BITMAP
000000007800
00000000FC00
00000001FE00
000000008E00
000000000E00
FFFFFFFFFE00
FFFFFFFFFC00
FFFFFFFFF800
000000000000
000000000000
FFFFFFF00000
FFFFFFFC0000
FFFFFFFE0000
0000000E0FFF
0000000E1FFF
0000008E1FFF
000001FE1FFF
000001FC3FFF
000000783E00
000000003FF0
000000003FF8
000000007FFC
000000007FFE
000000007C7E
00000000003E
00000000003E
00000000F03E
00000000F87C
00000000FFFC
000000007FF8
000000007FF0
000000001FC0
ENDCHAR
STARTCHAR uniF0BD
ENCODING 61629
SWIDTH 1058 0
DWIDTH 49 0
BBX 49 32 0 0
BITMAP
00000000700000
00000000FC0000
00000001FE0000
000000000E0000
000000000E0000
FFFFFFFFFE0000
FFFFFFFFFC0000
FFFFFFFFF80000
00000000000000
00000000000000
7FFFFFF0000000
FFFFFFFC000000
FFFFFFFC000000
0000001E01FC00
0000000E07FE00
0000000E0FFF00
0000019E1FFF80
000001FC3F0F80
000000FC7E0F80
000000707CF800
000000007FFC00
00000000FFFE00
00000000FFFF00
00000000FC3F00
00000000F81F00
00000000F81F00
00000000F81F00
00000000FC3E00
000000007FFE00
000000007FFC00
000000003FF800
000000000FE000
ENDCHAR
STARTCHAR uniF0BE
ENCODING 61630
SWIDTH 1067 0
DWIDTH 49 0
BBX 49 32 0 0
BITMAP
00000000780000
00000000FC0000
00000001FE0000
000000000E0000
000000000E0000
7FFFFFFFFE0000
FFFFFFFFFC0000
7FFFFFFFF80000
00000000000000
00000000000000
FFFFFFF0000000
FFFFFFFC000000
FFFFFFFE000000
0000000E1FFF80
0000000E1FFF80
0000008E3FFF80
000001FE3FFF80
000001FC3FFF80
00000078003E00
00000000007C00
0000000000FC00
0000000001F800
0000000003F000
0000000003E000
0000000007E000
000000000FC000
000000000FC000
000000001F8000
000000001F8000
000000001F8000
000000003F0000
000000003F0000
ENDCHAR
STARTCHAR uniF0BF
ENCODING 61631
SWIDTH 1051 0
DWIDTH 48 0
BBX 49 32 0 0
BITMAP
00000000F00000
00000001FC0000
00000001FE0000
000000000E0000
000000000E0000
FFFFFFFFFC0000
FFFFFFFFFC0000
FFFFFFFFF00000
00000000000000
00000000000000
7FFFFFF0000000
FFFFFFFC000000
FFFFFFFC000000
0000001E03F800
0000000E0FFE00
0000000E3FFF00
0000019E3FFF80
000001FC7E1F80
000001FC7C0F80
000000707C0F80
000000007E1F00
000000003FFE00
000000001FF800
000000007FFE00
00000000F83F00
00000001F01F00
00000001F01F00
00000001F83F00
00000001FFFE00
00000000FFFE00
000000007FFC00
000000001FE000
ENDCHAR
STARTCHAR uniF0C0
ENCODING 61632
SWIDTH 1041 0
DWIDTH 48 0
BBX 48 32 0 0
BITMAP
000000007800
00000000FC00
00000001FE00
000000000E00
000000000E00
7FFFFFFFFE00
FFFFFFFFFC00
FFFFFFFFF800
000000000000
000000000000
7FFFFFF00000
FFFFFFFC0000
FFFFFFFE0000
0000000E03F0
0000000E0FF8
0000008E1FFC
000001FE3FFE
000001FC3E3F
000000787C1F
000000007C1F
000000007C1F
000000007E3F
000000007FFF
000000003FFF
000000001FFE
00000000073E
00000000007E
00000000F8FC
00000000FFFC
000000007FF8
000000007FF0
000000001FC0
ENDCHAR
STARTCHAR uniF0C1
ENCODING 61633
SWIDTH 1242 0
DWIDTH 57 0
BBX 57 32 0 0
BITMAP
0000000078000000
00000000FC000000
00000001FE000000
000000008E000000
000000000E000000
7FFFFFFFFE000000
FFFFFFFFFC000000
7FFFFFFFF8000000
0000000000000000
0000000000000000
7FFFFFF000000000
FFFFFFFC00000000
FFFFFFFE00000000
0000000E1F81F800
0000000E1F87FE00
0000008E1F0FFF00
000001FE3F0FFF00
000001FC3F1F9F80
000000F83F3F0F80
000000003F3E0F80
000000007E3E0F80
000000007E7C0F80
000000007E7C0F80
000000007E7C0F80
000000007C7C1F00
00000000FC7C1F00
00000000FC7C3F00
00000000FC7E7E00
00000000FC3FFE00
00000000F83FFC00
00000001F81FF800
00000001E007E000
ENDCHAR
STARTCHAR uniF0C2
ENCODING 61634
SWIDTH 1083 0
DWIDTH 50 0
BBX 50 32 0 0
BITMAP
00000000780000
00000001FC0000
00000001FE0000
000000008E0000
000000000E0000
7FFFFFFFFE0000
FFFFFFFFFC0000
FFFFFFFFF80000
00000000000000
00000000000000
FFFFFFF0000000
FFFFFFFC000000
FFFFFFFE000000
0000000E1F8FC0
0000000E1F8FC0
0000008E1F0F80
000001FE3F1F80
000001FC3F1F80
000000783F1F80
000000003F1F80
000000007E3F00
000000007E3F00
000000007E3F00
000000007E3F00
000000007E3F00
00000000FC7E00
00000000FC7E00
00000000FC7E00
00000000FC7E00
00000000F87C00
00000001F8FC00
00000001F8FC00
ENDCHAR
STARTCHAR uniF0C3
ENCODING 61635
SWIDTH 1251 0
DWIDTH 58 0
BBX 57 32 0 0
BITMAP
0000000078000000
00000001FC000000
00000001FE000000
000000008E000000
000000000E000000
7FFFFFFFFE000000
FFFFFFFFFC000000
FFFFFFFFF8000000
0000000000000000
0000000000000000
FFFFFFF000000000
FFFFFFFC00000000
FFFFFFFC00000000
0000000E1F81F800
0000000E1F87FE00
0000008E1F0FFF00
000001FE3F1FFF80
000001FC3F1F1F80
000000F03F3E0F80
000000003F3E0F80
000000007E000F80
000000007E003F00
000000007E007F00
000000007E01FE00
000000007E07FC00
00000000FC1FF000
00000000FC3F8000
00000000FC7FFF00
00000000FC7FFF00
00000000F8FFFE00
00000001F8FFFE00
00000001F8FFFE00
ENDCHAR
STARTCHAR uniF0C4
ENCODING 61636
SWIDTH 1322 0
DWIDTH 61 0
BBX 61 50 0 0
BITMAP
0000000030000000
0000000078000000
0000000078000000
0000000078000000
0000000078000000
0000000078000000
0000000078000000
0000300078001800
0000780030003C00
00007C0000007C00
00003E000000F800
00001F000001F000
00000F000001E000
00000700FE01C000
00000007FF800000
0000000FFFE00000
0000003FFFF00000
0000007F03F80000
0000007C00FC0000
000000F8007E0000
000000F0003E0000
000001F0001E0000
000001E0000F0000
001FC1E0000F07F0
003FE1E0000F0FF8
003FE000000F0FF8
001FC000000F07F0
00000000000F0000
00000000001F0000
00000000001E0000
00000000003E0000
7FFFFFC0007C0000
FFFFFFE000FC0000
FFFFFFE003F80000
7FFFFFC01FF00000
000000001FE00000
000000003F808000
000000003E01E000
07FFFFFC0001F000
0FFFFFFE0001F800
0FFFFFFC0000FC00
07FFFFFC30007C00
0000000078003C00
0000000078001800
0000000078000000
0000000078000000
3FFFFFE078000000
7FFFFFE078000000
7FFFFFE078000000
3FFFFFE030000000
ENDCHAR
STARTCHAR uniF0C5
ENCODING 61637
SWIDTH 1034 0
DWIDTH 48 0
BBX 48 43 -1 0
BITMAP
0000007FF800
00000FFFFF80
00003FFFFFE0
0000FF800FF8
0003F80001FE
000FC00003FD
001F000003C0
003E00038780
0078007FFF80
00F001FFFF80
01E007E01F80
03C01F003F80
07803C007FC0
07007000F800
0F00E000F000
0E01C000E000
1E038000F000
1C030003F000
1C00003FF800
380000FFFC00
380003FF0000
38000FF00000
78001F800000
70003E000000
70007C000000
700078000000
7000F0001C00
7001E0007E00
7001C000FF80
7001C003F7E0
70038007C1F0
7003801F80FC
7003803F007E
7003803F007E
380700170074
380700070070
380700070070
380700070070
1C0700070070
1C0700070070
FFFFFFFFFFFE
FFFFFFFFFFFF
FFFFFFFFFFFE
ENDCHAR
STARTCHAR uniF0C6
ENCODING 61638
SWIDTH 1015 0
DWIDTH 47 0
BBX 47 46 0 -5
BITMAP
000000030000
000000038000
001800038000
001C00078000
001C00078000
001C00078000
003C00078000
003C000F8000
003C000F8000
003C000F8000
003C000F8000
003E000F8000
007E001F8000
007E001D8000
007E0C1D8000
007E0C198000
006E1E398000
00661E398000
00E61F398000
00E71F39C000
00E71F31C000
00E71FF1C000
00C71BF1C000
01C71BF1C000
FFC739E1C7FC
FFC339E1CFFE
FF8339E1CFFC
0003B8E1CE00
0003B8C1DC00
0003B801DC00
0003B001DC00
0003B001DC00
0003F000F800
0001F000F800
0001F000F800
0001F000F800
0001F000F000
0001E000F000
0001E000F000
0001E000F000
0001E000E000
0000E000E000
0000E000E000
0000E000E000
0000E0000000
000040000000
ENDCHAR
STARTCHAR uniF0C7
ENCODING 61639
SWIDTH 794 0
DWIDTH 37 0
BBX 37 42 0 -3
BITMAP
0001800000
0003000000
0007000000
001F000000
003F000000
003F000000
007F010000
00FF818000
00FF81C000
00FFC1E000
01FFE1E000
01FFF1F000
01FFF9F800
01FFFDF800
01FFFFFC00
01FFFFFC00
01FFFFFC00
01FFFFFC00
11FFFFFE00
10FFFFFE00
18FFFFFE00
387FFFFC40
3E7FFFFC40
3FFFFFFC40
3FFFFFFCC0
3FFFFFFDE0
3FFFFFFFE0
3FFFFFFFC0
1FFFFFFFC0
1FFFFFFFC0
0FFFFFFF80
0FFFFFFF80
07FFFFFF00
0000000000
0000000000
0000000000
0000000000
7FFFFFFFF0
FFFFFFFFF0
FFFFFFFFF8
FFFFFFFFF0
7FFFFFFFF0
ENDCHAR
STARTCHAR uniF0C8
ENCODING 61640
SWIDTH 803 0
DWIDTH 37 0
BBX 37 46 0 -3
BITMAP
0003E00000
0007F80000
000FFC0000
001FFC0000
001FFE0000
007FFFC000
00FFFFE000
01FFFFF000
01FFFFF000
01FFFFF000
01FFFFF000
00FFFFE000
00FFFFC000
003FFFC000
0003FF8000
0001FF0000
0003FE0000
0003FE0000
0001F80000
0000780000
0000780000
0000780000
0000000000
0000EC0000
0001DC0000
00019E0000
0003BE0000
00073F0000
00073F8000
000F1F8000
000F1FC000
001F8FE000
007F8FE000
00FFC7F000
01FFC3F800
07FFE1FC00
0FFFF0FE00
0FFFF07F00
1FFFF07F80
1FFFF07FC0
3FFFF07FE0
7FFFE07FE0
7FFF807FF0
FFFF00FFF8
FFFC01FFF8
7FE003FFF0
ENDCHAR
STARTCHAR uniF0C9
ENCODING 61641
SWIDTH 756 0
DWIDTH 35 0
BBX 35 34 0 0
BITMAP
0007F80000
003FF80000
007FF80000
01FFF80000
03FC3C0000
07F03C0000
0FC03C0000
1F803E0000
1F001E0000
3E001F0000
3E000F8000
7C000FC000
7C0007E000
FC0003F800
F80001FFE0
F800007FE0
F800003FE0
F8000007E0
F8000001E0
F8000001E0
F8000001E0
7C000003E0
7C00C003C0
7E01E007C0
0003F00000
0007F80000
000FFE0000
001FFF0000
003FFF8000
3FFF3FFF80
7FFE0FFFC0
7FFC07FFC0
7FF803FFC0
3FF001FF80
ENDCHAR
STARTCHAR uniF0CA
ENCODING 61642
SWIDTH 756 0
DWIDTH 35 0
BBX 35 41 0 -7
BITMAP
0007F80000
003FF80000
007FF80000
01FFF80000
03FC3C0000
07F03C0000
0FC03C0000
1F803E0000
1F001E0000
3E001F0000
3E000F8000
7C000FC000
7C0007E000
FC0003F800
F80001FFE0
F800007FE0
F800003FE0
F8000007E0
F8000001E0
F8000001E0
F8000001E0
7C000003E0
7C000003E0
7E000007C0
0000000000
0000000000
0000000000
0000000000
0000000000
3FF003FF80
7FF807FF80
7FFC0FFFC0
7FFE1FFFC0
3FFF3FFF80
003FFF0000
001FFE0000
000FFC0000
0007F80000
0003F00000
0001E00000
0000C00000
ENDCHAR
STARTCHAR uniF0CB
ENCODING 61643
SWIDTH 1120 0
DWIDTH 52 0
BBX 49 50 1 -4
BITMAP
00000000600000
00000001F80000
00000003FC0000
00000003FC0000
0000001FFF0000
0000003FFF8000
0000003FFF8000
0000003FFF8000
0000003FFF8000
0000001FFF0000
0000001FF00000
0000000FF00000
00000007F00000
00000003F00000
00000001C00000
00000001C00000
00000000000000
00000000000000
00000007F00000
00000007F00000
00000007F00000
00000003E00000
FFFFE003E00000
FFFFE003E00000
7FFF8003E00000
7FFF8003E00000
781F8003E00000
700F81C3E00000
700F83C3E00000
700FFFFFFF0000
700FFFFFFF8000
700FFFFFFF8000
700FFFFFFF8000
700FFFFFFF8000
781FFFFFFF8000
7FFFFFFFFF8000
7FFFFFFFFF8000
7FFFFFFFFF8000
7FFFFFFFFF8000
7FFFFFFFFFC000
7FFFFFFFFFE000
3FFFFFFFFFE000
1FFFFFFFFFF000
1FFDFFFFFBF800
1FFDFFFFFBFC00
1FFDFFFFFBFC00
1FFDFFFFFBFE00
0FF8FF9FF3FF00
07F07F0FF3FF80
03E03E03C3FF80
ENDCHAR
STARTCHAR uniF0CC
ENCODING 61644
SWIDTH 540 0
DWIDTH 25 0
BBX 25 42 0 -7
BITMAP
C0000000
CE000000
CF800000
CFE00000
CFFC0000
CFFF0000
CFFFC000
CFFFF800
CFFFFE00
CFFFFF80
CFFFFC00
CFFFF000
CFFFC000
CFFE0000
CFF80000
CFE00000
CF000000
CC000000
C0000000
C0000000
C0000000
C0000000
C0000000
C0000000
C0000000
C0000000
C0000000
C0000000
C0000000
C0000000
C0000000
C0000000
C0000000
C0000000
C0000000
C0000000
C0000000
C0000000
C0000000
C0000000
C0000000
C0000000
ENDCHAR
STARTCHAR uniF0CD
ENCODING 61645
SWIDTH 450 0
DWIDTH 21 0
BBX 25 42 0 -7
BITMAP
C0000000
CE000000
CF800000
CFE00000
CFFC0000
CFFF0000
CFFFC000
CFFFF800
CFFFFE00
CFFFFF80
CFFFFC00
CFFFF000
CFFFC000
CFFE0000
CFF80000
CFE00000
CF000000
CC000000
C0000000
CC000000
CF000000
CFE00000
CFF80000
CFFE0000
CFFFC000
CFFFF000
CFFFFE00
CFFFFF80
CFFFFE00
CFFFF000
CFFFC000
CFFF0000
CFF80000
CFE00000
CF800000
CC000000
C0000000
C0000000
C0000000
C0000000
C0000000
C0000000
ENDCHAR
STARTCHAR uniF0CE
ENCODING 61646
SWIDTH 545 0
DWIDTH 25 0
BBX 25 41 0 -7
BITMAP
E7FFFF80
E7FFFF80
E7FFFF80
E7FFFF80
E7FFFF80
E7E01F80
E7E01F80
E7E01F80
E7E01F80
E7E01F80
E7FFFF80
E7FFFF80
E7FFFF80
E7FFFF80
E7FFFF80
E0000000
E0000000
E0000000
E0000000
E0000000
E0000000
E0000000
E0000000
E0000000
E0000000
E0000000
E0000000
E0000000
E0000000
E0000000
E0000000
E0000000
E0000000
E0000000
E0000000
E0000000
E0000000
E0000000
E0000000
E0000000
E0000000
ENDCHAR
STARTCHAR uniF0CF
ENCODING 61647
SWIDTH 750 0
DWIDTH 35 0
BBX 25 41 0 -7
BITMAP
E7FFFF80
E7FFFF80
E7FFFF80
E7FFFF80
E7FFFF80
E7E01F80
E7E01F80
E7E01F80
E7E01F80
E7E01F80
E7FFFF80
E7FFFF80
E7FFFF80
E7FFFF80
E7FFFF80
E0000000
E0000000
E7FFFF80
E7FFFF80
E7FFFF80
E7FFFF80
E7FFFF80
E7E01F80
E7E01F80
E7E01F80
E7E01F80
E7E01F80
E7E01F80
E7FFFF80
E7FFFF80
E7FFFF80
E7FFFF80
E7FFFF80
E0000000
E0000000
E0000000
E0000000
E0000000
E0000000
E0000000
E0000000
ENDCHAR
STARTCHAR uniF0D0
ENCODING 61648
SWIDTH 750 0
DWIDTH 35 0
BBX 35 35 0 0
BITMAP
0007F80000
003FFF0000
00FFF3C000
01FFFCF000
03FFFE3800
07FFFF1C00
0FFFFF8E00
1FFFFF8700
3FFFFFC300
3FFFFFC180
7FFFFFE180
7FFFFFE0C0
7FFFFFE0C0
FFFFFFF0E0
FFFFFFF060
FFFFFFF060
FFFFFFF060
FFFFFFF060
FFFFFFF060
FFFFFFF060
FFFFFFF060
FFFFFFF0E0
7FFFFFF0C0
7FFFFFE0C0
7FFFFFE180
3FFFFFE180
3FFFFFC300
1FFFFFC700
0FFFFF8E00
07FFFF1C00
03FFFE3800
01FFFCF000
00FFFBC000
003FFF0000
0007F80000
ENDCHAR
STARTCHAR uniF0D1
ENCODING 61649
SWIDTH 750 0
DWIDTH 35 0
BBX 35 35 0 0
BITMAP
0007F80000
003FFF0000
00FFE3C000
01FFF0F000
03FFF83800
07FFFC1C00
0FFFFE0E00
1FFFFE0700
3FFFFF0300
3FFFFF0180
7FFFFF8180
7FFFFF80C0
7FFFFF80C0
FFFFFFC0C0
FFFFFFC060
FFFFFFC060
FFFFFFC060
FFFFFFC060
FFFFFFC060
FFFFFFC060
FFFFFFC060
FFFFFFC0E0
7FFFFFC0C0
7FFFFF80C0
7FFFFF8180
3FFFFF8180
3FFFFF0300
1FFFFF0700
0FFFFE0E00
07FFFE1C00
03FFFC3800
01FFF8F000
00FFF7C000
003FFF0000
0007F80000
ENDCHAR
STARTCHAR uniF0D2
ENCODING 61650
SWIDTH 750 0
DWIDTH 35 0
BBX 35 35 0 0
BITMAP
0007F80000
003FFF0000
00FFE3C000
01FFF0F000
03FFF83800
07FFF81C00
0FFFFC0E00
1FFFFE0700
3FFFFE0300
3FFFFF0180
7FFFFF01C0
7FFFFF00C0
7FFFFF00C0
FFFFFF80E0
FFFFFF8060
FFFFFF8060
FFFFFF8060
FFFFFF8060
FFFFFF8060
FFFFFF8060
FFFFFF8060
FFFFFF80E0
7FFFFF80C0
7FFFFF00C0
7FFFFF01C0
3FFFFF0180
3FFFFE0300
1FFFFE0700
0FFFFE0E00
07FFFC1C00
03FFF83800
01FFF0F000
00FFE3C000
003FFF0000
0007F80000
ENDCHAR
STARTCHAR uniF0D3
ENCODING 61651
SWIDTH 856 0
DWIDTH 39 0
BBX 35 35 0 0
BITMAP
0007F80000
003FFF0000
00FFC7C000
01FFE0F000
03FFE03800
07FFF01C00
0FFFF00E00
1FFFF80700
3FFFF80300
3FFFFC0180
7FFFFC0180
7FFFFC00C0
7FFFFE00C0
FFFFFE00E0
FFFFFE0060
FFFFFE0060
FFFFFE0060
FFFFFE0060
FFFFFE0060
FFFFFE0060
FFFFFE0060
FFFFFE00E0
7FFFFE00C0
7FFFFC00C0
7FFFFC0180
3FFFFC0180
3FFFFC0300
1FFFF80700
0FFFF80E00
07FFF01C00
03FFF03800
01FFE0F000
00FFC7C000
003FFF0000
0007F80000
ENDCHAR
STARTCHAR uniF0D4
ENCODING 61652
SWIDTH 750 0
DWIDTH 35 0
BBX 35 35 0 0
BITMAP
0007FC0000
003FFF8000
007FC7C000
01FFE0F000
03FFE03800
07FFE01C00
0FFFF00E00
1FFFF00700
1FFFF80300
3FFFF80180
7FFFF801C0
7FFFF800C0
7FFFFC00C0
FFFFFC00E0
FFFFFC0060
FFFFFC0060
FFFFFC0060
FFFFFC0060
FFFFFC0060
FFFFFC0060
FFFFFC0060
FFFFFC00E0
7FFFFC00C0
7FFFFC00C0
7FFFF801C0
3FFFF80180
1FFFF80300
1FFFF80700
0FFFF00E00
07FFF01C00
03FFE03800
01FFE0F000
00FFC7E000
003FFF8000
0007FC0000
ENDCHAR
STARTCHAR uniF0D5
ENCODING 61653
SWIDTH 750 0
DWIDTH 35 0
BBX 35 35 0 0
BITMAP
0007F80000
003FFF0000
00FF87C000
01FFC0F000
03FFC03800
07FFC01C00
0FFFE00E00
1FFFE00700
3FFFE00300
3FFFE00180
7FFFE00180
7FFFF000C0
7FFFF000C0
FFFFF000E0
FFFFF00060
FFFFF00060
FFFFF00060
FFFFF00060
FFFFF00060
FFFFF00060
FFFFF00060
FFFFF000E0
7FFFF000C0
7FFFF000C0
7FFFF00180
3FFFE00180
3FFFE00300
1FFFE00700
0FFFE00E00
07FFE01C00
03FFC03800
01FFC0F000
00FF87C000
003FFF0000
0007F80000
ENDCHAR
STARTCHAR uniF0D6
ENCODING 61654
SWIDTH 750 0
DWIDTH 35 0
BBX 35 35 0 0
BITMAP
0007F80000
003FFF0000
00FF87C000
01FF80F000
03FF803800
07FF801C00
0FFF800E00
1FFF800700
3FFF800300
3FFF800180
7FFF800180
7FFF8000C0
7FFF8000C0
FFFF8000E0
FFFF800060
FFFF800060
FFFF800060
FFFF800060
FFFF800060
FFFF800060
FFFF800060
FFFF8000E0
7FFF8000C0
7FFF8000C0
7FFF800180
3FFF800180
3FFF800300
1FFF800700
0FFF800E00
07FF801C00
03FF803800
01FF80F000
00FF87C000
003FFF0000
0007FC0000
ENDCHAR
STARTCHAR uniF0D7
ENCODING 61655
SWIDTH 750 0
DWIDTH 35 0
BBX 35 35 0 0
BITMAP
0007FC0000
003FFF8000
007F87C000
01FF80F000
03FF003800
07FF001C00
0FFF000E00
1FFF000700
1FFF000300
3FFF000180
7FFE0001C0
7FFE0000C0
7FFE0000C0
FFFE0000E0
FFFE000060
FFFE000060
FFFE000060
FFFE000060
FFFE000060
FFFE000060
FFFE000060
FFFE0000E0
7FFE0000C0
7FFE0000C0
7FFE0001C0
3FFE000180
1FFF000300
1FFF000700
0FFF000E00
07FF001C00
03FF003800
01FF00F000
007F87C000
003FFF8000
0007F80000
ENDCHAR
STARTCHAR uniF0D8
ENCODING 61656
SWIDTH 750 0
DWIDTH 35 0
BBX 35 35 0 0
BITMAP
0003FC0000
001FFF8000
007F87E000
01FF00F000
03FF003800
07FE001C00
0FFE000E00
1FFE000700
1FFC000300
3FFC000180
7FFC0001C0
7FFC0000C0
7FF80000C0
FFF80000E0
FFF8000060
FFF8000060
FFF8000060
FFF8000060
FFF8000060
FFF8000060
FFF8000060
FFF80000E0
7FF80000C0
7FF80000C0
3FFC0001C0
3FFC000180
1FFC000380
1FFC000700
0FFE000E00
07FE001C00
03FE003800
01FF00F000
007F07E000
001FFF8000
0003FC0000
ENDCHAR
STARTCHAR uniF0D9
ENCODING 61657
SWIDTH 750 0
DWIDTH 35 0
BBX 35 35 0 0
BITMAP
0007F80000
003FFF0000
00FE07C000
01FE00F000
03FC003800
07F8001C00
0FF8000E00
1FF0000700
3FF0000300
3FE0000180
7FE0000180
7FE00000C0
7FC00000C0
FFC00000E0
FFC0000060
FFC0000060
FFC0000060
FFC0000060
FFC0000060
FFC0000060
FFC0000060
FFC00000E0
7FC00000C0
7FE00000C0
7FE0000180
3FE0000180
3FE0000300
1FF0000700
0FF0000E00
07F8001C00
03F8003800
01FC00F000
00FE07C000
003FFF0000
0007F80000
ENDCHAR
STARTCHAR uniF0DA
ENCODING 61658
SWIDTH 750 0
DWIDTH 35 0
BBX 35 35 0 0
BITMAP
0007F80000
003FFF0000
00FE07C000
01FC00F000
03F8003800
07F0001C00
0FE0000E00
1FE0000700
3FC0000300
3FC0000180
7F800001C0
7F800000C0
7F800000C0
FF000000E0
FF00000060
FF00000060
FF00000060
FF00000060
FF00000060
FF00000060
FF00000060
FF000000E0
7F000000C0
7F800000C0
7F800001C0
3F80000180
3FC0000300
1FC0000700
0FE0000E00
07E0001C00
03F0003800
01F800F000
00FE07C000
003FFF0000
0007FC0000
ENDCHAR
STARTCHAR uniF0DB
ENCODING 61659
SWIDTH 750 0
DWIDTH 35 0
BBX 35 35 0 0
BITMAP
0007F80000
003FFF0000
00FC07C000
01F800F000
03E0003800
07C0001C00
0FC0000E00
1F80000700
3F00000300
3F00000180
7E000001C0
7E000000C0
7E000000C0
FC000000E0
FC00000060
FC00000060
FC00000060
FC00000060
FC00000060
FC00000060
FC00000060
FC000000E0
7C000000C0
7E000000C0
7E000001C0
3E00000180
3F00000300
1F00000700
0F80000E00
07C0001C00
03E0003800
01F000F000
00FC07C000
003FFF0000
0007F80000
ENDCHAR
STARTCHAR uniF0DC
ENCODING 61660
SWIDTH 750 0
DWIDTH 35 0
BBX 35 35 0 0
BITMAP
0007F80000
003FFF0000
00FC07C000
01F000F000
03C0003800
0780001C00
0F00000E00
1E00000700
3C00000300
3C00000180
78000001C0
78000000C0
78000000C0
F0000000E0
F000000060
F000000060
F000000060
F000000060
F000000060
F000000060
F000000060
F0000000E0
78000000C0
78000000C0
78000001C0
3C00000180
3C00000300
1E00000700
0F00000E00
0780001C00
03C0003800
01F000F000
00FC07C000
003FFF0000
0007F80000
ENDCHAR
STARTCHAR uniF0DD
ENCODING 61661
SWIDTH 750 0
DWIDTH 35 0
BBX 35 35 0 0
BITMAP
0007FC0000
003FFF8000
00FC07C000
01E000F000
0380003800
0700001C00
0E00000E00
1C00000700
1800000300
3000000180
70000001C0
60000000C0
60000000C0
E0000000E0
C000000060
C000000060
C000000060
C000000060
C000000060
C000000060
C000000060
E0000000E0
60000000C0
60000000C0
70000001C0
3000000180
3800000300
1C00000700
0E00000E00
0700001C00
0380003800
01E000F000
00FC07E000
003FFF8000
0007FC0000
ENDCHAR
STARTCHAR uniF0DE
ENCODING 61662
SWIDTH 750 0
DWIDTH 35 0
BBX 34 35 0 0
BITMAP
0007F80000
003FFF0000
00F80FC000
01E003E000
038001F000
070000F800
0C00007C00
1C00007E00
3800003F00
3000003F00
7000001F80
6000001F80
6000001F80
C000000FC0
C000000FC0
C000000FC0
C000000FC0
C000000FC0
C000000FC0
C000000FC0
C000000FC0
E000000FC0
6000000F80
6000001F80
7000001F80
3000001F00
3800003F00
1C00003E00
0C00007C00
070000F800
038001F000
01E003E000
00F807C000
003FFF0000
0007F80000
ENDCHAR
STARTCHAR uniF0DF
ENCODING 61663
SWIDTH 750 0
DWIDTH 35 0
BBX 34 35 0 0
BITMAP
0007F80000
003FFF0000
00F81FC000
01E00FE000
038007F000
070003F800
0E0001FC00
1C0001FE00
380000FF00
300000FF00
7000007F80
6000007F80
6000007F80
E000003FC0
C000003FC0
C000003FC0
C000003FC0
C000003FC0
C000003FC0
C000003FC0
C000003FC0
E000003FC0
6000003F80
6000007F80
7000007F80
3000007F00
380000FF00
1C0000FE00
0C0001FC00
070001F800
038003F000
01E007E000
00F80FC000
003FFF0000
0007F80000
ENDCHAR
STARTCHAR uniF0E0
ENCODING 61664
SWIDTH 750 0
DWIDTH 35 0
BBX 34 35 0 0
BITMAP
0007F80000
003FFF0000
00F83FC000
01E01FE000
03800FF000
070007F800
0C0007FC00
1C0003FE00
380003FF00
300001FF00
700001FF80
600001FF80
600001FF80
E00000FFC0
C00000FFC0
C00000FFC0
C00000FFC0
C00000FFC0
C00000FFC0
C00000FFC0
C00000FFC0
E00000FFC0
600000FF80
600001FF80
700001FF80
300001FF00
380001FF00
1C0003FE00
0C0003FC00
070007F800
038007F000
01E00FE000
00F81FC000
003FFF0000
0007F80000
ENDCHAR
STARTCHAR uniF0E1
ENCODING 61665
SWIDTH 750 0
DWIDTH 35 0
BBX 34 35 0 0
BITMAP
0007F80000
003FFF0000
00F83FC000
01E03FE000
03801FF000
07000FF800
0C000FFC00
1C000FFE00
380007FF00
300007FF00
700007FF80
600007FF80
600003FF80
E00003FFC0
C00003FFC0
C00003FFC0
C00003FFC0
C00003FFC0
C00003FFC0
C00003FFC0
C00003FFC0
E00003FFC0
600003FF80
600003FF80
700007FF80
300007FF00
380007FF00
1C0007FE00
0C000FFC00
07000FF800
03801FF000
01E01FE000
00F83FC000
003FFF0000
0007F80000
ENDCHAR
STARTCHAR uniF0E2
ENCODING 61666
SWIDTH 750 0
DWIDTH 35 0
BBX 34 35 0 0
BITMAP
0007F80000
003FFF0000
00F83FC000
01E01FE000
03801FF000
07001FF800
0C000FFC00
1C000FFE00
38000FFF00
30000FFF00
70000FFF80
600007FF80
600007FF80
E00007FFC0
C00007FFC0
C00007FFC0
C00007FFC0
C00007FFC0
C00007FFC0
C00007FFC0
C00007FFC0
E00007FFC0
600007FF80
600007FF80
700007FF80
30000FFF00
38000FFF00
1C000FFE00
0C000FFC00
07000FF800
03801FF000
01E01FE000
00F83FC000
003FFF0000
0007F80000
ENDCHAR
STARTCHAR uniF0E3
ENCODING 61667
SWIDTH 750 0
DWIDTH 35 0
BBX 34 35 0 0
BITMAP
0007F80000
003FFF0000
00F83FC000
01E03FE000
03803FF000
06003FF800
0C003FFC00
1C003FFE00
38001FFF00
30001FFF00
70001FFF80
60001FFF80
60001FFF80
E0001FFFC0
C0001FFFC0
C0001FFFC0
C0001FFFC0
C0001FFFC0
C0001FFFC0
C0001FFFC0
C0001FFFC0
E0001FFFC0
60001FFF80
60001FFF80
70001FFF80
30001FFF00
38001FFF00
1C003FFE00
0C003FFC00
06003FF800
03803FF000
01E03FE000
00F83FC000
003FFF0000
0007F80000
ENDCHAR
STARTCHAR uniF0E4
ENCODING 61668
SWIDTH 750 0
DWIDTH 35 0
BBX 35 35 0 0
BITMAP
0003FC0000
001FFF8000
007C3FE000
01E03FF000
03803FF800
07003FFC00
0E003FFE00
1C003FFF00
18003FFF80
30003FFF80
70003FFFC0
60003FFFC0
60003FFFC0
E0003FFFE0
C0003FFFE0
C0003FFFE0
C0003FFFE0
C0003FFFE0
C0003FFFE0
C0003FFFE0
C0003FFFE0
E0003FFFE0
60003FFFC0
60003FFFC0
30003FFFC0
30003FFF80
18003FFF80
1C003FFF00
0E003FFE00
07003FFC00
03803FF800
01E03FF000
007C3FE000
001FFF8000
0003FC0000
ENDCHAR
STARTCHAR uniF0E5
ENCODING 61669
SWIDTH 750 0
DWIDTH 35 0
BBX 35 35 0 0
BITMAP
0007F80000
003FFF0000
00FC7FC000
01E07FF000
03807FF800
07007FFC00
0E007FFE00
1C007FFF00
3800FFFF00
3000FFFF80
7000FFFF80
6000FFFFC0
6000FFFFC0
E000FFFFE0
C000FFFFE0
C000FFFFE0
C000FFFFE0
C000FFFFE0
C000FFFFE0
C000FFFFE0
C000FFFFE0
E000FFFFE0
6000FFFFC0
6000FFFFC0
7000FFFF80
3000FFFF80
3800FFFF00
1C00FFFF00
0E007FFE00
07007FFC00
03807FF800
01E07FF000
00FC7FC000
003FFF0000
0007FC0000
ENDCHAR
STARTCHAR uniF0E6
ENCODING 61670
SWIDTH 750 0
DWIDTH 35 0
BBX 34 35 0 0
BITMAP
0007F80000
003FFF0000
00F87FC000
01E0FFE000
0380FFF000
0600FFF800
0C01FFFC00
1801FFFE00
3801FFFF00
3001FFFF00
7003FFFF80
6003FFFF80
6003FFFF80
C003FFFFC0
C003FFFFC0
C003FFFFC0
C003FFFFC0
C003FFFFC0
C003FFFFC0
C003FFFFC0
C003FFFFC0
C003FFFFC0
6003FFFF80
6003FFFF80
7003FFFF80
3001FFFF00
3801FFFF00
1801FFFE00
0C01FFFC00
0601FFF800
0380FFF000
01C0FFE000
00F8FFC000
003FFF0000
0007F80000
ENDCHAR
STARTCHAR uniF0E7
ENCODING 61671
SWIDTH 750 0
DWIDTH 35 0
BBX 35 35 0 0
BITMAP
0007FC0000
003FFF0000
00FC7FC000
01E0FFF000
0380FFF800
0701FFFC00
0E01FFFE00
1C01FFFF00
3803FFFF00
3003FFFF80
7003FFFF80
6003FFFFC0
6007FFFFC0
E007FFFFE0
C007FFFFE0
C007FFFFE0
C007FFFFE0
C007FFFFE0
C007FFFFE0
C007FFFFE0
C007FFFFE0
E007FFFFE0
6007FFFFC0
6007FFFFC0
7003FFFF80
3003FFFF80
3803FFFF00
1C03FFFF00
0E01FFFE00
0701FFFC00
0381FFF800
01E0FFF000
00FC7FC000
003FFF8000
0007F80000
ENDCHAR
STARTCHAR uniF0E8
ENCODING 61672
SWIDTH 750 0
DWIDTH 35 0
BBX 34 34 0 1
BITMAP
0007F80000
003FFF0000
00F8FFC000
01C1FFE000
0783FFF000
0E03FFF800
0C07FFFC00
1C07FFFE00
3807FFFF00
300FFFFF00
700FFFFF80
600FFFFF80
601FFFFF80
C01FFFFFC0
C01FFFFFC0
C01FFFFFC0
C01FFFFFC0
C01FFFFFC0
C01FFFFFC0
C01FFFFFC0
C01FFFFFC0
601FFFFF80
601FFFFF80
601FFFFF80
300FFFFF00
300FFFFF00
180FFFFE00
0C07FFFC00
0E07FFFC00
0703FFF800
0183FFE000
00E1FFC000
003CFF0000
0007F80000
ENDCHAR
STARTCHAR uniF0E9
ENCODING 61673
SWIDTH 750 0
DWIDTH 35 0
BBX 34 35 0 0
BITMAP
0007F80000
003FFF0000
00F9FFC000
01C3FFE000
0387FFF000
060FFFF800
0C1FFFFC00
181FFFFE00
383FFFFF00
303FFFFF00
707FFFFF80
607FFFFF80
607FFFFF80
C0FFFFFFC0
C0FFFFFFC0
C0FFFFFFC0
C0FFFFFFC0
C0FFFFFFC0
C0FFFFFFC0
C0FFFFFFC0
C0FFFFFFC0
C0FFFFFFC0
60FFFFFF80
607FFFFF80
707FFFFF80
307FFFFF00
383FFFFF00
183FFFFE00
0C1FFFFC00
061FFFF800
038FFFF000
01C7FFE000
00FBFFC000
003FFF0000
0007F80000
ENDCHAR
STARTCHAR uniF0EA
ENCODING 61674
SWIDTH 750 0
DWIDTH 35 0
BBX 35 35 0 0
BITMAP
0003FC0000
001FFF8000
0079FFE000
01E7FFF000
038FFFF800
071FFFFC00
0C3FFFFE00
1C3FFFFF00
187FFFFF80
307FFFFF80
70FFFFFFC0
60FFFFFFC0
60FFFFFFC0
E1FFFFFFE0
C1FFFFFFE0
C1FFFFFFE0
C1FFFFFFE0
C1FFFFFFE0
C1FFFFFFE0
C1FFFFFFE0
C1FFFFFFE0
C1FFFFFFE0
61FFFFFFC0
60FFFFFFC0
70FFFFFFC0
30FFFFFF80
187FFFFF80
1C7FFFFF00
0E3FFFFE00
071FFFFC00
038FFFF800
01E7FFF000
007BFFE000
001FFF8000
0003FC0000
ENDCHAR
STARTCHAR uniF0EB
ENCODING 61675
SWIDTH 750 0
DWIDTH 35 0
BBX 35 35 0 0
BITMAP
0007FC0000
003FFF8000
00FFFFE000
01FFFFF000
03FFFFF800
07FFFFFC00
0FFFFFFE00
1FFFFFFF00
3FFFFFFF80
3FFFFFFF80
7FFFFFFFC0
7FFFFFFFC0
7FFFFFFFC0
FFFFFFFFE0
FFFFFFFFE0
FFFFFFFFE0
FFFFFFFFE0
FFFFFFFFE0
FFFFFFFFE0
FFFFFFFFE0
FFFFFFFFE0
FFFFFFFFE0
7FFFFFFFC0
7FFFFFFFC0
7FFFFFFFC0
3FFFFFFF80
3FFFFFFF80
1FFFFFFF00
0FFFFFFE00
07FFFFFC00
03FFFFF800
01FFFFF000
00FFFFE000
003FFF8000
0007FC0000
ENDCHAR
STARTCHAR .notdef
ENCODING -1
SWIDTH 365 0
DWIDTH 17 0
BBX 13 31 2 0
BITMAP
FFF8
FFF8
C018
C018
C018
C018
C018
C018
C018
C018
C018
C018
C018
C018
C018
C018
C018
C018
C018
C018
C018
C018
C018
C018
C018
C018
C018
C018
C018
FFF8
FFF8
ENDCHAR
STARTCHAR glyph1
ENCODING -1
SWIDTH 0 0
DWIDTH 0 0
BBX 1 1 0 0
BITMAP
00
ENDCHAR
STARTCHAR glyph2
ENCODING -1
SWIDTH 333 0
DWIDTH 15 0
BBX 1 1 0 0
BITMAP
00
ENDCHAR
ENDFONT
